<?xml version="1.0" encoding="utf-8"?>
<svg viewBox="0 0 71 84.2" xmlns="http://www.w3.org/2000/svg">
  <title>adjustDataBlock</title>
  <defs>
    <linearGradient id="gradient-23" y2="145.91" gradientUnits="userSpaceOnUse" x2="-150.66" y1="-35.774" x1="-150.66" gradientTransform="matrix(0.238892, 0, 0, 0.238892, 555.591492, 594.752563)">
      <stop id="stop-53" style="stop-color: rgb(157, 255, 128);" offset="0"/>
      <stop id="stop-54" style="stop-color: rgb(0, 230, 69);" offset="1"/>
    </linearGradient>
    <linearGradient id="gradient-24" y2="69.331" gradientUnits="userSpaceOnUse" y1="-33.352" gradientTransform="matrix(0.238892, 0, 0, 0.238892, 555.591492, 594.752502)" x2="-150.71" x1="-138.55">
      <stop id="stop-55" style="stop-color:#ffffff" offset="0"/>
      <stop id="stop-56" style="stop-color:#ffffff;stop-opacity:.66667" offset="0"/>
      <stop id="stop-57" style="stop-color:#9dbbe1;stop-opacity:.089431" offset="1"/>
    </linearGradient>
  </defs>
  <g transform="matrix(1, 0, 0, 1, -5, 2)">
    <title>adjustData</title>
    <g id="g-10" transform="matrix(-1.625, 0, 0, 1.603987, 89.127861, 0.211062)">
      <title>Block</title>
      <path id="path-69" d="m30 2.3622-20 10 20 10 20-10z" style="fill:#f9f9f9"/>
      <path id="path-70" style="fill:#ececec" d="m30 22.362v25l20-10v-25z"/>
      <path id="path-71" d="m30 22.362v25l-20-10v-25z" style="fill:#cccccc"/>
      <path id="path-72" d="m30 2.375-20 10v25l20 10 20-10v-25l-20-10z" style="stroke:#4d4d4d;stroke-width:1px;fill:none"/>
    </g>
    <g transform="matrix(0.638004, 0.16377, 0, 0.602759, -307.542664, -403.114807)">
      <title>Icon</title>
      <path id="path-30" style="fill: rgb(19, 216, 25);" d="M 542.458 607.907 C 542.458 620.691 532.224 631.055 519.599 631.055 C 506.975 631.055 496.741 620.691 496.741 607.907 C 496.741 595.123 506.975 584.759 519.599 584.759 C 532.224 584.759 542.458 595.123 542.458 607.907 Z"/>
      <path id="path-31" style="fill: url(#gradient-23);" d="M 541.3 607.907 C 541.3 619.893 531.585 629.609 519.599 629.609 C 507.614 629.609 497.898 619.893 497.898 607.907 C 497.898 595.922 507.614 586.206 519.599 586.206 C 531.585 586.206 541.3 595.922 541.3 607.907 Z"/>
      <path id="path-33" style="opacity: 0.7572; fill: url(#gradient-24);" d="M 519.599 586.204 C 507.804 586.204 498.206 595.621 497.905 607.344 C 507.67 611.272 522.781 614.078 541.27 606.797 C 540.693 595.327 531.213 586.204 519.599 586.204 Z"/>
    </g>
    <g id="layer1" transform="matrix(0.100918, 0, 0, 0.098694, -13.848724, -4.04067)" style="">
      <title>Data</title>
      <g id="g30016" transform="translate(-7823.7 -163.42)">
        <title>Layer1</title>
        <path id="path30018" d="m8129.4 721.68v0.29457c0.01-0.0975 0.021-0.19729 0.029-0.29457h-0.029zm138.62 0c0.03 0.33044 0.059 0.66821 0.059 1.0015v-1.0015h-0.059zm0.059 1.0015c0 15.052-31.075 27.262-69.356 27.262-37.683 0.00001-68.376-11.828-69.326-26.555v40.68c-0.015 0.23376-0.015 0.45704-0.015 0.69223 0 0.22546 0.0009 0.45335 0.015 0.67751 0.9115 14.741 31.619 26.599 69.326 26.599 37.708 0 68.415-11.858 69.326-26.599h0.029v-42.756z" style="fill: rgb(255, 255, 255);"/>
        <path id="path30020" d="m475.71 602.72c0 14.399-65.878 26.071-147.14 26.071-81.265 0-147.14-11.673-147.14-26.071 0-14.399 65.878-26.071 147.14-26.071 81.265 0 147.14 11.673 147.14 26.071z" transform="matrix(.47131 0 0 1.0459 8043.9 94.405)" style="fill: rgba(255, 255, 255, 0);"/>
      </g>
      <g id="g30022" transform="translate(-7823.7 -211.42)">
        <title>Layer2</title>
        <path id="path30024" d="m8129.4 721.68v0.29457c0.01-0.0975 0.021-0.19729 0.029-0.29457h-0.029zm138.62 0c0.03 0.33044 0.059 0.66821 0.059 1.0015v-1.0015h-0.059zm0.059 1.0015c0 15.052-31.075 27.262-69.356 27.262-37.683 0.00001-68.376-11.828-69.326-26.555v40.68c-0.015 0.23376-0.015 0.45704-0.015 0.69223 0 0.22546 0.0009 0.45335 0.015 0.67751 0.9115 14.741 31.619 26.599 69.326 26.599 37.708 0 68.415-11.858 69.326-26.599h0.029v-42.756z" style="fill: rgb(255, 255, 255);"/>
        <path id="path30026" d="m475.71 602.72c0 14.399-65.878 26.071-147.14 26.071-81.265 0-147.14-11.673-147.14-26.071 0-14.399 65.878-26.071 147.14-26.071 81.265 0 147.14 11.673 147.14 26.071z" transform="matrix(.47131 0 0 1.0459 8043.9 94.405)" style="fill: rgba(58, 119, 160, 0);"/>
      </g>
      <g id="g30028" transform="translate(-7823.7 -261.42)">
        <title>Layer3</title>
        <path id="path30030" d="m8129.4 721.68v0.29457c0.01-0.0975 0.021-0.19729 0.029-0.29457h-0.029zm138.62 0c0.03 0.33044 0.059 0.66821 0.059 1.0015v-1.0015h-0.059zm0.059 1.0015c0 15.052-31.075 27.262-69.356 27.262-37.683 0.00001-68.376-11.828-69.326-26.555v40.68c-0.015 0.23376-0.015 0.45704-0.015 0.69223 0 0.22546 0.0009 0.45335 0.015 0.67751 0.9115 14.741 31.619 26.599 69.326 26.599 37.708 0 68.415-11.858 69.326-26.599h0.029v-42.756z" style="fill: rgb(255, 255, 255);"/>
        <path id="path30032" d="m475.71 602.72c0 14.399-65.878 26.071-147.14 26.071-81.265 0-147.14-11.673-147.14-26.071 0-14.399 65.878-26.071 147.14-26.071 81.265 0 147.14 11.673 147.14 26.071z" transform="matrix(.47131 0 0 1.0459 8043.9 94.405)" style="fill: rgb(255, 255, 255);"/>
      </g>
    </g>
  </g>
</svg>