<?xml version="1.0" encoding="utf-8"?>
<svg role="img" aria-labelledby="title desc" viewBox="207.222 164.399 71 84.2" xmlns="http://www.w3.org/2000/svg">
  <title id="title">Authenticate building block</title>
  <desc id="desc">Helping to enable accountability, assessment, and greater security</desc>
  <defs>
    <linearGradient id="gradient-23" y2="145.91" gradientUnits="userSpaceOnUse" x2="-150.66" y1="-35.774" x1="-150.66" gradientTransform="matrix(0.238892, 0, 0, 0.238892, 555.591492, 594.752563)">
      <stop id="stop-53" style="stop-color: rgb(157, 255, 128);" offset="0"/>
      <stop id="stop-54" style="stop-color: rgb(0, 230, 69);" offset="1"/>
    </linearGradient>
    <linearGradient id="gradient-24" y2="69.331" gradientUnits="userSpaceOnUse" y1="-33.352" gradientTransform="matrix(0.238892, 0, 0, 0.238892, 555.591492, 594.752502)" x2="-150.71" x1="-138.55">
      <stop id="stop-55" style="stop-color:#ffffff" offset="0"/>
      <stop id="stop-56" style="stop-color:#ffffff;stop-opacity:.66667" offset="0"/>
      <stop id="stop-57" style="stop-color:#9dbbe1;stop-opacity:.089431" offset="1"/>
    </linearGradient>
  </defs>
  <g transform="matrix(0.893149, 0, 0, 0.823168, -634.130981, 56.017658)">
    <title>Authenticate</title>
    <g id="g-7" transform="matrix(-1.819406, 0, 0, 1.948554, 1025.420532, -1818.834961)" style="">
      <title>Cube</title>
      <g id="g-8" transform="translate(-6,1003)">
        <path id="path-34" d="m30 2.3622-20 10 20 10 20-10z" style="fill:#f9f9f9"/>
        <path id="path-35" style="fill:#ececec" d="m30 22.362v25l20-10v-25z"/>
        <path id="path-36" d="m30 22.362v25l-20-10v-25z" style="fill:#cccccc"/>
        <path id="path-37" d="m30 2.375-20 10v25l20 10 20-10v-25l-20-10z" style="stroke:#4d4d4d;stroke-width:1px;fill:none"/>
      </g>
    </g>
    <g id="g-5" transform="matrix(0.674545, 0.18787, 0, 0.700217, 1357.840576, -872.640503)" style="">
      <title>Authenticate</title>
      <g transform="matrix(1.058982, 0, 0, 1.045738, -1134.547974, 1043.179199)">
        <title>Icon</title>
        <path id="path-30" style="fill: rgb(19, 216, 25);" d="M 542.458 607.907 C 542.458 620.691 532.224 631.055 519.599 631.055 C 506.975 631.055 496.741 620.691 496.741 607.907 C 496.741 595.123 506.975 584.759 519.599 584.759 C 532.224 584.759 542.458 595.123 542.458 607.907 Z"/>
        <path id="path-31" style="fill: url(#gradient-23);" d="M 541.3 607.907 C 541.3 619.893 531.585 629.609 519.599 629.609 C 507.614 629.609 497.898 619.893 497.898 607.907 C 497.898 595.922 507.614 586.206 519.599 586.206 C 531.585 586.206 541.3 595.922 541.3 607.907 Z"/>
        <path id="path-33" style="opacity: 0.7572; fill: url(#gradient-24);" d="M 519.599 586.204 C 507.804 586.204 498.206 595.621 497.905 607.344 C 507.67 611.272 522.781 614.078 541.27 606.797 C 540.693 595.327 531.213 586.204 519.599 586.204 Z"/>
        <path id="path2832" style="fill: rgb(255, 255, 255);" d="M 518.761 628.093 C 518.761 627.815 519.268 627.698 519.418 627.942 C 519.509 628.09 519.398 628.21 519.172 628.21 C 518.946 628.21 518.761 628.158 518.761 628.093 Z M 515.857 627.535 C 515.857 627.308 515.976 627.197 516.121 627.287 C 516.267 627.376 516.385 627.561 516.385 627.698 C 516.385 627.835 516.267 627.946 516.121 627.946 C 515.976 627.946 515.857 627.761 515.857 627.535 Z M 517.705 627.711 C 517.705 627.457 518.347 627.149 518.849 627.163 C 519.018 627.168 518.926 627.347 518.644 627.559 C 518.062 627.999 517.705 628.057 517.705 627.711 Z M 521.4 627.195 C 521.4 627.072 521.872 626.759 522.448 626.498 C 523.025 626.238 523.696 625.804 523.941 625.535 C 524.479 624.94 524.744 624.909 524.744 625.439 C 524.744 625.657 524.591 625.835 524.405 625.835 C 524.218 625.835 523.538 626.191 522.893 626.627 C 521.656 627.462 521.4 627.559 521.4 627.195 Z M 522.72 627.154 C 522.72 627.01 522.905 626.891 523.131 626.891 C 523.358 626.891 523.469 627.01 523.38 627.154 C 523.29 627.3 523.104 627.418 522.968 627.418 C 522.832 627.418 522.72 627.3 522.72 627.154 Z M 524.716 627.182 C 524.636 627.052 524.748 626.877 524.964 626.794 C 525.204 626.702 525.359 626.794 525.359 627.031 C 525.359 627.458 524.946 627.555 524.716 627.182 Z M 516.287 626.945 C 516.217 626.83 516.565 626.785 517.063 626.843 C 517.561 626.901 517.969 626.995 517.969 627.051 C 517.969 627.25 516.415 627.152 516.287 626.945 Z M 520.197 626.75 C 520.478 626.538 520.818 626.363 520.952 626.363 C 521.287 626.363 523.775 624.732 523.775 624.513 C 523.775 624.416 524.072 624.2 524.436 624.035 C 524.798 623.87 525.095 623.79 525.095 623.858 C 525.095 624.084 523.949 625.306 523.737 625.306 C 523.623 625.306 522.973 625.659 522.295 626.09 C 521.615 626.522 520.966 626.816 520.852 626.746 C 520.737 626.676 520.57 626.739 520.479 626.886 C 520.387 627.034 520.172 627.151 519.999 627.146 C 519.826 627.141 519.915 626.963 520.197 626.75 Z M 515.263 626.708 C 515.009 626.642 514.801 626.489 514.801 626.368 C 514.801 626.248 515.039 626.21 515.33 626.285 C 515.62 626.362 515.857 626.53 515.857 626.657 C 515.857 626.786 515.827 626.877 515.791 626.86 C 515.755 626.843 515.518 626.775 515.263 626.708 Z M 518.497 626.627 C 518.497 626.481 518.615 626.363 518.761 626.363 C 518.905 626.363 519.025 626.481 519.025 626.627 C 519.025 626.772 518.905 626.891 518.761 626.891 C 518.615 626.891 518.497 626.772 518.497 626.627 Z M 525.887 626.634 C 525.887 626.277 526.357 626.054 526.527 626.33 C 526.609 626.462 526.498 626.639 526.282 626.723 C 526.065 626.806 525.887 626.766 525.887 626.634 Z M 519.209 626.272 C 519.122 626.047 518.755 625.952 518.191 626.011 C 517.536 626.079 517.441 626.046 517.822 625.881 C 518.315 625.669 518.313 625.654 517.756 625.507 C 517.364 625.405 517.177 625.475 517.177 625.724 C 517.177 626.241 515.891 626.094 515.722 625.559 C 515.576 625.098 512.953 623.63 512.953 624.009 C 512.953 624.136 513.421 624.479 513.992 624.769 C 515.035 625.302 515.588 625.835 515.097 625.835 C 514.951 625.835 514.759 625.716 514.669 625.571 C 514.579 625.426 514.298 625.306 514.044 625.306 C 513.789 625.306 513.351 625.099 513.07 624.845 C 512.788 624.591 512.112 624.05 511.568 623.644 C 511.023 623.237 510.579 622.779 510.579 622.627 C 510.579 622.474 511.007 622.725 511.529 623.185 C 512.053 623.644 512.557 623.944 512.651 623.85 C 512.745 623.756 512.583 623.517 512.293 623.318 C 511.549 622.807 510.838 622.086 510.545 621.546 C 510.115 620.751 510.778 621.018 511.428 621.901 C 511.759 622.351 512.564 623.024 513.218 623.399 C 513.871 623.772 514.566 624.201 514.762 624.351 C 514.958 624.501 515.278 624.647 515.472 624.676 C 515.667 624.704 516.303 624.795 516.885 624.876 C 517.933 625.022 518.998 625.485 519.325 625.935 C 519.564 626.263 520.126 625.859 519.912 625.512 C 519.806 625.34 519.858 625.301 520.04 625.414 C 520.258 625.549 520.267 625.75 520.071 626.115 C 519.753 626.711 519.402 626.775 519.21 626.272 Z M 516.641 625.296 C 516.019 624.904 515.705 625.005 516.268 625.417 C 516.549 625.623 516.836 625.735 516.904 625.667 C 516.974 625.598 516.855 625.432 516.641 625.296 Z M 513.867 626.08 C 513.771 625.926 513.519 625.865 513.308 625.946 C 513.098 626.026 512.993 625.984 513.076 625.851 C 513.158 625.717 512.974 625.529 512.667 625.432 C 512.133 625.262 511.106 624.398 511.106 624.117 C 511.106 623.953 512.148 624.531 512.607 624.952 C 512.791 625.119 513.3 625.416 513.739 625.61 C 514.178 625.805 514.537 626.053 514.537 626.163 C 514.537 626.461 514.066 626.403 513.867 626.08 Z M 520.867 625.708 C 521.139 625.381 521.131 625.306 520.825 625.306 C 520.619 625.306 520.309 625.167 520.139 624.996 C 519.902 624.758 520.014 624.574 520.621 624.205 C 521.529 623.652 521.664 623.623 521.664 623.982 C 521.664 624.124 521.367 624.315 521.004 624.407 C 520.64 624.497 520.343 624.678 520.343 624.808 C 520.343 625.258 520.979 625.039 521.715 624.334 C 522.122 623.944 522.455 623.756 522.455 623.916 C 522.455 624.076 522.129 624.451 521.73 624.749 C 521.331 625.047 521.128 625.294 521.277 625.298 C 521.429 625.303 521.963 624.943 522.465 624.497 C 522.968 624.051 523.239 623.756 523.068 623.841 C 522.676 624.035 522.349 623.556 522.717 623.329 C 523.15 623.061 523.761 621.722 523.927 620.674 C 524.043 619.946 524 619.757 523.755 619.909 C 523.508 620.061 523.47 619.861 523.599 619.079 C 523.692 618.512 523.771 617.781 523.772 617.454 C 523.774 617.128 523.902 616.86 524.057 616.86 C 524.218 616.86 524.267 617.086 524.171 617.389 C 524.067 617.717 524.124 617.917 524.322 617.917 C 524.715 617.917 524.481 615.086 524.054 614.658 C 523.901 614.505 523.775 614.127 523.775 613.817 C 523.775 613.241 522.853 610.788 521.843 608.678 C 521.105 607.136 519.519 605.517 518.579 605.348 C 516.698 605.006 514.746 606.252 513.86 608.357 C 513.302 609.684 513.354 612.855 513.95 613.806 C 514.047 613.962 514.148 614.227 514.173 614.394 C 514.198 614.562 514.617 615.237 515.104 615.894 C 515.865 616.923 516.099 617.077 516.781 616.993 C 517.216 616.939 517.702 616.888 517.859 616.878 C 518.151 616.86 518.761 615.75 518.761 615.237 C 518.761 615.083 518.407 615.335 517.975 615.796 C 517.208 616.619 516.525 616.697 516.82 615.928 C 516.904 615.712 516.82 615.541 516.632 615.541 C 516.446 615.541 516.077 615.344 515.812 615.104 C 515.526 614.846 515.329 614.791 515.329 614.97 C 515.329 615.136 515.566 615.42 515.857 615.602 C 516.147 615.783 516.385 616.029 516.385 616.148 C 516.385 616.265 516.135 616.188 515.831 615.975 C 515.174 615.514 514.478 614.266 514.688 613.925 C 514.921 613.549 515.324 613.928 515.156 614.365 C 515.054 614.629 515.131 614.707 515.389 614.608 C 515.599 614.527 515.925 614.645 516.111 614.869 C 516.599 615.458 518.203 615.416 518.188 614.814 C 518.182 614.561 518.289 613.802 518.429 613.13 C 518.784 611.403 517.854 608.966 516.831 608.946 C 516.713 608.944 516.691 609.061 516.781 609.206 C 516.87 609.35 516.819 609.47 516.666 609.47 C 516.515 609.47 516.315 609.945 516.222 610.525 C 516.129 611.106 515.942 611.581 515.808 611.581 C 515.672 611.581 515.63 611.471 515.714 611.336 C 515.797 611.2 515.743 611.015 515.593 610.921 C 515.443 610.829 515.408 610.613 515.515 610.441 C 515.811 609.967 515.839 609.47 515.57 609.47 C 515.437 609.47 515.329 609.708 515.329 609.998 C 515.329 610.289 515.201 610.525 515.044 610.525 C 514.707 610.525 515.001 608.859 515.362 608.721 C 515.491 608.673 515.543 608.547 515.478 608.442 C 515.413 608.337 515.625 607.918 515.951 607.51 C 516.639 606.648 517.825 606.417 518.685 606.977 C 519.61 607.579 519.967 607.421 519.295 606.706 C 518.793 606.172 518.511 606.08 517.731 606.199 C 516.51 606.386 515.654 606.943 515.106 607.907 C 514.866 608.329 514.566 608.675 514.439 608.676 C 514.312 608.677 514.341 608.518 514.502 608.324 C 514.665 608.129 514.735 607.908 514.66 607.833 C 514.477 607.649 516.562 605.781 516.979 605.752 C 517.16 605.741 517.596 605.7 517.947 605.661 C 518.542 605.597 518.977 605.895 520.701 607.549 C 521.137 607.966 522.068 609.776 522.555 611.157 C 522.705 611.58 522.67 611.605 522.33 611.323 C 522.108 611.139 521.927 610.81 521.927 610.592 C 521.927 610.085 520.377 607.359 520.089 607.359 C 519.623 607.359 519.608 608.103 520.07 608.224 C 520.564 608.353 521.566 610.275 522.06 612.043 C 522.152 612.369 522.334 612.637 522.464 612.637 C 522.595 612.637 522.634 612.459 522.551 612.241 C 522.467 612.023 522.517 611.845 522.662 611.845 C 522.903 611.845 523.236 612.701 523.382 613.692 C 523.414 613.911 523.533 614.433 523.646 614.854 C 523.794 615.402 523.766 615.566 523.55 615.433 C 523.385 615.33 523.174 614.775 523.081 614.2 C 522.989 613.624 522.818 613.094 522.701 613.022 C 522.324 612.789 522.545 614.06 523.036 614.955 C 523.615 616.009 523.646 617.027 523.115 617.558 C 522.897 617.776 522.719 618.172 522.719 618.438 C 522.719 618.792 522.578 618.885 522.192 618.784 C 521.813 618.686 521.664 618.776 521.664 619.105 C 521.664 619.502 521.723 619.515 522.102 619.202 C 522.479 618.892 522.522 618.896 522.404 619.235 C 522.328 619.454 522.06 619.613 521.807 619.591 C 521.551 619.568 521.157 619.879 520.922 620.289 C 520.429 621.147 519.218 621.598 517.72 621.478 C 515.475 621.296 512.607 618.322 512.251 615.804 C 512.171 615.238 512.197 615.21 512.438 615.608 C 512.592 615.863 512.645 616.19 512.556 616.334 C 512.467 616.479 512.491 616.596 512.607 616.596 C 512.725 616.596 513.149 617.182 513.553 617.898 C 514.681 619.907 516.022 620.83 517.982 620.949 C 519.536 621.043 519.631 621.011 520.499 620.119 C 520.993 619.608 521.4 618.954 521.4 618.664 C 521.4 618.264 521.192 618.411 520.53 619.281 C 519.808 620.231 519.489 620.437 518.642 620.507 C 518.081 620.554 517.346 620.523 517.008 620.437 C 516.227 620.242 514.663 618.875 513.7 617.546 C 512.777 616.274 512.714 615.657 513.614 616.703 C 513.976 617.125 514.273 617.556 514.273 617.66 C 514.273 618.016 516.029 619.767 516.207 619.589 C 516.305 619.491 516.384 619.545 516.384 619.708 C 516.384 620.137 518.162 620.414 518.597 620.053 C 518.795 619.889 519.17 619.836 519.43 619.936 C 519.754 620.06 519.842 620.02 519.711 619.808 C 519.485 619.443 518.579 619.394 518.452 619.742 C 518.333 620.067 516.415 619.384 515.884 618.827 C 515.489 618.412 515.505 618.406 516.121 618.732 C 517.167 619.287 518.228 619.321 518.786 618.816 C 519.106 618.526 519.288 618.478 519.288 618.681 C 519.288 618.859 519.406 618.929 519.552 618.84 C 519.697 618.75 519.816 618.558 519.816 618.412 C 519.816 618.267 519.697 618.222 519.552 618.312 C 519.268 618.488 519.184 618.108 519.448 617.844 C 519.796 617.497 520.291 618.305 520.03 618.796 C 519.584 619.637 520.006 619.575 520.507 618.726 C 520.771 618.28 521.138 617.916 521.324 617.916 C 521.511 617.916 521.664 617.797 521.664 617.652 C 521.664 617.507 521.79 617.387 521.945 617.387 C 522.107 617.387 522.156 617.613 522.06 617.916 C 521.967 618.206 522.009 618.444 522.153 618.444 C 522.499 618.444 522.844 616.959 522.767 615.804 C 522.686 614.58 522.516 614.151 522.193 614.352 C 522.034 614.449 521.929 614.162 521.929 613.643 C 521.933 612.545 520.967 609.755 520.293 608.916 L 519.784 608.282 L 520.207 609.206 C 520.439 609.714 520.728 610.311 520.849 610.534 C 521.104 611.003 521.314 612.002 521.522 613.727 C 521.648 614.765 521.596 614.968 521.183 615.077 C 520.688 615.206 520.592 615.523 520.582 617.058 C 520.579 617.53 520.458 617.916 520.313 617.916 C 520.167 617.916 520.133 617.778 520.236 617.611 C 520.359 617.413 520.309 617.379 520.092 617.512 C 519.839 617.669 519.813 617.568 519.985 617.091 C 520.269 616.307 520.179 612.631 519.87 612.322 C 519.74 612.192 519.69 612.427 519.753 612.861 C 519.815 613.284 519.758 613.697 519.625 613.779 C 519.492 613.862 519.383 613.608 519.381 613.217 C 519.379 612.825 519.293 612.06 519.189 611.516 C 518.973 610.388 519.177 610.201 519.552 611.185 C 519.69 611.549 519.984 611.845 520.205 611.845 C 520.511 611.845 520.607 612.157 520.607 613.149 C 520.607 613.867 520.731 614.53 520.882 614.622 C 521.134 614.779 521.066 613.204 520.754 611.693 C 520.604 610.96 519.839 609.47 519.109 608.484 C 518.615 607.819 518.575 607.669 518.926 607.803 C 519.203 607.91 519.31 607.871 519.205 607.701 C 518.959 607.304 516.963 607.04 516.437 607.336 C 516.084 607.534 516.171 607.584 516.845 607.565 C 517.84 607.537 518.928 608.52 519.802 610.234 C 520.395 611.399 520.442 611.581 520.144 611.581 C 520.035 611.581 519.781 611.213 519.582 610.762 C 519.312 610.153 519.162 610.034 518.994 610.3 C 518.81 610.591 518.762 610.585 518.733 610.262 C 518.713 610.043 518.715 609.768 518.734 609.65 C 518.755 609.532 518.521 609.084 518.215 608.654 C 517.765 608.022 517.489 607.884 516.774 607.931 C 516.288 607.965 515.952 608.092 516.028 608.214 C 516.104 608.336 516.022 608.609 515.847 608.821 C 515.445 609.306 515.603 609.306 516.541 608.819 C 517.212 608.471 517.327 608.478 517.694 608.886 C 518.421 609.69 518.822 610.885 518.929 612.57 C 519.004 613.751 518.943 614.221 518.712 614.221 C 518.469 614.221 518.464 614.295 518.696 614.526 C 518.928 614.757 519.093 614.757 519.377 614.521 C 519.68 614.269 519.774 614.326 519.87 614.827 C 519.935 615.166 519.898 615.674 519.789 615.955 C 519.613 616.402 519.586 616.384 519.56 615.804 C 519.531 615.156 519.525 615.158 519.163 615.936 C 518.96 616.372 518.689 616.881 518.559 617.067 C 518.289 617.453 515.859 617.825 515.852 617.481 C 515.844 617.064 514.35 615.552 514.136 615.745 C 514.019 615.85 513.997 615.809 514.086 615.654 C 514.174 615.498 514.063 615.023 513.84 614.598 C 513.309 613.588 513.199 613.087 513.089 611.195 C 512.919 608.244 514.567 605.638 516.993 605.022 C 517.908 604.789 518.274 604.829 519.254 605.263 C 519.898 605.548 520.486 605.72 520.561 605.646 C 520.635 605.572 520.646 605.481 520.586 605.444 C 519.323 604.687 518.6 604.455 517.502 604.455 C 516.348 604.455 516.051 604.581 514.97 605.533 C 514.135 606.267 513.745 606.479 513.745 606.196 C 513.745 605.967 514.398 605.347 515.195 604.816 C 516.562 603.909 516.737 603.862 518.232 603.997 C 519.509 604.113 519.863 604.06 520.052 603.721 C 520.265 603.342 520.354 603.345 520.998 603.767 C 521.389 604.024 521.773 604.169 521.851 604.09 C 522.053 603.889 523.511 604.679 523.511 604.99 C 523.511 605.361 523.047 605.306 522.918 604.919 C 522.837 604.677 522.699 604.701 522.39 605.009 C 522.008 605.392 522.071 605.535 523.113 606.652 C 524.001 607.607 524.404 608.361 524.938 610.074 C 525.314 611.282 525.622 612.413 525.622 612.586 C 525.622 612.759 525.721 612.902 525.842 612.902 C 526.149 612.902 526.132 612.046 525.818 611.647 C 525.675 611.466 525.627 611.317 525.713 611.317 C 525.798 611.317 525.639 610.783 525.358 610.13 C 524.88 609.013 524.896 608.818 525.458 608.922 C 525.681 608.963 525.628 608.62 525.235 607.49 C 525.054 606.97 525.058 606.969 525.469 607.474 C 525.941 608.054 526.015 608.831 525.623 609.073 C 525.456 609.176 525.494 609.494 525.727 609.947 C 526.228 610.914 526.686 612.686 526.728 613.815 C 526.748 614.329 526.871 614.749 527.002 614.749 C 527.281 614.749 527.019 612.341 526.631 611.339 C 526.486 610.964 526.329 610.48 526.282 610.262 C 526.235 610.043 526.113 609.658 526.013 609.403 C 525.907 609.137 525.95 608.941 526.113 608.941 C 526.27 608.941 526.331 608.735 526.253 608.48 C 525.937 607.474 527.015 609.095 527.875 610.918 C 529.079 613.472 528.718 613.658 527.468 611.129 C 526.342 608.85 526.07 608.675 527.03 610.848 C 527.37 611.614 527.658 612.3 527.673 612.373 C 527.688 612.446 527.761 612.683 527.837 612.902 C 527.913 613.118 528.098 613.713 528.248 614.221 C 528.455 614.919 528.498 614.965 528.427 614.412 C 528.375 614.01 528.427 613.622 528.541 613.551 C 528.857 613.356 529.399 616.23 529.426 618.245 C 529.439 619.225 529.538 620.027 529.648 620.027 C 529.756 620.027 529.846 620.148 529.846 620.296 C 529.846 620.445 529.548 620.512 529.186 620.445 C 528.654 620.349 528.526 620.434 528.526 620.878 C 528.526 621.181 528.223 621.827 527.852 622.312 C 527.482 622.797 527.274 623.193 527.391 623.19 C 527.758 623.183 528.163 622.815 528.346 622.321 C 528.446 622.047 528.652 621.922 528.824 622.029 C 529.103 622.201 526.921 624.518 525.49 625.569 C 524.977 625.946 524.976 625.942 525.424 625.413 C 526.005 624.73 526.013 624.482 525.447 624.699 C 524.964 624.885 525.106 624.505 525.836 623.655 C 526.055 623.4 526.156 623.112 526.058 623.014 C 525.961 622.917 525.696 623.067 525.472 623.347 C 525.014 623.913 525.045 623.788 525.727 622.286 C 526.312 620.998 526.47 620.4 526.513 619.302 C 526.531 618.83 526.652 618.444 526.78 618.444 C 527.121 618.444 526.776 620.92 526.311 621.819 C 525.954 622.51 525.959 622.627 526.363 623.037 C 526.783 623.464 526.783 623.512 526.349 623.834 C 525.781 624.254 525.756 624.514 526.282 624.514 C 526.5 624.514 526.678 624.346 526.678 624.14 C 526.678 623.935 526.827 623.697 527.008 623.612 C 527.27 623.49 527.27 623.427 527.01 623.305 C 526.777 623.197 526.872 622.905 527.346 622.285 C 527.765 621.734 527.948 621.234 527.846 620.92 C 527.712 620.51 527.735 620.492 527.969 620.819 C 528.215 621.162 528.254 621.152 528.257 620.753 C 528.26 620.499 528.143 620.291 527.998 620.291 C 527.852 620.291 527.734 620.183 527.734 620.051 C 527.734 619.921 527.942 619.844 528.196 619.882 C 528.45 619.921 528.505 619.9 528.318 619.837 C 527.838 619.673 527.962 616.068 528.447 616.068 C 528.635 616.068 528.789 615.88 528.789 615.65 C 528.789 615.42 528.641 615.284 528.46 615.347 C 528.277 615.41 527.983 615.095 527.803 614.642 C 527.482 613.844 527.479 613.852 527.613 615.013 C 527.749 616.164 527.741 616.18 527.355 615.54 C 526.97 614.902 526.96 614.924 527.056 616.2 C 527.194 618.058 527.247 618.17 527.49 617.123 C 527.623 616.552 527.656 617.258 527.576 618.971 C 527.467 621.289 527.359 621.829 526.916 622.27 L 526.385 622.799 L 526.689 622.007 C 527.199 620.679 527.433 618.412 527.075 618.275 C 526.902 618.209 526.738 617.596 526.712 616.913 C 526.684 616.231 526.621 615.494 526.572 615.276 C 526.522 615.059 526.392 614.494 526.283 614.023 C 526.174 613.551 525.987 613.165 525.867 613.165 C 525.747 613.165 525.77 613.512 525.919 613.938 C 526.068 614.363 526.148 615.046 526.099 615.456 C 526.034 616.004 525.89 615.688 525.554 614.26 C 525.303 613.191 525.162 612.212 525.243 612.082 C 525.323 611.952 525.264 611.845 525.11 611.845 C 524.956 611.845 524.831 611.437 524.831 610.937 C 524.831 610.438 524.725 609.964 524.595 609.883 C 524.466 609.804 524.28 609.418 524.183 609.026 C 523.95 608.1 521.641 605.202 520.763 604.73 C 519.788 604.21 519.62 604.573 520.575 605.137 C 521.012 605.395 521.311 605.704 521.237 605.823 C 521.165 605.94 521.289 606.038 521.516 606.038 C 521.742 606.038 521.929 606.127 521.929 606.236 C 521.93 606.344 522.317 606.852 522.788 607.363 C 523.257 607.874 523.689 608.468 523.745 608.683 C 523.802 608.897 524.048 609.791 524.292 610.669 C 524.535 611.547 524.69 612.398 524.637 612.56 C 524.583 612.72 524.664 612.929 524.816 613.024 C 524.969 613.118 525.094 613.322 525.094 613.476 C 525.094 613.653 524.948 613.636 524.699 613.429 C 524.481 613.248 524.303 612.915 524.303 612.688 C 524.303 612.461 524.046 611.733 523.733 611.07 C 523.421 610.407 523.062 609.627 522.936 609.337 C 522.723 608.844 522.73 608.842 523.043 609.294 C 523.987 610.657 524.025 610.692 523.829 609.997 C 523.727 609.634 523.497 609.1 523.317 608.809 C 523.051 608.375 522.949 608.348 522.748 608.654 C 522.454 609.102 522.691 609.885 523.813 612.171 C 523.937 612.423 524.038 612.834 524.038 613.085 C 524.038 613.335 524.336 613.783 524.7 614.078 C 525.169 614.46 525.41 614.98 525.527 615.869 C 525.63 616.645 525.593 617.123 525.428 617.123 C 525.282 617.123 525.164 616.916 525.165 616.662 C 525.17 615.287 525.053 614.744 524.666 614.358 C 524.432 614.123 524.168 614.003 524.08 614.09 C 523.993 614.177 524.086 614.35 524.288 614.475 C 524.781 614.78 524.857 618.343 524.369 618.245 C 524.186 618.209 524.038 618.298 524.038 618.444 C 524.038 618.588 524.157 618.707 524.303 618.707 C 524.447 618.707 524.567 618.956 524.567 619.261 C 524.567 620.009 523.777 622.715 523.434 623.143 C 523.281 623.333 523.266 623.452 523.4 623.407 C 523.64 623.327 523.774 623.518 523.774 623.942 C 523.774 624.2 521.751 625.666 521.032 625.927 C 520.609 626.082 520.583 626.049 520.867 625.707 Z M 529.011 619.038 C 528.969 618.784 529.022 618.438 529.129 618.269 C 529.235 618.099 529.209 617.665 529.073 617.306 C 528.936 616.945 528.895 616.579 528.983 616.492 C 529.071 616.404 529.003 616.332 528.833 616.332 C 528.455 616.332 528.424 617.294 528.795 617.523 C 528.942 617.614 528.993 617.802 528.909 617.938 C 528.823 618.076 528.628 618.111 528.473 618.016 C 528.305 617.911 528.26 617.989 528.359 618.209 C 528.451 618.411 528.599 618.784 528.69 619.038 C 528.779 619.292 528.904 619.5 528.969 619.5 C 529.034 619.5 529.053 619.292 529.011 619.038 Z M 522.855 608.013 C 523.015 607.866 522.926 607.841 522.624 607.95 C 522.259 608.081 522.172 608.026 522.282 607.737 C 522.37 607.508 522.096 607.009 521.62 606.535 C 520.596 605.509 520.349 605.696 521.202 606.85 C 521.559 607.331 521.933 607.96 522.034 608.245 C 522.139 608.536 522.302 608.654 522.407 608.509 C 522.51 608.368 522.711 608.145 522.855 608.013 Z M 522.361 604.69 C 522.43 604.69 522.42 604.582 522.339 604.45 C 522.258 604.319 521.967 604.27 521.693 604.341 C 521.42 604.413 521.116 604.343 521.018 604.184 C 520.92 604.027 520.7 603.9 520.526 603.904 C 520.353 603.907 520.509 604.142 520.872 604.427 C 521.235 604.711 521.69 604.886 521.884 604.817 C 522.077 604.746 522.292 604.69 522.361 604.69 Z M 518.628 625.014 C 518.539 624.868 518.71 624.75 519.009 624.75 C 519.308 624.75 519.552 624.868 519.552 625.014 C 519.552 625.158 519.381 625.277 519.172 625.277 C 518.963 625.277 518.719 625.158 518.628 625.014 Z M 526.937 624.887 C 527.121 624.666 527.435 624.486 527.635 624.486 C 527.834 624.486 527.969 624.38 527.933 624.251 C 527.864 624.005 528.998 622.902 529.318 622.902 C 529.644 622.902 527.619 624.918 527.104 625.107 C 526.68 625.262 526.655 625.229 526.937 624.887 Z M 517.298 624.469 C 517.055 624.075 517.134 624.041 518.694 623.899 C 520.192 623.761 520.42 623.845 519.487 624.189 C 518.249 624.646 517.469 624.745 517.298 624.469 Z M 515.659 624.213 C 515.333 624.083 515.065 623.911 515.065 623.835 C 515.065 623.544 516.04 623.708 516.533 624.081 C 517.131 624.534 516.64 624.608 515.659 624.213 Z M 514.007 623.295 C 513.65 622.866 513.93 622.776 514.5 623.137 C 514.717 623.275 514.755 623.427 514.596 623.526 C 514.451 623.615 514.186 623.511 514.007 623.295 Z M 515.722 623.313 C 515.289 623.131 514.537 622.648 514.054 622.24 C 513.527 621.795 513.196 621.648 513.228 621.871 C 513.256 622.075 513.266 622.465 513.249 622.736 C 513.222 623.152 513.153 623.177 512.809 622.892 C 512.504 622.638 512.481 622.503 512.718 622.357 C 512.94 622.219 512.814 621.956 512.296 621.476 C 511.889 621.099 511.642 620.79 511.746 620.79 C 511.851 620.79 511.679 620.463 511.365 620.065 C 510.886 619.454 510.05 617.8 510.05 617.459 C 510.05 617.404 510.167 617.358 510.309 617.358 C 510.451 617.358 510.645 617.664 510.738 618.038 C 510.832 618.411 511.326 619.331 511.837 620.084 C 512.987 621.776 512.922 621.703 513.115 621.51 C 513.203 621.421 512.894 620.784 512.429 620.093 C 511.351 618.498 510.554 616.567 510.973 616.567 C 511.089 616.567 511.727 617.946 511.886 618.547 C 511.925 618.692 512.181 619.126 512.455 619.511 C 512.729 619.897 512.953 620.291 512.953 620.388 C 512.953 620.721 513.741 621.352 513.976 621.207 C 514.106 621.127 514.511 621.297 514.878 621.585 C 515.6 622.154 516.121 622.264 516.121 621.848 C 516.121 621.553 517.052 621.631 517.368 621.953 C 517.481 622.067 517.335 622.123 517.045 622.075 C 516.754 622.026 516.517 622.103 516.517 622.246 C 516.517 622.523 516.609 622.55 517.837 622.627 C 518.526 622.668 518.561 622.704 518.101 622.901 C 517.658 623.092 517.712 623.131 518.43 623.147 C 518.902 623.158 519.289 623.294 519.289 623.451 C 519.289 623.787 517.621 623.495 517.485 623.133 C 517.436 623.006 517.139 622.903 516.825 622.906 C 516.403 622.909 516.348 622.97 516.611 623.137 C 517.228 623.527 516.55 623.663 515.722 623.313 Z M 516.248 622.91 C 516.382 622.694 515.896 622.397 514.141 621.626 C 513.997 621.562 514.162 621.819 514.509 622.198 C 514.857 622.576 515.236 622.828 515.349 622.757 C 515.463 622.687 515.631 622.751 515.722 622.898 C 515.93 623.233 516.047 623.234 516.248 622.91 Z M 521.079 623 C 521.546 622.634 521.929 622.158 521.929 621.941 C 521.929 621.677 522.09 621.598 522.417 621.702 C 522.795 621.822 522.966 621.662 523.182 620.993 C 523.408 620.287 523.463 620.241 523.484 620.737 C 523.499 621.071 523.346 621.665 523.143 622.058 C 522.689 622.936 521.664 623.905 521.664 623.455 C 521.664 623.265 521.53 623.218 521.334 623.341 C 520.511 623.855 520.319 623.596 521.079 623 Z M 522.464 622.506 C 522.823 622.017 522.817 622.005 522.39 622.34 C 522.136 622.54 521.929 622.827 521.929 622.979 C 521.929 623.13 521.961 623.204 522.002 623.144 C 522.044 623.083 522.252 622.796 522.464 622.506 Z M 524.19 623.015 C 524.089 622.611 524.132 622.176 524.288 622.019 C 524.442 621.865 524.569 621.437 524.571 621.067 C 524.574 620.698 524.691 620.217 524.832 619.998 C 525.271 619.318 525.143 621.088 524.69 621.958 C 524.369 622.572 524.356 622.771 524.623 622.936 C 524.87 623.089 524.881 623.221 524.665 623.438 C 524.448 623.655 524.323 623.542 524.19 623.015 Z M 519.552 623.166 C 519.552 623.021 519.4 622.902 519.213 622.902 C 518.811 622.902 518.749 621.865 519.147 621.806 C 519.298 621.784 519.539 621.748 519.684 621.727 C 520.28 621.641 521.136 620.897 521.136 620.463 C 521.136 619.928 521.47 619.876 522.241 620.289 C 522.636 620.5 522.735 620.5 522.603 620.286 C 522.409 619.973 522.929 618.191 523.341 617.753 C 523.5 617.585 523.534 617.645 523.437 617.925 C 523.353 618.165 523.14 619.094 522.964 619.99 C 522.785 620.895 522.558 621.481 522.451 621.308 C 522.303 621.07 522.213 621.069 522.066 621.304 C 521.961 621.476 521.721 621.557 521.534 621.485 C 521.347 621.413 520.93 621.599 520.609 621.899 C 520.171 622.307 519.973 622.361 519.821 622.115 C 519.677 621.883 519.565 621.871 519.438 622.079 C 519.339 622.24 519.358 622.371 519.481 622.371 C 519.604 622.371 519.722 622.609 519.744 622.899 C 519.766 623.19 519.731 623.427 519.667 623.427 C 519.604 623.427 519.552 623.308 519.552 623.164 Z M 522.024 620.469 C 521.926 620.309 521.773 620.347 521.634 620.565 C 521.274 621.134 521.364 621.413 521.793 621.057 C 522.009 620.878 522.113 620.612 522.024 620.469 Z M 520.08 623.005 C 520.08 622.81 521.21 621.866 521.457 621.855 C 521.561 621.85 521.585 622.008 521.509 622.206 C 521.371 622.566 520.08 623.287 520.08 623.005 Z M 517.837 622.11 C 517.747 621.965 517.792 621.846 517.938 621.846 C 518.083 621.846 518.274 621.965 518.365 622.11 C 518.454 622.255 518.409 622.374 518.263 622.374 C 518.119 622.374 517.927 622.255 517.837 622.11 Z M 525.095 622.141 C 525.095 621.996 525.214 621.804 525.359 621.715 C 525.504 621.625 525.623 621.67 525.623 621.815 C 525.623 621.961 525.504 622.153 525.359 622.242 C 525.214 622.332 525.095 622.287 525.095 622.141 Z M 509.787 621.699 C 509.787 621.472 509.905 621.361 510.05 621.45 C 510.195 621.541 510.314 621.725 510.314 621.862 C 510.314 621.998 510.195 622.11 510.05 622.11 C 509.905 622.11 509.787 621.925 509.787 621.699 Z M 511.466 621.474 C 509.277 618.518 508.763 617.623 509.255 617.623 C 509.388 617.623 509.705 618.068 509.958 618.613 C 510.211 619.157 510.485 619.662 510.566 619.734 C 511.019 620.141 512.195 621.901 512.087 622.009 C 512.016 622.081 511.737 621.839 511.466 621.474 Z M 529.603 621.737 C 529.592 621.458 529.654 621.303 529.742 621.39 C 529.83 621.478 529.839 621.705 529.762 621.896 C 529.679 622.107 529.615 622.044 529.603 621.737 Z M 515.068 621.189 C 514.888 620.973 514.636 620.861 514.508 620.941 C 514.378 621.02 514.273 620.901 514.273 620.674 C 514.273 620.135 514.321 620.146 515.222 620.922 C 515.644 621.285 515.855 621.582 515.691 621.582 C 515.528 621.583 515.247 621.405 515.068 621.189 Z M 528.79 621.483 C 528.79 621.428 528.972 621.233 529.192 621.05 C 529.529 620.77 529.567 620.787 529.428 621.149 C 529.287 621.519 528.79 621.778 528.79 621.483 Z M 525.454 620.857 C 525.803 619.625 525.934 617.564 525.652 617.737 C 525.491 617.836 525.359 618.274 525.359 618.71 C 525.359 619.146 525.264 619.443 525.147 619.37 C 524.786 619.147 525.118 617.359 525.52 617.359 C 525.722 617.359 525.887 617.121 525.887 616.831 C 525.887 616.542 525.985 616.304 526.104 616.304 C 526.316 616.304 526.274 618.547 526.043 619.602 C 525.98 619.893 525.919 620.398 525.908 620.724 C 525.895 621.051 525.76 621.319 525.605 621.319 C 525.45 621.319 525.383 621.111 525.454 620.857 Z M 509.086 620.647 C 509 620.423 508.988 620.181 509.061 620.109 C 509.133 620.036 509.255 620.22 509.332 620.516 C 509.497 621.145 509.314 621.243 509.086 620.647 Z M 509.962 620.615 C 509.866 620.518 509.787 620.316 509.787 620.166 C 509.787 620 509.91 620.016 510.099 620.205 C 510.271 620.377 510.35 620.579 510.275 620.654 C 510.2 620.73 510.06 620.711 509.962 620.615 Z M 512.617 618.89 C 512.221 618.28 511.898 617.588 511.898 617.35 C 511.898 617.113 511.816 616.836 511.714 616.735 C 511.614 616.635 511.502 616.362 511.469 616.129 C 511.372 615.467 511.737 616.041 512.421 617.623 C 512.765 618.422 513.277 619.283 513.558 619.537 C 513.916 619.861 513.959 619.999 513.702 619.999 C 513.501 619.999 513.012 619.5 512.617 618.89 Z M 509.126 619.207 C 509.037 619.062 509.089 618.943 509.243 618.943 C 509.397 618.943 509.522 619.062 509.522 619.207 C 509.522 619.352 509.47 619.471 509.406 619.471 C 509.342 619.471 509.217 619.352 509.126 619.207 Z M 529.846 619.091 C 529.846 618.627 530.005 618.559 530.23 618.925 C 530.314 619.06 530.261 619.245 530.115 619.336 C 529.967 619.427 529.846 619.317 529.846 619.091 Z M 508.346 618.697 C 508.262 618.562 508.315 618.376 508.463 618.286 C 508.609 618.194 508.73 618.305 508.73 618.532 C 508.73 618.995 508.572 619.063 508.346 618.697 Z M 516.391 618.36 C 514.889 617.784 514.272 617.202 513.308 615.456 C 512.993 614.886 512.663 614.551 512.567 614.705 C 512.275 615.177 511.966 615.016 511.834 614.324 C 511.764 613.961 511.809 613.664 511.934 613.664 C 512.06 613.664 512.161 613.842 512.161 614.06 C 512.161 614.278 512.281 614.455 512.426 614.455 C 512.76 614.455 512.763 613.891 512.432 613.022 C 512.29 612.649 511.992 612.344 511.768 612.344 C 511.456 612.344 511.401 612.174 511.537 611.618 C 511.635 611.219 511.816 610.853 511.939 610.805 C 512.3 610.662 512.194 610.232 511.797 610.232 C 511.414 610.232 511.116 611.007 511.11 612.014 C 511.107 612.341 510.988 612.608 510.843 612.608 C 510.699 612.608 510.621 612.401 510.669 612.146 C 511.091 609.937 511.161 609.769 511.614 609.887 C 511.879 609.956 512.075 609.859 512.077 609.658 C 512.083 609.096 513.261 606.538 513.514 606.538 C 513.866 606.538 513.79 606.963 513.377 607.307 C 513.04 607.586 512.52 609.472 512.731 609.648 C 512.781 609.69 512.643 609.837 512.426 609.974 C 512.2 610.117 512.162 610.227 512.338 610.229 C 512.517 610.231 512.634 610.596 512.617 611.091 C 512.5 614.47 514.571 617.674 517.182 618.152 C 517.76 618.258 518.237 618.271 518.242 618.182 C 518.264 617.796 519.5 616.533 519.637 616.755 C 519.719 616.889 519.492 617.318 519.131 617.708 C 518.771 618.097 518.569 618.417 518.683 618.419 C 518.798 618.423 518.715 618.538 518.497 618.679 C 517.998 619.002 518.101 619.018 516.391 618.36 Z M 512.072 611.24 C 511.999 611.059 511.939 611.207 511.939 611.57 C 511.939 611.933 511.999 612.081 512.072 611.9 C 512.146 611.718 512.146 611.422 512.072 611.24 Z M 507.946 617.264 C 507.615 616.392 507.597 615.793 507.904 615.793 C 508.145 615.793 508.534 617.661 508.334 617.862 C 508.27 617.925 508.095 617.656 507.946 617.264 Z M 521.059 617.447 C 520.817 617.016 521.205 615.266 521.543 615.266 C 521.796 615.266 521.835 615.462 521.686 615.991 C 521.573 616.39 521.528 616.855 521.587 617.023 C 521.706 617.372 521.231 617.754 521.059 617.447 Z M 529.989 617.311 C 529.834 616.813 529.47 614.923 529.442 614.473 C 529.402 613.815 528.493 611.254 527.83 609.929 C 527.487 609.245 526.672 608.083 526.018 607.347 C 525.366 606.611 524.836 605.865 524.841 605.689 C 524.847 605.512 525.379 605.961 526.023 606.687 C 526.668 607.412 527.198 607.866 527.2 607.693 C 527.204 607.519 527.088 607.305 526.943 607.215 C 526.797 607.125 526.678 606.926 526.678 606.771 C 526.678 606.594 526.824 606.612 527.075 606.819 C 527.293 606.999 527.471 607.318 527.471 607.526 C 527.471 607.735 527.57 607.845 527.691 607.769 C 527.813 607.693 528.178 608.103 528.5 608.677 C 528.823 609.253 529.179 609.722 529.29 609.722 C 529.402 609.722 529.65 610.016 529.841 610.373 C 530.033 610.731 530.309 610.95 530.454 610.86 C 530.6 610.771 530.647 610.813 530.56 610.955 C 530.472 611.096 530.566 611.53 530.768 611.919 C 530.97 612.307 531.019 612.626 530.877 612.626 C 530.737 612.626 530.548 612.418 530.456 612.164 C 530.234 611.536 527.419 607.837 527.276 607.982 C 527.212 608.045 527.391 608.433 527.673 608.844 C 527.955 609.254 528.387 609.921 528.632 610.324 C 528.877 610.728 529.173 610.999 529.29 610.927 C 529.408 610.855 529.653 611.297 529.836 611.908 C 530.018 612.521 530.304 613.109 530.469 613.216 C 530.684 613.355 530.674 613.41 530.434 613.413 C 530.122 613.418 529.857 612.957 529.465 611.73 C 529.377 611.455 529.249 611.288 529.18 611.357 C 529.11 611.426 529.295 612.423 529.592 613.572 C 529.887 614.72 530.169 616.106 530.216 616.651 C 530.303 617.627 530.191 617.953 529.989 617.311 Z M 508.899 617.194 C 508.807 617.101 508.732 616.777 508.734 616.475 C 508.738 616.022 508.784 615.994 508.998 616.321 C 509.214 616.649 509.287 616.609 509.43 616.09 L 509.6 615.464 L 509.948 616.09 C 510.371 616.853 510.396 617.112 510.05 617.112 C 509.905 617.112 509.786 616.928 509.786 616.701 C 509.786 616.475 509.666 616.364 509.518 616.455 C 509.37 616.547 509.313 616.724 509.39 616.849 C 509.563 617.128 509.133 617.428 508.899 617.194 Z M 522.045 616.297 C 521.948 616.14 521.994 615.884 522.148 615.731 C 522.346 615.533 522.416 615.618 522.386 616.017 C 522.337 616.664 522.293 616.7 522.045 616.297 Z M 510.558 616.255 C 510.447 615.893 510.284 615.018 510.238 614.54 C 510.208 614.213 510.122 613.946 510.05 613.946 C 509.977 613.945 509.882 612.996 509.837 611.834 C 509.793 610.673 509.852 609.723 509.969 609.723 C 510.086 609.723 510.203 610.545 510.232 611.549 C 510.276 613.158 510.561 614.754 511.017 615.941 C 511.097 616.15 511.03 616.321 510.87 616.321 C 510.709 616.321 510.569 616.291 510.558 616.255 Z M 509.213 614.804 C 509.155 614.55 509.185 613.926 509.28 613.418 C 509.376 612.904 509.467 612.744 509.487 613.055 C 509.506 613.363 509.597 613.987 509.687 614.44 C 509.859 615.3 509.407 615.646 509.213 614.804 Z M 511.154 614.606 C 510.988 614.243 510.955 613.946 511.08 613.946 C 511.299 613.946 511.695 615.028 511.534 615.189 C 511.491 615.232 511.32 614.971 511.154 614.606 Z M 507.601 614.65 C 507.307 613.902 507.354 613.52 507.699 613.864 C 507.858 614.024 507.943 614.374 507.889 614.644 C 507.795 615.116 507.784 615.116 507.601 614.65 Z M 508.498 615.001 C 508.47 614.928 508.38 614.394 508.3 613.814 C 508.189 613.014 508.228 612.83 508.461 613.054 C 508.63 613.217 508.72 613.752 508.659 614.243 C 508.6 614.732 508.527 615.074 508.498 615.001 Z M 506.64 614.363 C 506.628 614.085 506.69 613.929 506.778 614.017 C 506.866 614.105 506.875 614.332 506.799 614.523 C 506.715 614.734 506.652 614.671 506.64 614.363 Z M 516.008 614.157 C 515.753 613.793 515.701 613.515 515.866 613.412 C 516.011 613.322 516.099 612.959 516.06 612.607 C 516.008 612.132 516.104 611.985 516.431 612.039 C 516.674 612.079 516.959 611.972 517.066 611.8 C 517.187 611.604 517.145 611.558 516.951 611.678 C 516.473 611.973 516.275 611.082 516.658 610.365 C 517.107 609.526 517.293 609.554 517.767 610.532 C 518.35 611.735 518.094 614.737 517.407 614.737 C 517.263 614.737 517.212 614.629 517.295 614.495 C 517.46 614.229 516.759 613.418 516.366 613.418 C 515.97 613.418 516.085 613.948 516.517 614.114 C 516.734 614.198 516.912 614.372 516.912 614.501 C 516.912 614.933 516.421 614.745 516.008 614.157 Z M 517.645 611.828 C 517.473 610.037 517.175 609.739 516.797 610.974 C 516.652 611.443 516.7 611.534 517.027 611.409 C 517.333 611.291 517.441 611.418 517.441 611.894 C 517.441 612.755 517.198 612.949 516.718 612.469 C 516.248 611.999 516.043 612.115 516.275 612.72 C 516.369 612.964 516.733 613.154 517.106 613.154 C 517.746 613.154 517.767 613.103 517.645 611.828 Z M 530.286 614.561 C 530.189 614.465 530.11 614.263 530.11 614.112 C 530.11 613.947 530.233 613.964 530.422 614.152 C 530.594 614.324 530.673 614.526 530.598 614.601 C 530.523 614.676 530.383 614.658 530.286 614.561 Z M 510.839 613.297 C 510.839 612.833 510.997 612.765 511.223 613.131 C 511.307 613.266 511.255 613.451 511.106 613.542 C 510.959 613.633 510.839 613.523 510.839 613.297 Z M 507.407 612.648 C 507.407 612.156 507.518 611.865 507.668 611.957 C 507.946 612.129 507.895 613.013 507.59 613.317 C 507.489 613.418 507.407 613.116 507.407 612.648 Z M 511.631 613 C 511.631 612.774 511.75 612.662 511.895 612.752 C 512.04 612.842 512.159 613.027 512.159 613.163 C 512.159 613.3 512.04 613.412 511.895 613.412 C 511.75 613.412 511.631 613.227 511.631 613 Z M 514.388 613.17 C 514.471 613.037 514.414 612.888 514.263 612.838 C 514.113 612.788 513.997 612.154 514.007 611.429 C 514.015 610.705 514.02 609.845 514.018 609.518 C 514.015 609.192 514.135 608.925 514.284 608.925 C 514.451 608.925 514.519 609.56 514.461 610.574 C 514.398 611.692 514.49 612.416 514.746 612.818 C 515.082 613.348 515.075 613.412 514.681 613.412 C 514.438 613.412 514.306 613.303 514.388 613.17 Z M 515.238 612.972 C 515.141 612.876 515.066 612.607 515.07 612.378 C 515.077 612.035 515.128 612.046 515.359 612.442 C 515.643 612.93 515.56 613.294 515.238 612.972 Z M 506.567 612.747 C 506.469 612.649 506.459 612.382 506.547 612.155 C 506.662 611.854 506.604 611.8 506.331 611.955 C 506.04 612.121 506.025 612.095 506.263 611.837 C 506.717 611.345 507.068 611.608 506.896 612.311 C 506.813 612.649 506.665 612.845 506.567 612.747 Z M 508.748 612.51 C 508.737 612.232 508.799 612.076 508.888 612.163 C 508.974 612.252 508.984 612.479 508.908 612.669 C 508.823 612.88 508.761 612.817 508.748 612.51 Z M 509.099 611.894 C 508.982 611.64 508.875 610.92 508.861 610.293 C 508.845 609.609 508.682 609.058 508.451 608.912 C 508.133 608.71 508.147 608.668 508.53 608.665 C 508.944 608.661 509.112 608.368 509.022 607.803 C 509.005 607.694 509.123 607.605 509.284 607.605 C 509.444 607.605 509.503 607.795 509.414 608.025 C 509.326 608.257 509.181 608.733 509.093 609.084 C 508.961 609.611 509.012 609.692 509.389 609.547 C 509.791 609.393 509.806 609.444 509.521 609.977 C 509.343 610.309 509.263 610.981 509.342 611.469 C 509.501 612.453 509.421 612.594 509.099 611.894 Z M 514.87 611.3 C 514.832 610.786 515.078 610.613 515.396 610.93 C 515.586 611.12 515.343 611.828 515.09 611.828 C 514.991 611.828 514.892 611.591 514.87 611.3 Z M 506.607 610.64 C 506.535 609.534 506.625 608.831 506.873 608.572 C 506.989 608.45 507.028 608.926 506.96 609.627 C 506.801 611.268 506.671 611.639 506.607 610.64 Z M 508.108 610.675 C 508 610.259 507.972 609.856 508.048 609.78 C 508.262 609.567 508.521 610.418 508.408 610.955 C 508.334 611.306 508.256 611.234 508.108 610.675 Z M 510.443 610.508 C 510.353 610.363 510.405 610.245 510.56 610.245 C 510.713 610.245 510.839 610.363 510.839 610.508 C 510.839 610.653 510.786 610.772 510.722 610.772 C 510.659 610.772 510.533 610.653 510.443 610.508 Z M 505.561 609.997 C 505.561 609.859 505.679 609.674 505.824 609.585 C 505.969 609.495 506.088 609.606 506.088 609.833 C 506.088 610.06 505.969 610.245 505.824 610.245 C 505.679 610.245 505.561 610.133 505.561 609.997 Z M 507.408 609.438 C 507.408 608.993 507.51 608.693 507.636 608.771 C 507.849 608.902 507.733 610.245 507.509 610.245 C 507.453 610.245 507.408 609.881 507.408 609.438 Z M 510.02 609.365 C 509.901 608.566 510.018 607.876 510.396 607.156 C 510.897 606.201 510.932 606.021 510.617 606.021 C 510.496 606.021 510.242 606.348 510.054 606.747 C 509.861 607.161 509.663 607.332 509.595 607.145 C 509.422 606.665 510.438 605.462 510.753 605.777 C 510.917 605.941 511.135 605.796 511.364 605.367 C 511.56 605.001 511.819 604.702 511.939 604.702 C 512.282 604.702 512.197 605.133 511.787 605.473 C 511.273 605.901 510.553 607.482 510.43 608.453 C 510.334 609.203 510.08 609.768 510.02 609.365 Z M 510.751 608.793 C 511.215 606.536 513.589 603.384 515.233 602.842 C 516.348 602.473 516.262 602.258 515.093 602.492 C 514.627 602.584 513.869 603.062 513.408 603.55 C 512.557 604.452 512.159 604.651 512.159 604.174 C 512.159 604.029 512.337 603.91 512.554 603.91 C 512.773 603.91 512.951 603.791 512.951 603.646 C 512.951 602.929 511.795 603.772 511.499 604.703 C 511.406 604.993 511.157 605.23 510.944 605.23 C 510.43 605.23 510.78 604.59 511.935 603.417 C 512.638 602.703 512.707 602.548 512.286 602.628 C 511.74 602.732 510.045 604.981 509.358 606.511 C 509.14 606.999 508.899 607.337 508.825 607.263 C 508.75 607.187 508.863 606.788 509.076 606.376 C 509.29 605.963 509.491 605.507 509.524 605.361 C 509.556 605.217 509.866 604.762 510.211 604.352 C 510.557 603.941 510.839 603.456 510.839 603.272 C 510.839 603.088 511.106 602.808 511.433 602.647 C 511.76 602.486 512.442 602.098 512.951 601.783 C 513.786 601.268 513.812 601.264 513.219 601.752 C 512.093 602.676 512.744 602.546 514.534 601.491 C 515.476 600.934 516.07 600.477 515.852 600.475 C 515.503 600.471 515.503 600.441 515.854 600.215 C 516.184 600.001 516.161 599.954 515.722 599.933 C 515.289 599.912 515.325 599.85 515.926 599.584 C 516.329 599.405 516.57 599.171 516.462 599.063 C 516.354 598.956 516.471 598.946 516.719 599.041 C 516.999 599.148 517.174 599.089 517.174 598.887 C 517.174 598.644 517.608 598.595 518.824 598.698 C 520.093 598.806 520.336 598.775 519.879 598.563 C 519.15 598.224 519.113 597.953 519.794 597.953 C 520.073 597.953 520.233 598.064 520.149 598.201 C 520.064 598.336 520.105 598.381 520.241 598.297 C 520.753 597.981 522.263 598.509 522.474 599.079 C 522.674 599.616 522.64 599.633 521.881 599.369 C 521.269 599.155 521.026 599.168 520.868 599.422 C 520.727 599.653 520.424 599.693 519.907 599.551 C 519.179 599.351 517.681 599.394 516.34 599.653 C 516.129 599.694 516.192 600.23 516.457 600.654 C 516.562 600.823 516.5 601.027 516.317 601.109 C 516.135 601.19 516.402 601.234 516.91 601.206 C 517.517 601.173 517.811 601.265 517.767 601.476 C 517.729 601.663 517.986 601.799 518.377 601.799 C 518.761 601.799 518.982 601.684 518.889 601.535 C 518.799 601.389 518.893 601.271 519.096 601.271 C 519.646 601.271 522.472 602.277 522.885 602.621 C 523.095 602.795 523.244 602.811 523.244 602.659 C 523.244 602.423 522.077 601.77 520.341 601.033 C 519.779 600.794 519.837 600.778 520.73 600.921 C 521.307 601.012 521.94 601.247 522.135 601.443 C 522.331 601.638 522.613 601.799 522.764 601.799 C 522.916 601.799 523.625 602.289 524.34 602.887 C 525.056 603.487 525.701 603.916 525.775 603.842 C 525.945 603.672 523.471 601.538 523.099 601.535 C 522.947 601.535 522.683 601.395 522.514 601.227 C 522.063 600.775 520.338 600.223 519.367 600.219 C 518.903 600.216 518.451 600.096 518.361 599.951 C 517.965 599.311 521.828 600.245 523.226 601.127 C 524.708 602.062 527.732 604.951 527.732 605.432 C 527.732 605.721 527.581 605.655 527.208 605.204 C 526.921 604.855 526.563 604.426 526.415 604.249 C 526.266 604.072 525.959 603.999 525.733 604.087 C 525.477 604.184 524.979 603.913 524.415 603.365 C 523.916 602.882 523.508 602.61 523.508 602.759 C 523.508 602.909 523.865 603.349 524.3 603.737 C 524.735 604.124 525.092 604.568 525.092 604.721 C 525.092 604.885 525.321 604.929 525.639 604.828 C 526.055 604.695 526.423 604.905 527.195 605.717 C 527.751 606.301 528.276 606.71 528.363 606.623 C 528.448 606.536 528.39 606.311 528.232 606.121 C 528.074 605.931 528.001 605.623 528.068 605.436 C 528.142 605.233 528.326 605.387 528.531 605.824 C 528.719 606.223 528.952 606.55 529.049 606.55 C 529.147 606.55 529.61 607.084 530.078 607.737 C 530.548 608.39 530.848 608.925 530.749 608.925 C 530.536 608.925 529.697 608.007 529.123 607.145 C 528.907 606.821 528.622 606.621 528.489 606.702 C 528.358 606.784 528.519 607.211 528.849 607.65 C 530.051 609.259 530.167 609.453 529.92 609.453 C 529.781 609.453 529.305 608.948 528.86 608.331 C 527.964 607.088 527.11 606.157 526.134 605.364 L 525.488 604.838 L 526.127 605.561 C 526.478 605.958 526.686 606.363 526.587 606.462 C 526.49 606.56 525.803 605.964 525.06 605.139 C 523.002 602.85 521.366 601.868 521.037 602.725 C 520.942 602.971 521.009 603.123 521.203 603.097 C 521.382 603.075 521.715 603.07 521.943 603.088 C 522.503 603.13 524.59 604.94 524.518 605.322 C 524.486 605.489 524.556 605.908 524.672 606.253 C 525.037 607.33 524.286 607.482 523.448 606.501 C 522.682 605.606 522.665 605.173 523.419 605.786 C 523.82 606.112 523.85 606.098 523.686 605.662 C 523.548 605.292 523.601 605.209 523.902 605.324 C 524.607 605.596 524.301 605.121 523.203 604.24 C 522.088 603.347 521.661 603.187 521.661 603.661 C 521.661 603.818 521.404 603.761 521.076 603.531 C 520.755 603.305 519.897 603.043 519.17 602.946 C 518.214 602.819 517.992 602.72 518.368 602.587 C 518.655 602.486 519.242 602.504 519.673 602.626 C 520.251 602.792 520.561 602.746 520.852 602.457 C 521.089 602.22 521.127 602.063 520.947 602.063 C 520.784 602.063 520.604 602.198 520.548 602.364 C 520.473 602.59 520.307 602.59 519.884 602.364 C 519.573 602.198 518.896 602.063 518.378 602.063 C 517.861 602.063 517.438 601.944 517.438 601.799 C 517.438 601.653 517.323 601.535 517.182 601.535 C 517.042 601.535 517.002 601.742 517.095 601.997 C 517.254 602.432 517.234 602.433 516.75 602.01 C 516.398 601.701 516.116 601.638 515.848 601.808 C 515.556 601.992 515.546 602.055 515.807 602.058 C 515.998 602.061 516.32 602.227 516.52 602.428 C 516.832 602.738 516.771 602.817 516.104 602.95 C 515.299 603.111 513.768 604.06 513.406 604.623 C 513.295 604.797 513.057 605.099 512.878 605.293 C 512.519 605.685 511.895 606.731 511.895 606.942 C 511.895 607.017 512.014 607.078 512.159 607.078 C 512.304 607.078 512.422 606.929 512.422 606.746 C 512.422 606.141 514.649 603.932 515.69 603.504 C 517.022 602.956 520.449 603.09 519.535 603.654 C 519.359 603.764 518.863 603.753 518.433 603.629 C 516.525 603.082 514.122 604.403 512.963 606.637 C 512.695 607.151 512.431 607.336 512.09 607.247 C 511.739 607.156 511.529 607.318 511.348 607.824 C 511.209 608.212 510.981 608.767 510.842 609.057 C 510.642 609.473 510.623 609.418 510.751 608.793 Z M 515.446 601.666 C 516.264 601.037 515.68 601.207 514.534 601.93 C 513.96 602.293 513.368 602.59 513.22 602.59 C 513.072 602.59 512.951 602.764 512.951 602.978 C 512.951 603.357 513.885 602.865 515.446 601.666 Z M 518.56 598.984 C 518.378 598.911 518.081 598.911 517.9 598.984 C 517.718 599.057 517.867 599.117 518.229 599.117 C 518.592 599.117 518.741 599.057 518.56 598.984 Z M 511.448 608.665 C 511.612 608.229 511.839 607.873 511.952 607.873 C 512.227 607.873 512.213 607.991 511.852 608.785 C 511.423 609.727 511.085 609.627 511.448 608.665 Z M 505.729 608.27 C 505.812 608.052 506.061 607.873 506.281 607.873 C 506.606 607.873 506.619 607.947 506.352 608.27 C 506.172 608.487 505.923 608.665 505.8 608.665 C 505.677 608.665 505.645 608.487 505.729 608.27 Z M 507.836 607.618 C 507.998 606.725 508.421 605.763 508.768 605.498 C 508.863 605.425 508.961 605.247 508.986 605.102 C 509.01 604.957 509.322 604.304 509.679 603.65 C 510.155 602.78 510.841 602.128 512.25 601.209 C 513.308 600.519 514.342 599.957 514.552 599.959 C 514.913 599.962 514.217 600.441 513.083 600.97 C 512.791 601.105 512.014 601.694 511.352 602.279 C 510.251 603.251 509.771 604.048 507.979 607.873 C 507.693 608.487 507.682 608.468 507.836 607.618 Z M 508.343 608.156 C 508.259 608.02 508.311 607.835 508.459 607.744 C 508.606 607.653 508.728 607.764 508.728 607.99 C 508.728 608.454 508.569 608.522 508.343 608.156 Z M 524.455 607.967 C 524.233 607.392 524.526 607.124 524.839 607.618 C 525.15 608.111 525.157 608.402 524.857 608.402 C 524.726 608.402 524.545 608.206 524.455 607.967 Z M 506.88 607.693 C 506.88 607.557 507.054 607.216 507.268 606.934 C 507.593 606.504 507.656 606.491 507.664 606.851 C 507.668 607.088 507.493 607.429 507.275 607.61 C 507.058 607.79 506.88 607.827 506.88 607.693 Z M 506.088 607.411 C 506.088 607.265 506.266 606.999 506.485 606.817 C 506.704 606.634 506.88 606.605 506.88 606.754 C 506.88 606.898 506.702 607.165 506.485 607.346 C 506.263 607.529 506.088 607.558 506.088 607.411 Z M 505.561 606.676 C 505.561 606.205 506.279 604.805 506.814 604.231 C 506.995 604.035 507.143 603.712 507.143 603.513 C 507.143 603.312 507.351 603.033 507.604 602.892 C 507.856 602.75 507.988 602.559 507.896 602.466 C 507.656 602.226 506.437 603.509 506.558 603.873 C 506.615 604.041 506.472 604.178 506.242 604.178 C 506.012 604.178 505.824 604.297 505.824 604.442 C 505.824 604.588 505.692 604.706 505.529 604.706 C 505.086 604.706 506.487 602.921 508.237 601.254 C 509.783 599.78 510.028 599.427 509.504 599.427 C 509.35 599.427 509.308 599.564 509.412 599.732 C 509.521 599.908 509.485 599.966 509.328 599.868 C 509.178 599.775 508.369 600.458 507.528 601.386 C 506.562 602.454 505.861 603.018 505.62 602.926 C 505.303 602.804 505.313 602.738 505.678 602.534 C 505.921 602.398 506.867 601.532 507.782 600.608 C 508.971 599.407 509.525 599.01 509.728 599.213 C 509.932 599.418 510.136 599.376 510.445 599.067 C 510.931 598.582 511.103 598.529 511.103 598.865 C 511.103 599.105 509.601 600.604 508.463 601.501 C 508.1 601.787 507.887 602.106 507.99 602.208 C 508.223 602.442 510.811 600.206 510.827 599.756 C 510.834 599.576 511.117 599.427 511.458 599.427 C 512.226 599.427 513.794 598.669 513.618 598.383 C 513.498 598.188 514.879 597.715 516.351 597.447 C 516.698 597.384 517.054 597.252 517.143 597.154 C 517.233 597.055 516.914 597.05 516.434 597.142 C 515.83 597.257 515.619 597.218 515.745 597.015 C 516.07 596.488 521.262 597.229 523.904 598.179 C 524.34 598.334 525.324 598.873 526.093 599.375 C 527.377 600.212 528.014 600.362 527.628 599.738 C 527.252 599.13 522.832 597.264 520.682 596.807 C 519.406 596.535 518.718 596.303 519.153 596.291 C 519.589 596.28 520.717 596.45 521.661 596.668 C 522.604 596.887 523.525 597.082 523.706 597.103 C 523.888 597.123 524.036 597.238 524.036 597.36 C 524.036 597.481 524.184 597.58 524.366 597.581 C 524.547 597.582 525.042 597.764 525.467 597.985 C 525.891 598.206 526.337 598.288 526.459 598.167 C 526.579 598.045 526.203 597.736 525.621 597.48 C 525.04 597.223 524.564 596.921 524.564 596.807 C 524.564 596.694 525.158 596.885 525.884 597.232 C 526.61 597.58 527.203 597.985 527.203 598.133 C 527.203 598.282 527.093 598.334 526.958 598.25 C 526.822 598.167 526.638 598.22 526.547 598.368 C 526.454 598.514 526.488 598.635 526.621 598.635 C 526.954 598.635 527.996 599.568 527.996 599.867 C 527.996 600.002 527.855 600.254 527.683 600.425 C 527.445 600.664 527.184 600.599 526.562 600.141 C 524.854 598.883 521.561 597.686 519.2 597.465 C 518.524 597.401 517.851 597.276 517.704 597.185 C 517.558 597.094 517.438 597.147 517.438 597.3 C 517.438 597.454 517.26 597.58 517.042 597.58 C 516.825 597.58 516.646 597.699 516.646 597.843 C 516.646 598.151 516.692 598.152 518.14 597.872 C 519.029 597.7 519.211 597.729 519.097 598.026 C 519.02 598.229 518.763 598.375 518.527 598.352 C 517.15 598.219 516.118 598.396 516.118 598.767 C 516.118 599.278 515.746 599.273 515.317 598.756 C 515.074 598.464 514.898 598.43 514.694 598.635 C 514.488 598.841 514.514 598.988 514.787 599.156 C 515.078 599.336 514.983 599.435 514.388 599.577 C 512.653 599.992 508.417 603.307 507.907 604.649 C 507.545 605.603 507.646 605.972 508.068 605.234 C 508.526 604.432 508.582 604.686 508.154 605.625 C 507.929 606.12 507.785 606.213 507.625 605.968 C 507.453 605.7 507.356 605.71 507.159 606.018 C 507.021 606.232 506.827 606.324 506.725 606.222 C 506.624 606.122 506.691 605.858 506.874 605.637 C 507.059 605.415 507.136 605.234 507.046 605.234 C 506.958 605.234 507.092 604.975 507.344 604.658 C 508.092 603.719 510.84 600.944 510.84 601.127 C 510.84 601.22 510.988 601.17 511.168 601.018 C 511.968 600.344 513.535 599.427 513.886 599.427 C 514.268 599.427 514.451 598.903 514.073 598.896 C 513.493 598.884 510.378 600.773 509.279 601.802 C 507.972 603.026 506.088 605.747 506.088 606.412 C 506.088 606.618 505.969 606.86 505.824 606.95 C 505.679 607.039 505.561 606.916 505.561 606.676 Z M 516.118 598.107 C 516.426 597.909 516.353 597.851 515.789 597.848 C 515.389 597.845 515.062 597.962 515.062 598.107 C 515.062 598.441 515.602 598.441 516.118 598.107 Z M 529.777 606.532 C 529.523 606.254 529.375 606.026 529.448 606.026 C 529.521 606.026 529.096 605.588 528.503 605.053 C 527.91 604.518 526.931 603.62 526.325 603.059 C 525.719 602.498 524.452 601.57 523.508 600.998 C 521.701 599.903 521.625 599.574 523.393 600.5 C 525.283 601.488 525.619 601.716 525.443 601.893 C 525.347 601.989 525.383 602.067 525.523 602.067 C 525.663 602.067 525.895 601.949 526.04 601.806 C 526.212 601.633 526.791 601.911 527.743 602.624 C 528.535 603.217 529.223 603.81 529.272 603.941 C 529.321 604.073 529.469 604.114 529.602 604.033 C 529.734 603.95 529.843 604.149 529.843 604.474 L 529.843 605.062 L 529.133 604.422 C 528.742 604.07 527.952 603.342 527.375 602.804 C 526.798 602.264 526.227 601.886 526.104 601.962 C 525.915 602.079 527.612 603.914 527.909 603.914 C 527.965 603.914 528.444 604.385 528.972 604.959 C 529.5 605.533 530.001 605.96 530.086 605.908 C 530.17 605.856 530.256 606.098 530.277 606.447 C 530.297 606.796 530.297 607.072 530.277 607.06 C 530.256 607.048 530.031 606.81 529.777 606.532 Z M 517.174 602.592 C 517.174 602.447 517.293 602.328 517.439 602.328 C 517.583 602.328 517.702 602.447 517.702 602.592 C 517.702 602.737 517.583 602.856 517.439 602.856 C 517.293 602.856 517.174 602.737 517.174 602.592 Z M 528.229 602.365 C 527.883 602.095 526.776 601.323 525.77 600.65 C 524.762 599.975 524.109 599.428 524.317 599.432 C 524.526 599.436 525.465 599.961 526.406 600.598 C 527.346 601.236 528.226 601.689 528.359 601.606 C 528.494 601.524 528.403 601.31 528.16 601.132 C 527.771 600.847 527.766 600.788 528.12 600.652 C 528.343 600.567 528.533 600.641 528.544 600.819 C 528.574 601.294 528.712 601.873 528.922 602.394 C 529.159 602.983 529.012 602.976 528.229 602.365 Z M 505.83 601.656 C 505.823 601.308 507.607 599.44 508.848 598.493 C 509.72 597.828 510.048 597.306 509.585 597.319 C 509.476 597.323 508.684 597.975 507.823 598.769 C 506.964 599.563 506.216 600.168 506.164 600.116 C 505.979 599.931 508.025 597.841 508.391 597.841 C 508.593 597.841 508.691 597.731 508.607 597.596 C 508.525 597.462 508.695 597.275 508.988 597.183 C 509.28 597.089 509.519 596.903 509.519 596.767 C 509.519 596.633 509.677 596.521 509.871 596.521 C 510.063 596.521 510.806 596.214 511.52 595.838 C 512.268 595.445 512.533 595.218 512.144 595.302 C 510.79 595.598 509.097 596.518 507.98 597.563 C 507.351 598.151 506.799 598.633 506.754 598.633 C 506.709 598.633 506.594 598.429 506.498 598.179 C 506.402 597.93 506.406 597.807 506.505 597.906 C 506.737 598.138 507.672 597.643 507.672 597.288 C 507.672 597.14 507.535 597.103 507.367 597.207 C 507.178 597.323 507.134 597.279 507.251 597.089 C 507.354 596.922 507.669 596.785 507.951 596.785 C 508.233 596.785 508.463 596.677 508.463 596.545 C 508.463 596.344 510.763 595.367 512.489 594.833 C 512.743 594.754 512.949 594.479 512.947 594.22 C 512.943 593.838 512.898 593.82 512.704 594.126 C 512.573 594.334 512.189 594.545 511.851 594.595 C 511.512 594.647 510.483 595.04 509.564 595.469 C 508.646 595.897 507.933 596.132 507.981 595.989 C 508.029 595.847 508.161 595.759 508.275 595.795 C 508.39 595.832 508.586 595.694 508.713 595.49 C 508.968 595.077 511.228 594.146 511.977 594.146 C 512.239 594.146 512.383 594.031 512.296 593.889 C 512.209 593.749 512.463 593.551 512.86 593.452 C 513.32 593.337 513.62 593.382 513.685 593.576 C 513.741 593.744 513.908 593.882 514.057 593.882 C 514.206 593.882 514.263 593.715 514.185 593.512 C 514.098 593.284 514.264 593.082 514.618 592.987 C 515.528 592.744 515.76 592.815 515.271 593.186 C 515.022 593.374 514.699 593.846 514.552 594.233 C 514.317 594.85 514.349 594.938 514.806 594.938 C 515.092 594.938 515.326 594.817 515.326 594.669 C 515.326 594.521 515.594 594.467 515.92 594.548 C 516.246 594.629 516.99 594.574 517.57 594.427 L 518.626 594.159 L 517.24 594.245 C 515.972 594.326 515.384 594.081 516.184 593.808 C 516.366 593.746 516.217 593.746 515.854 593.807 C 515.375 593.889 515.272 593.84 515.482 593.627 C 515.936 593.163 517.267 592.994 517.104 593.421 C 517.023 593.631 517.165 593.789 517.452 593.81 C 517.772 593.835 517.886 593.718 517.791 593.468 C 517.71 593.261 517.78 593.09 517.946 593.09 C 518.112 593.09 518.315 593.268 518.398 593.485 C 518.481 593.702 518.668 593.805 518.814 593.715 C 518.976 593.615 518.94 593.463 518.72 593.321 C 518.122 592.938 520.939 593.536 523.244 594.283 C 523.317 594.306 523.852 594.54 524.432 594.801 C 526.089 595.548 525.071 595.568 523.242 594.825 C 521.135 593.969 520.106 593.784 519.286 594.115 L 518.626 594.379 L 519.286 594.365 C 520.395 594.342 522.65 594.893 523.758 595.458 C 524.335 595.753 524.998 595.993 525.229 595.993 C 525.462 595.993 525.578 596.112 525.489 596.256 C 525.387 596.421 525.025 596.364 524.52 596.102 C 523.938 595.802 523.631 595.765 523.426 595.971 C 523.219 596.177 523.261 596.257 523.573 596.257 C 523.811 596.257 524.087 596.389 524.186 596.55 C 524.304 596.74 524.194 596.789 523.872 596.693 C 521.6 596.004 518.994 595.681 516.664 595.799 C 514.422 595.912 514.225 595.886 514.684 595.533 C 515.169 595.16 515.158 595.148 514.477 595.265 C 514.082 595.333 513.822 595.288 513.898 595.164 C 513.975 595.039 513.793 594.938 513.494 594.938 C 513.195 594.938 512.951 595.063 512.951 595.217 C 512.951 595.37 513.072 595.422 513.222 595.33 C 513.37 595.238 513.459 595.32 513.42 595.512 C 513.379 595.704 513.504 595.829 513.697 595.79 C 513.888 595.749 513.971 595.838 513.879 595.987 C 513.787 596.136 513.54 596.257 513.332 596.257 C 513.123 596.257 512.951 596.383 512.951 596.537 C 512.951 596.69 512.831 596.742 512.684 596.652 C 512.538 596.562 512.106 596.732 511.725 597.032 C 511.343 597.332 510.884 597.577 510.704 597.577 C 510.524 597.577 510.229 597.755 510.048 597.974 C 509.569 598.55 510.03 598.445 511.236 597.702 C 512.432 596.965 512.907 596.862 512.423 597.446 C 512.242 597.663 512.183 597.841 512.29 597.841 C 512.399 597.841 512.34 598.019 512.159 598.237 C 511.979 598.455 511.703 598.633 511.549 598.633 C 511.393 598.633 511.497 598.458 511.779 598.245 C 512.285 597.862 512.285 597.858 511.781 597.849 C 511.5 597.845 510.988 598.106 510.644 598.428 C 510.122 598.919 509.981 598.952 509.783 598.633 C 509.522 598.21 509.18 598.469 506.983 600.745 C 506.352 601.398 505.834 601.808 505.831 601.656 Z M 513.053 595.808 C 512.588 595.653 509.674 597.115 509.932 597.374 C 510.013 597.455 510.808 597.155 511.701 596.709 C 512.594 596.263 513.202 595.858 513.053 595.808 Z M 523.244 595.735 C 523.244 595.61 522.858 595.417 522.386 595.307 C 521.915 595.196 521.35 595.063 521.133 595.01 C 520.313 594.811 516.076 594.935 515.656 595.17 C 515.359 595.336 515.894 595.411 517.318 595.4 C 519.863 595.382 522.389 595.677 522.599 596.017 C 522.771 596.295 523.244 596.09 523.244 595.735 Z M 525.231 601.191 C 523.756 600.301 522.883 599.689 523.091 599.689 C 523.497 599.689 526.148 601.11 526.148 601.328 C 526.148 601.611 525.854 601.567 525.231 601.191 Z M 514.271 600.877 C 514.451 600.659 514.718 600.481 514.863 600.481 C 515.01 600.481 514.982 600.656 514.798 600.877 C 514.618 601.095 514.351 601.273 514.206 601.273 C 514.059 601.273 514.087 601.097 514.271 600.877 Z M 517.833 600.745 L 516.778 600.556 L 517.9 600.518 C 518.517 600.498 519.022 600.6 519.022 600.745 C 519.022 600.89 518.991 600.992 518.955 600.971 C 518.92 600.951 518.415 600.849 517.833 600.745 Z M 516.646 600.116 C 516.646 600.061 516.943 599.957 517.306 599.888 C 517.668 599.819 517.965 599.864 517.965 599.989 C 517.965 600.115 517.668 600.217 517.306 600.217 C 516.943 600.217 516.646 600.171 516.646 600.116 Z M 523.13 599.174 C 522.85 599.072 522.736 598.916 522.879 598.828 C 523.15 598.66 523.98 599.05 523.765 599.246 C 523.696 599.308 523.411 599.275 523.13 599.174 Z M 512.719 598.047 C 513.002 597.516 513.994 597.027 514.354 597.239 C 514.473 597.308 514.636 597.117 514.715 596.812 C 514.795 596.507 514.876 596.251 514.895 596.244 C 514.914 596.236 515.6 596.167 516.419 596.09 C 517.374 596 517.974 596.056 518.09 596.245 C 518.214 596.446 518.035 596.496 517.525 596.402 C 516.491 596.21 515.062 596.51 515.062 596.919 C 515.062 597.329 514.391 597.663 513.29 597.801 C 513.112 597.824 513.028 598 513.103 598.193 C 513.178 598.389 513.063 598.545 512.844 598.545 C 512.541 598.545 512.512 598.431 512.719 598.046 Z M 525.692 596.625 C 525.779 596.539 526.007 596.529 526.198 596.605 C 526.408 596.69 526.345 596.752 526.038 596.765 C 525.76 596.776 525.603 596.713 525.692 596.625 Z M 509.256 594.146 C 509.474 594.005 509.83 593.89 510.047 593.89 C 510.4 593.89 510.4 593.919 510.047 594.146 C 509.83 594.287 509.474 594.402 509.256 594.402 C 508.904 594.402 508.904 594.373 509.256 594.146 Z M 522.981 593.75 C 522.618 593.543 521.994 593.369 521.595 593.363 C 521.196 593.359 520.869 593.222 520.869 593.06 C 520.869 592.887 520.593 592.818 520.203 592.892 C 519.837 592.962 519.485 592.937 519.424 592.836 C 519.361 592.735 518.503 592.683 517.516 592.719 C 516.478 592.758 515.942 592.7 516.245 592.583 C 516.533 592.472 518 592.365 519.505 592.345 C 521.787 592.317 522.193 592.371 521.945 592.669 C 521.706 592.959 521.843 593.07 522.644 593.236 C 523.192 593.35 523.718 593.426 523.813 593.407 C 523.909 593.388 524.053 593.546 524.135 593.759 C 524.322 594.245 523.839 594.241 522.981 593.75 Z M 510.575 593.772 C 510.575 593.68 510.879 593.49 511.251 593.348 C 511.662 593.192 511.852 592.972 511.738 592.786 C 511.635 592.618 511.66 592.549 511.795 592.633 C 512.169 592.864 515.116 592.11 515.356 591.722 C 515.521 591.456 515.639 591.45 515.884 591.694 C 516.235 592.045 516.131 592.098 513.214 593.034 C 512.271 593.336 511.291 593.663 511.037 593.761 C 510.782 593.859 510.575 593.863 510.575 593.772 Z M 516.189 591.743 C 516.152 591.255 516.25 591.207 516.99 591.35 C 519.14 591.766 520.497 591.709 520.192 591.215 C 520.112 591.085 520.108 590.978 520.184 590.978 C 520.261 590.978 520.446 591.208 520.596 591.488 C 520.853 591.969 520.763 591.998 519.004 592.004 C 517.98 592.006 516.936 592.074 516.686 592.154 C 516.36 592.257 516.219 592.141 516.189 591.743 Z M 513.083 591.647 C 514.211 591.296 515.015 591.29 514.798 591.636 C 514.727 591.751 514.073 591.876 513.347 591.912 L 512.027 591.977 L 513.083 591.647 Z">
          <title>FingerPrint</title>
        </path>
      </g>
    </g>
  </g>
</svg>
