<?xml version="1.0" encoding="utf-8"?>
<svg viewBox="0 0 71 84.2" xmlns="http://www.w3.org/2000/svg">
  <defs>
    <linearGradient id="gradient-26" y2="145.91" gradientUnits="userSpaceOnUse" x2="-150.66" y1="-35.774" x1="-150.66">
      <stop id="stop-58" style="stop-color: rgb(14, 200, 237);" offset="0"/>
      <stop id="stop-59" style="stop-color: rgb(0, 164, 230);" offset="1"/>
    </linearGradient>
    <linearGradient id="gradient-27" y2="69.331" gradientUnits="userSpaceOnUse" y1="-33.352" gradientTransform="matrix(.91463 0 0 .91463 535.32 843.08)" x2="-150.71" x1="-138.55">
      <stop id="stop-60" style="stop-color:#ffffff" offset="0"/>
      <stop id="stop-61" style="stop-color:#ffffff;stop-opacity:.66667" offset="0"/>
      <stop id="stop-62" style="stop-color:#9dbbe1;stop-opacity:.089431" offset="1"/>
    </linearGradient>
  </defs>
  <g transform="matrix(0.720134, 0, 0, 0.663614, -436.093811, -360.278259)" style="">
    <title>2 Way</title>
    <g id="layer1" transform="matrix(-2.256522, 0, 0, 2.416698, 709.026062, -1877.712036)" style="">
      <title>Block</title>
      <g id="g3000" transform="translate(-6,1003)">
        <path id="path2987" d="m30 2.3622-20 10 20 10 20-10z" style="fill:#f9f9f9"/>
        <path id="path2989" style="fill:#ececec" d="m30 22.362v25l20-10v-25z"/>
        <path id="path2991" d="m30 22.362v25l-20-10v-25z" style="fill:#cccccc"/>
        <path id="path2993" d="m30 2.375-20 10v25l20 10 20-10v-25l-20-10z" style="stroke:#4d4d4d;stroke-width:1px;fill:none"/>
      </g>
    </g>
    <g id="g-12" transform="matrix(0.222881, 0.098832, 0, 0.26259, 543.798157, 344.302795)">
      <title>Blue Icon</title>
      <path id="path-73" style="fill: rgb(10, 144, 234);" d="m-59.822 55.066c0 50.17-40.671 90.841-90.841 90.841s-90.841-40.671-90.841-90.841 40.671-90.841 90.841-90.841 90.841 40.671 90.841 90.841z" transform="matrix(.96341 0 0 .97561 542.67 839.72)"/>
      <path id="path-74" style="fill: url(#gradient-26);" d="m-59.822 55.066c0 50.17-40.671 90.841-90.841 90.841s-90.841-40.671-90.841-90.841 40.671-90.841 90.841-90.841 90.841 40.671 90.841 90.841z" transform="matrix(.91463 0 0 .91463 535.32 843.08)"/>
      <path id="path-78" style="opacity: 0.7572; fill: url(#gradient-27);" d="m397.52 810.35c-45.16 0-81.909 36.056-83.062 80.938 37.387 15.04 95.243 25.784 166.03-2.0938-2.2099-43.915-38.505-78.844-82.969-78.844z"/>
    </g>
    <g transform="matrix(0.02012, 0.006723, 0, 0.021833, 615.401611, 593.741821)" style="">
      <title>bidirectionalSign</title>
      <g>
        <title>signPole</title>
        <circle cx="850.647" cy="116.354" r="88.25" style="fill: rgb(255, 255, 255);"/>
        <path d="M906.273,1628.104H795.02V179.509c0-19.242,111.253-19.242,111.253,0V1628.104z" style="fill: rgb(255, 255, 255);"/>
      </g>
      <g>
        <title>sign1</title>
        <g>
          <path d="M242.021,396.798h1218.008c3.825,0,7.519,1.393,10.392,3.918l175.743,154.487 c7.131,6.268,7.131,17.375,0,23.643l-175.711,154.458c-2.892,2.542-6.616,3.936-10.466,3.918l-1218.04-5.753 c-8.664-0.041-15.665-7.076-15.665-15.74V412.538C226.281,403.845,233.328,396.798,242.021,396.798z" style="fill: rgb(255, 255, 255);"/>
          <linearGradient id="SVGID_3_" gradientUnits="userSpaceOnUse" x1="205.369" y1="508.8025" x2="1672.4249" y2="508.8025" gradientTransform="matrix(1 0 0 1 0 58.2075)">
            <stop offset="0" style="stop-color:#E5E2DF"/>
            <stop offset="0" style="stop-color:#D6D7D7"/>
            <stop offset="0" style="stop-color:#D1D3D4"/>
            <stop offset="0.0676" style="stop-color:#EDEEEE"/>
            <stop offset="0.1067" style="stop-color:#FFFFFF"/>
            <stop offset="0.1185" style="stop-color:#F2F2F2"/>
            <stop offset="0.1574" style="stop-color:#CBCCCD"/>
            <stop offset="0.1931" style="stop-color:#AEB0B2"/>
            <stop offset="0.2242" style="stop-color:#9D9FA2"/>
            <stop offset="0.2472" style="stop-color:#97999C"/>
            <stop offset="0.5922" style="stop-color:#D1D3D4"/>
            <stop offset="0.6818" style="stop-color:#DBDCDD"/>
            <stop offset="0.8321" style="stop-color:#F5F5F5"/>
            <stop offset="0.882" style="stop-color:#FFFFFF"/>
            <stop offset="0.8972" style="stop-color:#EAEBEC"/>
            <stop offset="0.9214" style="stop-color:#D0D2D3"/>
            <stop offset="0.9463" style="stop-color:#BEBFC2"/>
            <stop offset="0.972" style="stop-color:#B3B5B7"/>
            <stop offset="1" style="stop-color:#AFB1B4"/>
          </linearGradient>
          <path fill="url(#SVGID_3_)" d="M1460.029,396.798c3.825,0,7.519,1.393,10.392,3.918l175.743,154.487 c7.131,6.268,7.131,17.375,0,23.643l-175.711,154.458c-2.874,2.526-6.568,3.918-10.392,3.918c-0.025,0-0.049,0-0.074,0 l-1218.04-5.753c-8.664-0.041-15.666-7.076-15.666-15.74V412.538c0-8.693,7.047-15.74,15.74-15.74H1460.029 M1460.029,375.885 H242.021c-20.21,0-36.652,16.442-36.652,36.652v303.192c0,20.115,16.365,36.557,36.479,36.652l1218.04,5.753l0.173,0.001 c8.911,0,17.505-3.24,24.199-9.124l175.711-154.459c7.914-6.957,12.454-16.991,12.454-27.528 c0-10.538-4.539-20.571-12.454-27.528l-175.743-154.487C1477.534,379.125,1468.941,375.885,1460.029,375.885L1460.029,375.885z" style="visibility: hidden;"/>
        </g>
      </g>
      <g>
        <title>sign2</title>
        <g>
          <path d="M1475.012,1010.504v303.192c0,8.664-7.002,15.699-15.666,15.74l-1218.04,5.753 c-3.851,0.018-7.574-1.376-10.466-3.918L55.129,1176.812c-7.131-6.268-7.131-17.375,0-23.643l175.743-154.487 c2.873-2.525,6.567-3.918,10.392-3.918h1218.008C1467.965,994.764,1475.012,1001.811,1475.012,1010.504z" style="fill: rgb(255, 255, 255);"/>
        </g>
      </g>
    </g>
  </g>
</svg>