<?xml version="1.0" encoding="utf-8"?>
<svg role="img" aria-labelledby="title desc" viewBox="0 0 500 324" xmlns="http://www.w3.org/2000/svg">
<title id="title">Our Passion to help in your determined business goal(s).</title>
<desc id="desc">BrightDay Technology providing business building blocks.</desc>
  <path d="M 202 146.57 L 213.858 83.82 L 230.818 83.82 L 242.511 146.57 L 228.083 146.57 L 226.053 133.75 L 218.837 133.75 L 216.737 146.57 Z M 217.137 131.75 L 227.761 131.75 L 229.791 144.57 L 240.103 144.57 L 229.156 85.82 L 215.516 85.82 L 204.414 144.57 L 215.037 144.57 Z M 218.042 125.72 L 222.405 93.603 L 226.783 125.72 Z M 222.409 108.437 L 220.332 123.72 L 224.491 123.72 Z M 263.887 147.47 C 259.175 147.47 255.272 146.544 252.446 144.807 C 249.642 143.017 247.55 140.414 246.377 137.251 C 245.246 134.129 244.663 130.397 244.657 126.22 L 244.657 104.32 C 244.663 100.044 245.246 96.262 246.377 93.14 C 247.551 89.969 249.646 87.377 252.453 85.618 C 255.278 83.91 259.177 83 263.887 83 C 268.49 83 272.267 83.794 274.931 85.346 C 277.597 86.901 279.583 89.236 280.717 92.032 C 281.798 94.779 282.36 98.012 282.367 101.55 L 282.367 107.8 L 267.237 107.8 L 267.237 100.72 C 267.238 99.547 267.177 98.448 267.053 97.378 C 266.965 96.409 266.712 95.758 266.186 95.167 C 265.804 94.592 265.167 94.44 263.887 94.44 C 262.658 94.44 261.988 94.627 261.516 95.243 C 260.922 95.861 260.638 96.539 260.485 97.532 C 260.318 98.62 260.236 99.73 260.237 100.94 L 260.237 129.52 C 260.235 130.821 260.341 131.958 260.557 133.033 C 260.758 134.031 261.073 134.662 261.634 135.223 C 262.151 135.74 262.749 135.94 263.887 135.94 C 265.118 135.94 265.733 135.79 266.118 135.221 C 266.639 134.628 266.9 133.94 267.016 132.908 C 267.165 131.794 267.238 130.687 267.237 129.52 L 267.237 122.14 L 282.367 122.14 L 282.367 128.39 C 282.36 131.925 281.824 135.194 280.763 138.012 C 279.679 140.891 277.687 143.302 275.025 144.959 C 272.358 146.62 268.543 147.47 263.887 147.47 Z M 273.969 143.261 C 276.361 141.772 277.921 139.883 278.891 137.308 C 279.884 134.672 280.374 131.761 280.367 128.39 L 280.367 124.14 L 269.237 124.14 L 269.237 129.52 C 269.236 130.753 269.155 131.992 268.998 133.172 C 268.82 134.446 268.337 135.636 267.658 136.497 C 266.844 137.367 265.456 137.94 263.887 137.94 C 262.425 137.94 261.049 137.466 260.22 136.637 C 259.435 135.852 258.85 134.683 258.597 133.427 C 258.359 132.248 258.239 130.913 258.237 129.52 L 258.237 100.94 C 258.238 99.656 258.33 98.394 258.509 97.228 C 258.702 95.967 259.27 94.777 260.033 93.902 C 260.908 93.013 262.316 92.44 263.887 92.44 C 265.501 92.44 266.909 93.013 267.727 93.892 C 268.414 94.755 268.889 95.931 269.041 97.162 C 269.171 98.292 269.236 99.493 269.237 100.72 L 269.237 105.8 L 280.367 105.8 L 280.367 101.55 C 280.374 98.182 279.883 95.317 278.858 92.77 C 277.898 90.26 276.311 88.465 273.923 87.074 C 271.533 85.68 268.284 85 263.887 85 C 259.397 85 256.023 85.736 253.502 87.321 C 250.949 88.857 249.269 90.937 248.258 93.82 C 247.175 96.751 246.651 100.196 246.657 104.32 L 246.657 126.22 C 246.651 130.243 247.174 133.635 248.256 136.567 C 249.269 139.444 250.952 141.543 253.508 143.113 C 256.028 144.722 259.399 145.47 263.887 145.47 C 268.325 145.47 271.582 144.747 273.969 143.261 Z M 287.932 146.57 L 287.932 83.82 L 303.362 83.82 L 303.362 108.42 L 310.732 108.42 L 310.732 83.82 L 326.232 83.82 L 326.232 146.57 L 310.732 146.57 L 310.732 120.02 L 303.362 120.02 L 303.362 146.57 Z M 301.362 118.02 L 312.732 118.02 L 312.732 144.57 L 324.232 144.57 L 324.232 85.82 L 312.732 85.82 L 312.732 110.42 L 301.362 110.42 L 301.362 85.82 L 289.932 85.82 L 289.932 144.57 L 301.362 144.57 Z M 333.542 146.57 L 333.542 83.82 L 348.962 83.82 L 348.962 146.57 Z M 346.962 85.82 L 335.542 85.82 L 335.542 144.57 L 346.962 144.57 Z M 356.037 146.57 L 356.037 83.82 L 385.337 83.82 L 385.337 94.97 L 371.467 94.97 L 371.467 108.05 L 382.037 108.05 L 382.037 119.35 L 371.467 119.35 L 371.467 135.5 L 385.487 135.5 L 385.487 146.57 Z M 383.487 137.5 L 369.467 137.5 L 369.467 117.35 L 380.037 117.35 L 380.037 110.05 L 369.467 110.05 L 369.467 92.97 L 383.337 92.97 L 383.337 85.82 L 358.037 85.82 L 358.037 144.57 L 383.487 144.57 Z M 397.826 146.57 L 386.516 83.82 L 400.046 83.82 L 405.677 119.441 L 410.918 83.82 L 425.141 83.82 L 413.666 146.57 Z M 422.743 85.82 L 412.646 85.82 L 405.747 132.699 L 398.338 85.82 L 388.908 85.82 L 399.498 144.57 L 411.998 144.57 Z M 429.012 146.57 L 429.012 83.82 L 458.312 83.82 L 458.312 94.97 L 444.442 94.97 L 444.442 108.05 L 455.012 108.05 L 455.012 119.35 L 444.442 119.35 L 444.442 135.5 L 458.462 135.5 L 458.462 146.57 Z M 456.462 137.5 L 442.442 137.5 L 442.442 117.35 L 453.012 117.35 L 453.012 110.05 L 442.442 110.05 L 442.442 92.97 L 456.312 92.97 L 456.312 85.82 L 431.012 85.82 L 431.012 144.57 L 456.462 144.57 Z" style="fill: rgb(255, 255, 255);" class="achieveText">
    <title>Achieve</title>
  </path>
  <path d="M 81.881 263.013 L 73.091 263.013 L 81.051 220.893 L 91.661 220.893 L 99.511 263.013 L 90.931 263.013 L 89.521 254.123 L 83.341 254.123 L 81.881 263.013 Z M 86.401 232.123 L 84.171 248.553 L 88.641 248.553 L 86.401 232.123 Z M 116.307 263.013 L 103.357 263.013 L 103.357 220.893 L 114.327 220.893 C 116.134 220.893 117.84 221.033 119.447 221.313 C 121.06 221.586 122.49 222.113 123.737 222.893 C 124.99 223.673 125.97 224.783 126.677 226.223 C 127.39 227.663 127.747 229.56 127.747 231.913 C 127.747 233.613 127.494 235.043 126.987 236.203 C 126.487 237.37 125.777 238.3 124.857 238.993 C 123.937 239.686 122.837 240.153 121.557 240.393 C 123.184 240.6 124.554 241.13 125.667 241.983 C 126.774 242.83 127.614 243.963 128.187 245.383 C 128.76 246.803 129.047 248.52 129.047 250.533 C 129.047 252.72 128.76 254.6 128.187 256.173 C 127.614 257.753 126.79 259.046 125.717 260.053 C 124.644 261.053 123.317 261.796 121.737 262.283 C 120.164 262.77 118.354 263.013 116.307 263.013 Z M 112.667 243.873 L 112.667 256.513 L 114.637 256.513 C 116.684 256.513 118.097 255.993 118.877 254.953 C 119.657 253.913 120.047 252.386 120.047 250.373 C 120.047 248.78 119.874 247.516 119.527 246.583 C 119.18 245.643 118.61 244.956 117.817 244.523 C 117.017 244.09 115.94 243.873 114.587 243.873 L 112.667 243.873 Z M 112.667 227.133 L 112.667 237.743 L 114.487 237.743 C 115.907 237.743 116.98 237.526 117.707 237.093 C 118.434 236.66 118.927 236.026 119.187 235.193 C 119.447 234.36 119.577 233.353 119.577 232.173 C 119.577 231.066 119.38 230.14 118.987 229.393 C 118.587 228.646 117.997 228.083 117.217 227.703 C 116.437 227.323 115.457 227.133 114.277 227.133 L 112.667 227.133 Z M 143.293 263.013 L 133.983 263.013 L 133.983 220.893 L 143.293 220.893 L 143.293 263.013 Z M 168.565 263.013 L 149.585 263.013 L 149.585 220.893 L 158.895 220.893 L 158.895 256.723 L 168.565 256.723 L 168.565 263.013 Z M 181.565 263.013 L 172.255 263.013 L 172.255 220.893 L 181.565 220.893 L 181.565 263.013 Z M 201.017 263.013 L 191.657 263.013 L 191.657 227.813 L 185.307 227.813 L 185.307 220.893 L 207.307 220.893 L 207.307 227.813 L 201.017 227.813 L 201.017 263.013 Z M 225.247 263.013 L 216.297 263.013 L 216.297 245.803 L 208.297 220.893 L 217.077 220.893 L 221.087 234.203 L 224.677 220.893 L 233.097 220.893 L 225.247 245.803 L 225.247 263.013 Z" style="fill: none; stroke: rgb(255, 255, 255); stroke-width: 2px; text-transform: uppercase;" class="abilityText">
    <title>Ability</title>
  </path>
  <path d="M 298.885 263.004 L 290.095 263.004 L 298.055 220.884 L 308.665 220.884 L 316.515 263.004 L 307.935 263.004 L 306.525 254.114 L 300.345 254.114 L 298.885 263.004 Z M 303.405 232.114 L 301.175 248.544 L 305.645 248.544 L 303.405 232.114 Z M 331.121 263.004 L 320.361 263.004 L 320.361 220.884 L 331.021 220.884 C 334.694 220.884 337.554 221.344 339.601 222.264 C 341.648 223.184 343.088 224.621 343.921 226.574 C 344.748 228.534 345.161 231.074 345.161 234.194 L 345.161 249.484 C 345.161 252.637 344.748 255.211 343.921 257.204 C 343.088 259.197 341.658 260.664 339.631 261.604 C 337.598 262.537 334.761 263.004 331.121 263.004 Z M 329.671 227.384 L 329.671 256.554 L 331.121 256.554 C 332.548 256.554 333.571 256.347 334.191 255.934 C 334.818 255.514 335.208 254.891 335.361 254.064 C 335.521 253.231 335.601 252.191 335.601 250.944 L 335.601 232.584 C 335.601 231.337 335.504 230.331 335.311 229.564 C 335.118 228.804 334.711 228.251 334.091 227.904 C 333.464 227.557 332.458 227.384 331.071 227.384 L 329.671 227.384 Z M 356.969 263.004 L 348.179 263.004 L 356.139 220.884 L 366.749 220.884 L 374.599 263.004 L 366.019 263.004 L 364.609 254.114 L 358.429 254.114 L 356.969 263.004 Z M 361.489 232.114 L 359.259 248.544 L 363.729 248.544 L 361.489 232.114 Z M 387.755 263.004 L 378.445 263.004 L 378.445 220.884 L 392.585 220.884 C 395.118 220.884 397.198 221.361 398.825 222.314 C 400.458 223.267 401.672 224.654 402.465 226.474 C 403.265 228.294 403.665 230.504 403.665 233.104 C 403.665 236.364 403.128 238.851 402.055 240.564 C 400.982 242.284 399.525 243.471 397.685 244.124 C 395.845 244.784 393.782 245.114 391.495 245.114 L 387.755 245.114 L 387.755 263.004 Z M 387.755 227.434 L 387.755 238.614 L 390.875 238.614 C 392.015 238.614 392.882 238.407 393.475 237.994 C 394.062 237.574 394.452 236.951 394.645 236.124 C 394.832 235.291 394.925 234.231 394.925 232.944 C 394.925 231.871 394.848 230.927 394.695 230.114 C 394.542 229.301 394.168 228.651 393.575 228.164 C 392.988 227.677 392.072 227.434 390.825 227.434 L 387.755 227.434 Z M 421.297 263.004 L 411.937 263.004 L 411.937 227.804 L 405.587 227.804 L 405.587 220.884 L 427.587 220.884 L 427.587 227.804 L 421.297 227.804 L 421.297 263.004 Z" style="fill: none; stroke: rgb(255, 255, 255); stroke-width: 2px; text-transform: uppercase;" class="adaptText">
    <title>Adapt</title>
  </path>
  <g id="g-8" transform="matrix(-1.625001, 0, 0, 1.603987, 106.250046, 62.21106)" class="buildBlock">
    <title>strategyBlock</title>
    <path id="path-34" d="m30 2.3622-20 10 20 10 20-10z" style="fill:#f9f9f9" class="topSide-bb">
      <title>Top</title>
    </path>
    <path id="path-35" style="fill:#ececec" d="m30 22.362v25l20-10v-25z" class="leftSide-bb">
      <title>Left</title>
    </path>
    <path id="path-36" d="m30 22.362v25l-20-10v-25z" style="fill:#cccccc" class="rightSide-bb">
      <title>Right</title>
    </path>
    <path id="path-37" d="m30 2.375-20 10v25l20 10 20-10v-25l-20-10z" style="stroke: rgb(77, 77, 77); stroke-width: 1px; fill: none;" class="outline-bb">
      <title>Outline</title>
    </path>
  </g>
  <path d="M 33.96 157.94 C 32.793 157.94 31.84 157.707 31.1 157.24 C 30.367 156.773 30 156.043 30 155.05 L 30.01 154.77 L 31.33 154.77 C 31.33 154.783 31.323 154.817 31.31 154.87 C 31.303 154.93 31.3 154.997 31.3 155.07 C 31.3 155.637 31.533 156.067 32 156.36 C 32.473 156.653 33.103 156.8 33.89 156.8 C 34.763 156.8 35.433 156.663 35.9 156.39 C 36.367 156.117 36.6 155.723 36.6 155.21 C 36.6 154.863 36.48 154.577 36.24 154.35 C 36 154.117 35.693 153.937 35.32 153.81 C 34.953 153.677 34.457 153.53 33.83 153.37 C 33.057 153.177 32.433 152.99 31.96 152.81 C 31.48 152.623 31.073 152.35 30.74 151.99 C 30.4 151.637 30.23 151.163 30.23 150.57 C 30.23 149.73 30.58 149.093 31.28 148.66 C 31.98 148.22 32.877 148 33.97 148 C 35.063 148 35.95 148.22 36.63 148.66 C 37.31 149.107 37.65 149.787 37.65 150.7 L 37.65 150.87 L 36.35 150.87 L 36.35 150.66 C 36.35 150.18 36.133 149.807 35.7 149.54 C 35.267 149.267 34.703 149.13 34.01 149.13 C 33.277 149.13 32.687 149.243 32.24 149.47 C 31.8 149.69 31.58 150.027 31.58 150.48 C 31.58 150.807 31.7 151.07 31.94 151.27 C 32.173 151.477 32.467 151.643 32.82 151.77 C 33.167 151.897 33.653 152.04 34.28 152.2 C 35.053 152.393 35.687 152.583 36.18 152.77 C 36.667 152.957 37.08 153.23 37.42 153.59 C 37.76 153.95 37.93 154.42 37.93 155 C 37.93 156.027 37.573 156.773 36.86 157.24 C 36.147 157.707 35.18 157.94 33.96 157.94 Z M 42.258 157.77 L 42.258 149.33 L 38.958 149.33 L 38.958 148.17 L 46.898 148.17 L 46.898 149.33 L 43.588 149.33 L 43.588 157.77 L 42.258 157.77 Z M 48.312 157.77 L 48.312 148.17 L 53.302 148.17 C 54.269 148.17 55.009 148.417 55.522 148.91 C 56.035 149.403 56.292 150.067 56.292 150.9 C 56.292 151.553 56.135 152.117 55.822 152.59 C 55.509 153.063 55.075 153.403 54.522 153.61 L 56.732 157.77 L 55.252 157.77 L 53.162 153.81 L 49.642 153.81 L 49.642 157.77 L 48.312 157.77 Z M 49.642 152.65 L 53.232 152.65 C 53.759 152.65 54.175 152.493 54.482 152.18 C 54.789 151.873 54.942 151.45 54.942 150.91 C 54.942 150.403 54.799 150.013 54.512 149.74 C 54.219 149.467 53.792 149.33 53.232 149.33 L 49.642 149.33 L 49.642 152.65 Z M 57.41 157.77 L 61.13 148.17 L 62.83 148.17 L 66.55 157.77 L 65.14 157.77 L 64.17 155.21 L 59.72 155.21 L 58.78 157.77 L 57.41 157.77 Z M 60.15 154.05 L 63.74 154.05 L 62.62 151.05 L 61.97 149.31 L 61.9 149.31 L 61.27 151.02 L 60.15 154.05 Z M 69.222 157.77 L 69.222 149.33 L 65.922 149.33 L 65.922 148.17 L 73.862 148.17 L 73.862 149.33 L 70.552 149.33 L 70.552 157.77 L 69.222 157.77 Z M 75.276 157.77 L 75.276 148.17 L 82.666 148.17 L 82.666 149.33 L 76.606 149.33 L 76.606 152.28 L 82.046 152.28 L 82.046 153.44 L 76.606 153.44 L 76.606 156.61 L 82.746 156.61 L 82.746 157.77 L 75.276 157.77 Z M 88.684 153.93 L 88.684 152.77 L 93.404 152.77 L 93.404 157.77 L 92.364 157.77 L 92.264 156.71 C 91.537 157.53 90.424 157.94 88.924 157.94 C 87.357 157.94 86.171 157.527 85.364 156.7 C 84.564 155.873 84.164 154.63 84.164 152.97 C 84.164 149.657 85.777 148 89.004 148 C 90.331 148 91.394 148.293 92.194 148.88 C 93.001 149.467 93.404 150.32 93.404 151.44 L 92.044 151.44 C 92.044 150.667 91.774 150.09 91.234 149.71 C 90.694 149.323 89.951 149.13 89.004 149.13 C 87.837 149.13 86.971 149.43 86.404 150.03 C 85.831 150.623 85.544 151.603 85.544 152.97 L 85.544 153 C 85.557 154.353 85.841 155.327 86.394 155.92 C 86.947 156.507 87.791 156.8 88.924 156.8 C 90.004 156.8 90.801 156.577 91.314 156.13 C 91.821 155.683 92.074 154.997 92.074 154.07 L 92.074 153.93 L 88.684 153.93 Z M 98.416 157.77 L 98.416 153.79 L 94.616 148.17 L 96.226 148.17 L 99.086 152.56 L 99.156 152.56 L 101.996 148.17 L 103.526 148.17 L 99.746 153.79 L 99.746 157.77 L 98.416 157.77 Z" style="fill: none; stroke: rgb(255, 255, 255); stroke-width: 2px; text-transform: uppercase; white-space: pre;" class="strategyText-bb">
    <title>Strategy</title>
  </path>
  <g transform="matrix(1, 0, 0, 1, 67.560944, -86.535385)">
    <title>educationBlocks</title>
    <g id="g-1" transform="matrix(-0.475, 0, 0, 0.46756, 199.189056, 218.430908)" class="buildingBlockSm">
      <title>BlockSmall</title>
      <path id="path-1" d="m30 2.3622-20 10 20 10 20-10z" style="fill:#f9f9f9" class="topSideSmall-bb">
        <title>Top</title>
      </path>
      <path id="path-2" style="fill:#ececec" d="m30 22.362v25l20-10v-25z" class="leftSideSmall-bb">
        <title>Left</title>
      </path>
      <path id="path-3" d="m30 22.362v25l-20-10v-25z" style="fill:#cccccc" class="rightSideSmall-bb">
        <title>Right</title>
      </path>
      <path id="path-4" d="m30 2.375-20 10v25l20 10 20-10v-25l-20-10z" style="stroke: rgb(77, 77, 77); stroke-width: 1px; fill: none;" class="outlineSmall-bb">
        <title>Outline</title>
      </path>
    </g>
    <g id="g-14" transform="matrix(-0.6, 0, 0, 0.590601, 221.439056, 230.140244)" class="buildingBlockSm">
      <title>BlockSmall</title>
      <path id="path-53" d="m30 2.3622-20 10 20 10 20-10z" style="fill:#f9f9f9" class="topSideSmall-bb">
        <title>Top</title>
      </path>
      <path id="path-54" style="fill:#ececec" d="m30 22.362v25l20-10v-25z" class="leftSideSmall-bb">
        <title>Left</title>
      </path>
      <path id="path-55" d="m30 22.362v25l-20-10v-25z" style="fill:#cccccc" class="rightSideSmall-bb">
        <title>Right</title>
      </path>
      <path id="path-56" d="m30 2.375-20 10v25l20 10 20-10v-25l-20-10z" style="stroke: rgb(77, 77, 77); stroke-width: 1px; fill: none;" class="outlineSmall-bb">
        <title>Outline</title>
      </path>
    </g>
    <g id="g-13" transform="matrix(-0.725, 0, 0, 0.713644, 210.689056, 246.849609)" class="buildingBlockSm">
      <title>BlockSmall</title>
      <path id="path-49" d="m30 2.3622-20 10 20 10 20-10z" style="fill:#f9f9f9" class="topSideSmall-bb">
        <title>Top</title>
      </path>
      <path id="path-50" style="fill:#ececec" d="m30 22.362v25l20-10v-25z" class="leftSideSmall-bb">
        <title>Left</title>
      </path>
      <path id="path-51" d="m30 22.362v25l-20-10v-25z" style="fill:#cccccc" class="rightSideSmall-bb">
        <title>Right</title>
      </path>
      <path id="path-52" d="m30 2.375-20 10v25l20 10 20-10v-25l-20-10z" style="stroke: rgb(77, 77, 77); stroke-width: 1px; fill: none;" class="outlineSmall-bb">
        <title>Outline</title>
      </path>
    </g>
    <g id="g-15" transform="matrix(-0.475, 0, 0, 0.46756, 234.189056, 218.430908)" class="buildingBlockSm">
      <title>BlockSmall</title>
      <path id="path-57" d="m30 2.3622-20 10 20 10 20-10z" style="fill:#f9f9f9" class="topSideSmall-bb">
        <title>Top</title>
      </path>
      <path id="path-58" style="fill:#ececec" d="m30 22.362v25l20-10v-25z" class="leftSideSmall-bb">
        <title>Left</title>
      </path>
      <path id="path-59" d="m30 22.362v25l-20-10v-25z" style="fill:#cccccc" class="rightSideSmall-bb">
        <title>Right</title>
      </path>
      <path id="path-60" d="m30 2.375-20 10v25l20 10 20-10v-25l-20-10z" style="stroke: rgb(77, 77, 77); stroke-width: 1px; fill: none;" class="outlineSmall-bb">
        <title>Outline</title>
      </path>
    </g>
  </g>
  <path d="M 159 172.77 L 159 163.17 L 166.39 163.17 L 166.39 164.33 L 160.33 164.33 L 160.33 167.28 L 165.77 167.28 L 165.77 168.44 L 160.33 168.44 L 160.33 171.61 L 166.47 171.61 L 166.47 172.77 L 159 172.77 Z M 168.338 172.77 L 168.338 163.17 L 171.888 163.17 C 173.428 163.17 174.615 163.563 175.448 164.35 C 176.275 165.137 176.688 166.343 176.688 167.97 C 176.688 169.59 176.275 170.797 175.448 171.59 C 174.615 172.377 173.428 172.77 171.888 172.77 L 168.338 172.77 Z M 169.668 171.61 L 171.888 171.61 C 173.001 171.61 173.848 171.33 174.428 170.77 C 175.015 170.21 175.311 169.287 175.318 168 L 175.318 167.97 C 175.318 166.67 175.028 165.74 174.448 165.18 C 173.861 164.613 173.008 164.33 171.888 164.33 L 169.668 164.33 L 169.668 171.61 Z M 182.376 172.94 C 181.116 172.94 180.146 172.637 179.466 172.03 C 178.786 171.423 178.446 170.49 178.446 169.23 L 178.446 163.17 L 179.776 163.17 L 179.776 169.3 C 179.776 170.12 180.003 170.743 180.456 171.17 C 180.903 171.59 181.543 171.8 182.376 171.8 C 183.216 171.8 183.866 171.587 184.326 171.16 C 184.779 170.733 185.006 170.113 185.006 169.3 L 185.006 163.17 L 186.336 163.17 L 186.336 169.23 C 186.336 170.49 185.996 171.423 185.316 172.03 C 184.636 172.637 183.656 172.94 182.376 172.94 Z M 192.774 172.94 C 191.227 172.94 190.061 172.527 189.274 171.7 C 188.494 170.873 188.104 169.63 188.104 167.97 C 188.104 166.31 188.494 165.067 189.274 164.24 C 190.061 163.413 191.227 163 192.774 163 C 194.027 163 195.031 163.31 195.784 163.93 C 196.531 164.55 196.904 165.453 196.904 166.64 L 195.554 166.64 C 195.554 165.82 195.307 165.197 194.814 164.77 C 194.327 164.343 193.647 164.13 192.774 164.13 C 191.647 164.13 190.817 164.43 190.284 165.03 C 189.751 165.623 189.481 166.593 189.474 167.94 L 189.474 167.97 C 189.474 169.323 189.741 170.3 190.274 170.9 C 190.807 171.5 191.641 171.8 192.774 171.8 C 193.661 171.8 194.354 171.59 194.854 171.17 C 195.354 170.75 195.604 170.137 195.604 169.33 L 196.904 169.33 C 196.904 170.523 196.531 171.423 195.784 172.03 C 195.037 172.637 194.034 172.94 192.774 172.94 Z M 197.652 172.77 L 201.372 163.17 L 203.072 163.17 L 206.792 172.77 L 205.382 172.77 L 204.412 170.21 L 199.962 170.21 L 199.022 172.77 L 197.652 172.77 Z M 200.392 169.05 L 203.982 169.05 L 202.862 166.05 L 202.212 164.31 L 202.142 164.31 L 201.512 166.02 L 200.392 169.05 Z M 209.464 172.77 L 209.464 164.33 L 206.164 164.33 L 206.164 163.17 L 214.104 163.17 L 214.104 164.33 L 210.794 164.33 L 210.794 172.77 L 209.464 172.77 Z M 215.698 172.77 L 215.698 163.17 L 217.028 163.17 L 217.028 172.77 L 215.698 172.77 Z M 223.75 172.94 C 222.223 172.94 221.043 172.523 220.21 171.69 C 219.377 170.85 218.96 169.61 218.96 167.97 C 218.96 166.323 219.377 165.083 220.21 164.25 C 221.043 163.417 222.223 163 223.75 163 C 225.277 163 226.46 163.417 227.3 164.25 C 228.133 165.083 228.55 166.323 228.55 167.97 C 228.55 169.603 228.133 170.84 227.3 171.68 C 226.46 172.52 225.277 172.94 223.75 172.94 Z M 223.75 171.8 C 224.857 171.8 225.703 171.5 226.29 170.9 C 226.883 170.3 227.18 169.34 227.18 168.02 L 227.18 167.97 C 227.167 166.637 226.867 165.663 226.28 165.05 C 225.693 164.437 224.85 164.13 223.75 164.13 C 222.657 164.13 221.817 164.437 221.23 165.05 C 220.637 165.663 220.337 166.637 220.33 167.97 L 220.33 168.02 C 220.33 169.34 220.623 170.3 221.21 170.9 C 221.797 171.5 222.643 171.8 223.75 171.8 Z M 230.302 172.77 L 230.302 163.17 L 231.492 163.17 L 236.552 169.86 L 236.892 170.31 L 236.952 170.29 L 236.952 169.63 L 236.952 163.17 L 238.192 163.17 L 238.192 172.77 L 237.062 172.77 L 231.962 165.99 L 231.602 165.5 L 231.542 165.52 L 231.542 166.18 L 231.542 172.77 L 230.302 172.77 Z" style="fill: none; stroke: rgb(255, 255, 255); text-transform: uppercase; white-space: pre; stroke-width: 2px;" class="educationText-bb">
    <title>Education</title>
  </path>
  <g transform="matrix(1, 0, 0, 1, 63.630005, -75.092003)">
    <title>policyBlocks</title>
    <g id="g-2" transform="matrix(-0.475, 0, 0, 0.46756, 292.75, 216.895523)" class="buildingBlockSm">
      <title>BlockSmall</title>
      <path id="path-5" d="m30 2.3622-20 10 20 10 20-10z" style="fill:#f9f9f9" class="topSideSmall-bb">
        <title>Top</title>
      </path>
      <path id="path-6" style="fill:#ececec" d="m30 22.362v25l20-10v-25z" class="leftSideSmall-bb">
        <title>Left</title>
      </path>
      <path id="path-7" d="m30 22.362v25l-20-10v-25z" style="fill:#cccccc" class="rightSideSmall-bb">
        <title>Right</title>
      </path>
      <path id="path-8" d="m30 2.375-20 10v25l20 10 20-10v-25l-20-10z" style="stroke: rgb(77, 77, 77); stroke-width: 1px; fill: none;" class="outlineSmall-bb">
        <title>Outline</title>
      </path>
    </g>
    <g id="g-3" transform="matrix(-0.45, 0, 0, 0.442951, 312.5, 209.953659)" class="buildingBlockSm">
      <title>BlockSmall</title>
      <path id="path-9" d="m30 2.3622-20 10 20 10 20-10z" style="fill:#f9f9f9" class="topSideSmall-bb">
        <title>Top</title>
      </path>
      <path id="path-10" style="fill:#ececec" d="m30 22.362v25l20-10v-25z" class="leftSideSmall-bb">
        <title>Left</title>
      </path>
      <path id="path-11" d="m30 22.362v25l-20-10v-25z" style="fill:#cccccc" class="rightSideSmall-bb">
        <title>Right</title>
      </path>
      <path id="path-12" d="m30 2.375-20 10v25l20 10 20-10v-25l-20-10z" style="stroke: rgb(77, 77, 77); stroke-width: 1px; fill: none;" class="outlineSmall-bb">
        <title>Outline</title>
      </path>
    </g>
    <g id="g-4" transform="matrix(-0.475, 0, 0, 0.46756, 325.75, 216.895523)" class="buildingBlockSm">
      <title>BlockSmall</title>
      <path id="path-13" d="m30 2.3622-20 10 20 10 20-10z" style="fill:#f9f9f9" class="topSideSmall-bb">
        <title>Top</title>
      </path>
      <path id="path-14" style="fill:#ececec" d="m30 22.362v25l20-10v-25z" class="leftSideSmall-bb">
        <title>Left</title>
      </path>
      <path id="path-15" d="m30 22.362v25l-20-10v-25z" style="fill:#cccccc" class="rightSideSmall-bb">
        <title>Right</title>
      </path>
      <path id="path-16" d="m30 2.375-20 10v25l20 10 20-10v-25l-20-10z" style="stroke: rgb(77, 77, 77); stroke-width: 1px; fill: none;" class="outlineSmall-bb">
        <title>Outline</title>
      </path>
    </g>
    <g id="g-5" transform="matrix(-0.281478, -0.413243, -0.406769, 0.277069, 314.567902, 237.470367)" class="buildingBlockSm" style="">
      <title>BlockSmall</title>
      <path id="path-17" d="m30 2.3622-20 10 20 10 20-10z" style="fill:#f9f9f9" class="topSideSmall-bb">
        <title>Top</title>
      </path>
      <path id="path-18" style="fill:#ececec" d="m30 22.362v25l20-10v-25z" class="leftSideSmall-bb">
        <title>Left</title>
      </path>
      <path id="path-19" d="m30 22.362v25l-20-10v-25z" style="fill:#cccccc" class="rightSideSmall-bb">
        <title>Right</title>
      </path>
      <path id="path-20" d="m30 2.375-20 10v25l20 10 20-10v-25l-20-10z" style="stroke: rgb(77, 77, 77); stroke-width: 1px; fill: none;" class="outlineSmall-bb">
        <title>Outline</title>
      </path>
    </g>
    <g id="g-6" transform="matrix(-0.475, 0, 0, 0.46756, 321.941895, 200.996841)" class="buildingBlockSm">
      <title>BlockSmall</title>
      <path id="path-21" d="m30 2.3622-20 10 20 10 20-10z" style="fill:#f9f9f9" class="topSideSmall-bb">
        <title>Top</title>
      </path>
      <path id="path-22" style="fill:#ececec" d="m30 22.362v25l20-10v-25z" class="leftSideSmall-bb">
        <title>Left</title>
      </path>
      <path id="path-23" d="m30 22.362v25l-20-10v-25z" style="fill:#cccccc" class="rightSideSmall-bb">
        <title>Right</title>
      </path>
      <path id="path-24" d="m30 2.375-20 10v25l20 10 20-10v-25l-20-10z" style="stroke: rgb(77, 77, 77); stroke-width: 1px; fill: none;" class="outlineSmall-bb">
        <title>Outline</title>
      </path>
    </g>
    <g id="g-7" transform="matrix(-0.625, 0, 0, 0.615209, 294.662109, 235.19632)" class="buildingBlockSm">
      <title>BlockSmall</title>
      <path id="path-25" d="m30 2.3622-20 10 20 10 20-10z" style="fill:#f9f9f9" class="topSideSmall-bb">
        <title>Top</title>
      </path>
      <path id="path-26" style="fill:#ececec" d="m30 22.362v25l20-10v-25z" class="leftSideSmall-bb">
        <title>Left</title>
      </path>
      <path id="path-27" d="m30 22.362v25l-20-10v-25z" style="fill:#cccccc" class="rightSideSmall-bb">
        <title>Right</title>
      </path>
      <path id="path-28" d="m30 2.375-20 10v25l20 10 20-10v-25l-20-10z" style="stroke: rgb(77, 77, 77); stroke-width: 1px; fill: none;" class="outlineSmall-bb">
        <title>Outline</title>
      </path>
    </g>
    <g id="g-9" transform="matrix(-0.55, 0, 0, 0.541384, 339.5, 228.72113)" class="buildingBlockSm">
      <title>BlockSmall</title>
      <path id="path-29" d="m30 2.3622-20 10 20 10 20-10z" style="fill:#f9f9f9" class="topSideSmall-bb">
        <title>Top</title>
      </path>
      <path id="path-30" style="fill:#ececec" d="m30 22.362v25l20-10v-25z" class="leftSideSmall-bb">
        <title>Left</title>
      </path>
      <path id="path-31" d="m30 22.362v25l-20-10v-25z" style="fill:#cccccc" class="rightSideSmall-bb">
        <title>Right</title>
      </path>
      <path id="path-32" d="m30 2.375-20 10v25l20 10 20-10v-25l-20-10z" style="stroke: rgb(77, 77, 77); stroke-width: 1px; fill: none;" class="outlineSmall-bb">
        <title>Outline</title>
      </path>
    </g>
    <g id="g-10" transform="matrix(-0.475, 0, 0, 0.46756, 359.75, 216.895523)" class="buildingBlockSm" style="">
      <title>BlockSmall</title>
      <path id="path-33" d="m30 2.3622-20 10 20 10 20-10z" style="fill:#f9f9f9" class="topSideSmall-bb">
        <title>Top</title>
      </path>
      <path id="path-38" style="fill:#ececec" d="m30 22.362v25l20-10v-25z" class="leftSideSmall-bb">
        <title>Left</title>
      </path>
      <path id="path-39" d="m30 22.362v25l-20-10v-25z" style="fill:#cccccc" class="rightSideSmall-bb">
        <title>Right</title>
      </path>
      <path id="path-40" d="m30 2.375-20 10v25l20 10 20-10v-25l-20-10z" style="stroke: rgb(77, 77, 77); stroke-width: 1px; fill: none;" class="outlineSmall-bb">
        <title>Outline</title>
      </path>
    </g>
    <g id="g-11" transform="matrix(-0.475, 0, 0, 0.46756, 359.75, 204.895523)" class="buildingBlockSm" style="">
      <title>BlockSmall</title>
      <path id="path-41" d="m30 2.3622-20 10 20 10 20-10z" style="fill:#f9f9f9" class="topSideSmall-bb">
        <title>Top</title>
      </path>
      <path id="path-42" style="fill:#ececec" d="m30 22.362v25l20-10v-25z" class="leftSideSmall-bb">
        <title>Left</title>
      </path>
      <path id="path-43" d="m30 22.362v25l-20-10v-25z" style="fill:#cccccc" class="rightSideSmall-bb">
        <title>Right</title>
      </path>
      <path id="path-44" d="m30 2.375-20 10v25l20 10 20-10v-25l-20-10z" style="stroke: rgb(77, 77, 77); stroke-width: 1px; fill: none;" class="outlineSmall-bb">
        <title>Outline</title>
      </path>
    </g>
    <g id="g-12" transform="matrix(-0.75, 0, 0, 0.738251, 321.5, 243.256104)" class="buildingBlockSm" style="">
      <title>BlockSmall</title>
      <path id="path-45" d="m30 2.3622-20 10 20 10 20-10z" style="fill:#f9f9f9" class="topSideSmall-bb">
        <title>Top</title>
      </path>
      <path id="path-46" style="fill:#ececec" d="m30 22.362v25l20-10v-25z" class="leftSideSmall-bb">
        <title>Left</title>
      </path>
      <path id="path-47" d="m30 22.362v25l-20-10v-25z" style="fill:#cccccc" class="rightSideSmall-bb">
        <title>Right</title>
      </path>
      <path id="path-48" d="m30 2.375-20 10v25l20 10 20-10v-25l-20-10z" style="stroke: rgb(77, 77, 77); stroke-width: 1px; fill: none;" class="outlineSmall-bb">
        <title>Outline</title>
      </path>
    </g>
  </g>
  <path d="M 384 192.77 L 384 183.17 L 388.67 183.17 C 389.63 183.17 390.367 183.433 390.88 183.96 C 391.393 184.493 391.65 185.203 391.65 186.09 C 391.65 186.997 391.383 187.723 390.85 188.27 C 390.31 188.817 389.583 189.09 388.67 189.09 L 385.33 189.09 L 385.33 192.77 L 384 192.77 Z M 385.33 187.93 L 388.6 187.93 C 389.127 187.93 389.543 187.767 389.85 187.44 C 390.157 187.113 390.31 186.67 390.31 186.11 C 390.31 185.537 390.167 185.097 389.88 184.79 C 389.587 184.483 389.16 184.33 388.6 184.33 L 385.33 184.33 L 385.33 187.93 Z M 397.678 192.94 C 396.151 192.94 394.971 192.523 394.138 191.69 C 393.305 190.85 392.888 189.61 392.888 187.97 C 392.888 186.323 393.305 185.083 394.138 184.25 C 394.971 183.417 396.151 183 397.678 183 C 399.205 183 400.388 183.417 401.228 184.25 C 402.061 185.083 402.478 186.323 402.478 187.97 C 402.478 189.603 402.061 190.84 401.228 191.68 C 400.388 192.52 399.205 192.94 397.678 192.94 Z M 397.678 191.8 C 398.785 191.8 399.631 191.5 400.218 190.9 C 400.811 190.3 401.108 189.34 401.108 188.02 L 401.108 187.97 C 401.095 186.637 400.795 185.663 400.208 185.05 C 399.621 184.437 398.778 184.13 397.678 184.13 C 396.585 184.13 395.745 184.437 395.158 185.05 C 394.565 185.663 394.265 186.637 394.258 187.97 L 394.258 188.02 C 394.258 189.34 394.551 190.3 395.138 190.9 C 395.725 191.5 396.571 191.8 397.678 191.8 Z M 404.23 192.77 L 404.23 183.17 L 405.56 183.17 L 405.56 191.61 L 410.48 191.61 L 410.48 192.77 L 404.23 192.77 Z M 412.194 192.77 L 412.194 183.17 L 413.524 183.17 L 413.524 192.77 L 412.194 192.77 Z M 420.126 192.94 C 418.579 192.94 417.413 192.527 416.626 191.7 C 415.846 190.873 415.456 189.63 415.456 187.97 C 415.456 186.31 415.846 185.067 416.626 184.24 C 417.413 183.413 418.579 183 420.126 183 C 421.379 183 422.383 183.31 423.136 183.93 C 423.883 184.55 424.256 185.453 424.256 186.64 L 422.906 186.64 C 422.906 185.82 422.659 185.197 422.166 184.77 C 421.679 184.343 420.999 184.13 420.126 184.13 C 418.999 184.13 418.169 184.43 417.636 185.03 C 417.103 185.623 416.833 186.593 416.826 187.94 L 416.826 187.97 C 416.826 189.323 417.093 190.3 417.626 190.9 C 418.159 191.5 418.993 191.8 420.126 191.8 C 421.013 191.8 421.706 191.59 422.206 191.17 C 422.706 190.75 422.956 190.137 422.956 189.33 L 424.256 189.33 C 424.256 190.523 423.883 191.423 423.136 192.03 C 422.389 192.637 421.386 192.94 420.126 192.94 Z M 428.924 192.77 L 428.924 188.79 L 425.124 183.17 L 426.734 183.17 L 429.594 187.56 L 429.664 187.56 L 432.504 183.17 L 434.034 183.17 L 430.254 188.79 L 430.254 192.77 L 428.924 192.77 Z" style="fill: none; stroke: rgb(255, 255, 255); stroke-width: 2px; text-transform: uppercase;" class="policyText-bb">
    <title>Policy</title>
  </path>
  <g transform="matrix(1.209803, 0, 0, 1.209803, -49.003513, -107.374062)">
    <title>skillBlocks</title>
    <g id="g-20" transform="matrix(-0.55, 0, 0, 0.541385, 272.5, 293.721161)" class="buildingBlockSm" style="">
      <title>BlockSmall</title>
      <path id="path-77" d="m30 2.3622-20 10 20 10 20-10z" style="fill:#f9f9f9" class="topSideSmall-bb">
        <title>Top</title>
      </path>
      <path id="path-78" style="fill:#ececec" d="m30 22.362v25l20-10v-25z" class="leftSideSmall-bb">
        <title>Left</title>
      </path>
      <path id="path-79" d="m30 22.362v25l-20-10v-25z" style="fill:#cccccc" class="rightSideSmall-bb">
        <title>Right</title>
      </path>
      <path id="path-80" d="m30 2.375-20 10v25l20 10 20-10v-25l-20-10z" style="stroke: rgb(77, 77, 77); stroke-width: 1px; fill: none;" class="outlineSmall-bb">
        <title>Outline</title>
      </path>
    </g>
    <g id="g-21" transform="matrix(-0.55, 0, 0, 0.541385, 272.5, 281.72113)" class="buildingBlockSm" style="">
      <title>BlockSmall</title>
      <path id="path-81" d="m30 2.3622-20 10 20 10 20-10z" style="fill:#f9f9f9" class="topSideSmall-bb">
        <title>Top</title>
      </path>
      <path id="path-82" style="fill:#ececec" d="m30 22.362v25l20-10v-25z" class="leftSideSmall-bb">
        <title>Left</title>
      </path>
      <path id="path-83" d="m30 22.362v25l-20-10v-25z" style="fill:#cccccc" class="rightSideSmall-bb">
        <title>Right</title>
      </path>
      <path id="path-84" d="m30 2.375-20 10v25l20 10 20-10v-25l-20-10z" style="stroke: rgb(77, 77, 77); stroke-width: 1px; fill: none;" class="outlineSmall-bb">
        <title>Outline</title>
      </path>
    </g>
    <g id="g-16" transform="matrix(-0.525, 0, 0, 0.516775, 252.026672, 294.677948)" class="buildingBlockSm" style="">
      <title>BlockSmall</title>
      <path id="path-61" d="m30 2.3622-20 10 20 10 20-10z" style="fill:#f9f9f9" class="topSideSmall-bb">
        <title>Top</title>
      </path>
      <path id="path-62" style="fill:#ececec" d="m30 22.362v25l20-10v-25z" class="leftSideSmall-bb">
        <title>Left</title>
      </path>
      <path id="path-63" d="m30 22.362v25l-20-10v-25z" style="fill:#cccccc" class="rightSideSmall-bb">
        <title>Right</title>
      </path>
      <path id="path-64" d="m30 2.375-20 10v25l20 10 20-10v-25l-20-10z" style="stroke: rgb(77, 77, 77); stroke-width: 1px; fill: none;" class="outlineSmall-bb">
        <title>Outline</title>
      </path>
    </g>
    <g id="g-17" transform="matrix(-0.55, 0, 0, 0.541385, 263.276672, 298.619843)" class="buildingBlockSm">
      <title>BlockSmall</title>
      <path id="path-65" d="m30 2.3622-20 10 20 10 20-10z" style="fill:#f9f9f9" class="topSideSmall-bb">
        <title>Top</title>
      </path>
      <path id="path-66" style="fill:#ececec" d="m30 22.362v25l20-10v-25z" class="leftSideSmall-bb">
        <title>Left</title>
      </path>
      <path id="path-67" d="m30 22.362v25l-20-10v-25z" style="fill:#cccccc" class="rightSideSmall-bb">
        <title>Right</title>
      </path>
      <path id="path-68" d="m30 2.375-20 10v25l20 10 20-10v-25l-20-10z" style="stroke: rgb(77, 77, 77); stroke-width: 1px; fill: none;" class="outlineSmall-bb">
        <title>Outline</title>
      </path>
    </g>
    <g id="g-19" transform="matrix(-0.55, 0, 0, 0.541385, 259.468567, 284.721161)" class="buildingBlockSm">
      <title>BlockSmall</title>
      <path id="path-73" d="m30 2.3622-20 10 20 10 20-10z" style="fill:#f9f9f9" class="topSideSmall-bb">
        <title>Top</title>
      </path>
      <path id="path-74" style="fill:#ececec" d="m30 22.362v25l20-10v-25z" class="leftSideSmall-bb">
        <title>Left</title>
      </path>
      <path id="path-75" d="m30 22.362v25l-20-10v-25z" style="fill:#cccccc" class="rightSideSmall-bb">
        <title>Right</title>
      </path>
      <path id="path-76" d="m30 2.375-20 10v25l20 10 20-10v-25l-20-10z" style="stroke: rgb(77, 77, 77); stroke-width: 1px; fill: none;" class="outlineSmall-bb">
        <title>Outline</title>
      </path>
    </g>
    <g id="g-18" transform="matrix(-0.351848, -0.516554, -0.508462, 0.346337, 253.288483, 323.530151)" class="buildingBlockSm">
      <title>BlockSmall</title>
      <path id="path-69" d="m30 2.3622-20 10 20 10 20-10z" style="fill:#f9f9f9" class="topSideSmall-bb">
        <title>Top</title>
      </path>
      <path id="path-70" style="fill:#ececec" d="m30 22.362v25l20-10v-25z" class="leftSideSmall-bb">
        <title>Left</title>
      </path>
      <path id="path-71" d="m30 22.362v25l-20-10v-25z" style="fill:#cccccc" class="rightSideSmall-bb">
        <title>Right</title>
      </path>
      <path id="path-72" d="m30 2.375-20 10v25l20 10 20-10v-25l-20-10z" style="stroke: rgb(77, 77, 77); stroke-width: 1px; fill: none;" class="outlineSmall-bb">
        <title>Outline</title>
      </path>
    </g>
    <g id="g-22" transform="matrix(-0.575, 0, 0, 0.565993, 291.75, 293.663025)" class="buildingBlockSm" style="">
      <title>BlockSmall</title>
      <path id="path-85" d="m30 2.3622-20 10 20 10 20-10z" style="fill:#f9f9f9" class="topSideSmall-bb">
        <title>Top</title>
      </path>
      <path id="path-86" style="fill:#ececec" d="m30 22.362v25l20-10v-25z" class="leftSideSmall-bb">
        <title>Left</title>
      </path>
      <path id="path-87" d="m30 22.362v25l-20-10v-25z" style="fill:#cccccc" class="rightSideSmall-bb">
        <title>Right</title>
      </path>
      <path id="path-88" d="m30 2.375-20 10v25l20 10 20-10v-25l-20-10z" style="stroke: rgb(77, 77, 77); stroke-width: 1px; fill: none;" class="outlineSmall-bb">
        <title>Outline</title>
      </path>
    </g>
  </g>
  <path d="M 259.662 298.171 C 258.495 298.171 257.542 297.938 256.802 297.471 C 256.069 297.004 255.702 296.274 255.702 295.281 L 255.712 295.001 L 257.032 295.001 C 257.032 295.014 257.025 295.048 257.012 295.101 C 257.005 295.161 257.002 295.228 257.002 295.301 C 257.002 295.868 257.235 296.298 257.702 296.591 C 258.175 296.884 258.805 297.031 259.592 297.031 C 260.465 297.031 261.135 296.894 261.602 296.621 C 262.069 296.348 262.302 295.954 262.302 295.441 C 262.302 295.094 262.182 294.808 261.942 294.581 C 261.702 294.348 261.395 294.168 261.022 294.041 C 260.655 293.908 260.159 293.761 259.532 293.601 C 258.759 293.408 258.135 293.221 257.662 293.041 C 257.182 292.854 256.775 292.581 256.442 292.221 C 256.102 291.868 255.932 291.394 255.932 290.801 C 255.932 289.961 256.282 289.324 256.982 288.891 C 257.682 288.451 258.579 288.231 259.672 288.231 C 260.765 288.231 261.652 288.451 262.332 288.891 C 263.012 289.338 263.352 290.018 263.352 290.931 L 263.352 291.101 L 262.052 291.101 L 262.052 290.891 C 262.052 290.411 261.835 290.038 261.402 289.771 C 260.969 289.498 260.405 289.361 259.712 289.361 C 258.979 289.361 258.389 289.474 257.942 289.701 C 257.502 289.921 257.282 290.258 257.282 290.711 C 257.282 291.038 257.402 291.301 257.642 291.501 C 257.875 291.708 258.169 291.874 258.522 292.001 C 258.869 292.128 259.355 292.271 259.982 292.431 C 260.755 292.624 261.389 292.814 261.882 293.001 C 262.369 293.188 262.782 293.461 263.122 293.821 C 263.462 294.181 263.632 294.651 263.632 295.231 C 263.632 296.258 263.275 297.004 262.562 297.471 C 261.849 297.938 260.882 298.171 259.662 298.171 Z M 266.46 298.001 L 266.46 288.401 L 267.79 288.401 L 267.79 293.691 L 272.87 288.401 L 274.52 288.401 L 270.87 292.231 L 274.65 298.001 L 273.06 298.001 L 269.94 293.181 L 267.79 295.201 L 267.79 298.001 L 266.46 298.001 Z M 276.978 298.001 L 276.978 288.401 L 278.308 288.401 L 278.308 298.001 L 276.978 298.001 Z M 281.69 298.001 L 281.69 288.401 L 283.02 288.401 L 283.02 296.841 L 287.94 296.841 L 287.94 298.001 L 281.69 298.001 Z M 290.474 298.001 L 290.474 288.401 L 291.804 288.401 L 291.804 296.841 L 296.724 296.841 L 296.724 298.001 L 290.474 298.001 Z" style="fill: none; stroke: rgb(255, 255, 255); stroke-width: 2px; text-transform: uppercase; white-space: pre;" class="skillText-bb">
    <title>Skill</title>
  </path>
  <g transform="matrix(1, 0, 0, 1, -4, -31.999969)">
    <title>driveBlocks</title>
    <g id="g-23" transform="matrix(0.431818, 0, 0, 0.425055, 127.500008, 198.995911)" class="buildingBlockSm">
      <title>BlockSmall</title>
      <path id="path-89" d="m30 2.3622-20 10 20 10 20-10z" style="fill:#f9f9f9" class="topSideSmall-bb">
        <title>Top</title>
      </path>
      <path id="path-90" style="fill:#ececec" d="m30 22.362v25l20-10v-25z" class="leftSideSmall-bb">
        <title>Left</title>
      </path>
      <path id="path-91" d="m30 22.362v25l-20-10v-25z" style="fill:#cccccc" class="rightSideSmall-bb">
        <title>Right</title>
      </path>
      <path id="path-92" d="m30 2.375-20 10v25l20 10 20-10v-25l-20-10z" style="stroke: rgb(77, 77, 77); stroke-width: 1px; fill: none;" class="outlineSmall-bb">
        <title>Outline</title>
      </path>
    </g>
    <g id="g-24" transform="matrix(0.545455, 0, 0, 0.53691, 107.272728, 209.640762)" class="buildingBlockSm">
      <title>BlockSmall</title>
      <path id="path-93" d="m30 2.3622-20 10 20 10 20-10z" style="fill:#f9f9f9" class="topSideSmall-bb">
        <title>Top</title>
      </path>
      <path id="path-94" style="fill:#ececec" d="m30 22.362v25l20-10v-25z" class="leftSideSmall-bb">
        <title>Left</title>
      </path>
      <path id="path-95" d="m30 22.362v25l-20-10v-25z" style="fill:#cccccc" class="rightSideSmall-bb">
        <title>Right</title>
      </path>
      <path id="path-96" d="m30 2.375-20 10v25l20 10 20-10v-25l-20-10z" style="stroke: rgb(77, 77, 77); stroke-width: 1px; fill: none;" class="outlineSmall-bb">
        <title>Outline</title>
      </path>
    </g>
    <g id="g-25" transform="matrix(0.659091, 0, 0, 0.648767, 117.045456, 224.8311)" class="buildingBlockSm">
      <title>BlockSmall</title>
      <path id="path-97" d="m30 2.3622-20 10 20 10 20-10z" style="fill:#f9f9f9" class="topSideSmall-bb">
        <title>Top</title>
      </path>
      <path id="path-98" style="fill:#ececec" d="m30 22.362v25l20-10v-25z" class="leftSideSmall-bb">
        <title>Left</title>
      </path>
      <path id="path-99" d="m30 22.362v25l-20-10v-25z" style="fill:#cccccc" class="rightSideSmall-bb">
        <title>Right</title>
      </path>
      <path id="path-100" d="m30 2.375-20 10v25l20 10 20-10v-25l-20-10z" style="stroke: rgb(77, 77, 77); stroke-width: 1px; fill: none;" class="outlineSmall-bb">
        <title>Outline</title>
      </path>
    </g>
    <g id="g-26" transform="matrix(0.431818, 0, 0, 0.425055, 95.681816, 198.995911)" class="buildingBlockSm">
      <title>BlockSmall</title>
      <path id="path-101" d="m30 2.3622-20 10 20 10 20-10z" style="fill:#f9f9f9" class="topSideSmall-bb">
        <title>Top</title>
      </path>
      <path id="path-102" style="fill:#ececec" d="m30 22.362v25l20-10v-25z" class="leftSideSmall-bb">
        <title>Left</title>
      </path>
      <path id="path-103" d="m30 22.362v25l-20-10v-25z" style="fill:#cccccc" class="rightSideSmall-bb">
        <title>Right</title>
      </path>
      <path id="path-104" d="m30 2.375-20 10v25l20 10 20-10v-25l-20-10z" style="stroke: rgb(77, 77, 77); stroke-width: 1px; fill: none;" class="outlineSmall-bb">
        <title>Outline</title>
      </path>
    </g>
  </g>
  <path d="M 57.124 204.014 L 57.124 194.414 L 60.674 194.414 C 62.214 194.414 63.401 194.807 64.234 195.594 C 65.061 196.381 65.474 197.587 65.474 199.214 C 65.474 200.834 65.061 202.041 64.234 202.834 C 63.401 203.621 62.214 204.014 60.674 204.014 L 57.124 204.014 Z M 58.454 202.854 L 60.674 202.854 C 61.787 202.854 62.634 202.574 63.214 202.014 C 63.801 201.454 64.097 200.531 64.104 199.244 L 64.104 199.214 C 64.104 197.914 63.814 196.984 63.234 196.424 C 62.647 195.857 61.794 195.574 60.674 195.574 L 58.454 195.574 L 58.454 202.854 Z M 68.232 204.014 L 68.232 194.414 L 73.222 194.414 C 74.189 194.414 74.929 194.661 75.442 195.154 C 75.955 195.647 76.212 196.311 76.212 197.144 C 76.212 197.797 76.055 198.361 75.742 198.834 C 75.429 199.307 74.995 199.647 74.442 199.854 L 76.652 204.014 L 75.172 204.014 L 73.082 200.054 L 69.562 200.054 L 69.562 204.014 L 68.232 204.014 Z M 69.562 198.894 L 73.152 198.894 C 73.679 198.894 74.095 198.737 74.402 198.424 C 74.709 198.117 74.862 197.694 74.862 197.154 C 74.862 196.647 74.719 196.257 74.432 195.984 C 74.139 195.711 73.712 195.574 73.152 195.574 L 69.562 195.574 L 69.562 198.894 Z M 79.52 204.014 L 79.52 194.414 L 80.85 194.414 L 80.85 204.014 L 79.52 204.014 Z M 86.912 204.014 L 83.342 194.414 L 84.792 194.414 L 87.322 201.394 L 87.802 202.684 L 87.872 202.684 L 88.342 201.364 L 90.862 194.414 L 92.232 194.414 L 88.662 204.014 L 86.912 204.014 Z M 94.57 204.014 L 94.57 194.414 L 101.96 194.414 L 101.96 195.574 L 95.9 195.574 L 95.9 198.524 L 101.34 198.524 L 101.34 199.684 L 95.9 199.684 L 95.9 202.854 L 102.04 202.854 L 102.04 204.014 L 94.57 204.014 Z" style="fill: none; stroke: rgb(255, 255, 255); stroke-width: 2px; text-transform: uppercase; white-space: pre;" class="driveText-bb">
    <title>Drive</title>
  </path>
  <g transform="matrix(1.08277, 0, 0, 1.08277, -119.943146, 50.587494)">
    <title>researchBlocks</title>
    <g id="g-27" transform="matrix(-0.665392, 0, 0, 0.654969, 273.50946, 204.527847)" class="buildingBlockSm" style="">
      <title>BlockSmall</title>
      <path id="path-105" d="m30 2.3622-20 10 20 10 20-10z" style="fill:#f9f9f9" class="topSideSmall-bb">
        <title>Top</title>
      </path>
      <path id="path-106" style="fill:#ececec" d="m30 22.362v25l20-10v-25z" class="leftSideSmall-bb">
        <title>Left</title>
      </path>
      <path id="path-107" d="m30 22.362v25l-20-10v-25z" style="fill:#cccccc" class="rightSideSmall-bb">
        <title>Right</title>
      </path>
      <path id="path-108" d="m30 2.375-20 10v25l20 10 20-10v-25l-20-10z" style="stroke: rgb(77, 77, 77); stroke-width: 1px; fill: none;" class="outlineSmall-bb">
        <title>Outline</title>
      </path>
    </g>
    <g id="g-28" transform="matrix(-0.665392, 0, 0, 0.654969, 273.50946, 190.010178)" class="buildingBlockSm" style="">
      <title>BlockSmall</title>
      <path id="path-109" d="m30 2.3622-20 10 20 10 20-10z" style="fill:#f9f9f9" class="topSideSmall-bb">
        <title>Top</title>
      </path>
      <path id="path-110" style="fill:#ececec" d="m30 22.362v25l20-10v-25z" class="leftSideSmall-bb">
        <title>Left</title>
      </path>
      <path id="path-111" d="m30 22.362v25l-20-10v-25z" style="fill:#cccccc" class="rightSideSmall-bb">
        <title>Right</title>
      </path>
      <path id="path-112" d="m30 2.375-20 10v25l20 10 20-10v-25l-20-10z" style="stroke: rgb(77, 77, 77); stroke-width: 1px; fill: none;" class="outlineSmall-bb">
        <title>Outline</title>
      </path>
    </g>
    <g id="g-29" transform="matrix(-0.635147, 0, 0, 0.625196, 248.740784, 205.685379)" class="buildingBlockSm" style="">
      <title>BlockSmall</title>
      <path id="path-113" d="m30 2.3622-20 10 20 10 20-10z" style="fill:#f9f9f9" class="topSideSmall-bb">
        <title>Top</title>
      </path>
      <path id="path-114" style="fill:#ececec" d="m30 22.362v25l20-10v-25z" class="leftSideSmall-bb">
        <title>Left</title>
      </path>
      <path id="path-115" d="m30 22.362v25l-20-10v-25z" style="fill:#cccccc" class="rightSideSmall-bb">
        <title>Right</title>
      </path>
      <path id="path-116" d="m30 2.375-20 10v25l20 10 20-10v-25l-20-10z" style="stroke: rgb(77, 77, 77); stroke-width: 1px; fill: none;" class="outlineSmall-bb">
        <title>Outline</title>
      </path>
    </g>
    <g id="g-30" transform="matrix(-0.665392, 0, 0, 0.654969, 262.351074, 210.4543)" class="buildingBlockSm">
      <title>BlockSmall</title>
      <path id="path-117" d="m30 2.3622-20 10 20 10 20-10z" style="fill:#f9f9f9" class="topSideSmall-bb">
        <title>Top</title>
      </path>
      <path id="path-118" style="fill:#ececec" d="m30 22.362v25l20-10v-25z" class="leftSideSmall-bb">
        <title>Left</title>
      </path>
      <path id="path-119" d="m30 22.362v25l-20-10v-25z" style="fill:#cccccc" class="rightSideSmall-bb">
        <title>Right</title>
      </path>
      <path id="path-120" d="m30 2.375-20 10v25l20 10 20-10v-25l-20-10z" style="stroke: rgb(77, 77, 77); stroke-width: 1px; fill: none;" class="outlineSmall-bb">
        <title>Outline</title>
      </path>
    </g>
    <g id="g-31" transform="matrix(-0.665392, 0, 0, 0.654969, 257.744019, 193.639633)" class="buildingBlockSm">
      <title>BlockSmall</title>
      <path id="path-121" d="m30 2.3622-20 10 20 10 20-10z" style="fill:#f9f9f9" class="topSideSmall-bb">
        <title>Top</title>
      </path>
      <path id="path-122" style="fill:#ececec" d="m30 22.362v25l20-10v-25z" class="leftSideSmall-bb">
        <title>Left</title>
      </path>
      <path id="path-123" d="m30 22.362v25l-20-10v-25z" style="fill:#cccccc" class="rightSideSmall-bb">
        <title>Right</title>
      </path>
      <path id="path-124" d="m30 2.375-20 10v25l20 10 20-10v-25l-20-10z" style="stroke: rgb(77, 77, 77); stroke-width: 1px; fill: none;" class="outlineSmall-bb">
        <title>Outline</title>
      </path>
    </g>
  </g>
  <path d="M 34 293.77 L 34 284.17 L 38.99 284.17 C 39.957 284.17 40.697 284.417 41.21 284.91 C 41.723 285.403 41.98 286.067 41.98 286.9 C 41.98 287.553 41.823 288.117 41.51 288.59 C 41.197 289.063 40.763 289.403 40.21 289.61 L 42.42 293.77 L 40.94 293.77 L 38.85 289.81 L 35.33 289.81 L 35.33 293.77 L 34 293.77 Z M 35.33 288.65 L 38.92 288.65 C 39.447 288.65 39.863 288.493 40.17 288.18 C 40.477 287.873 40.63 287.45 40.63 286.91 C 40.63 286.403 40.487 286.013 40.2 285.74 C 39.907 285.467 39.48 285.33 38.92 285.33 L 35.33 285.33 L 35.33 288.65 Z M 44.108 293.77 L 44.108 284.17 L 51.498 284.17 L 51.498 285.33 L 45.438 285.33 L 45.438 288.28 L 50.878 288.28 L 50.878 289.44 L 45.438 289.44 L 45.438 292.61 L 51.578 292.61 L 51.578 293.77 L 44.108 293.77 Z M 56.986 293.94 C 55.819 293.94 54.866 293.707 54.126 293.24 C 53.393 292.773 53.026 292.043 53.026 291.05 L 53.036 290.77 L 54.356 290.77 C 54.356 290.783 54.349 290.817 54.336 290.87 C 54.329 290.93 54.326 290.997 54.326 291.07 C 54.326 291.637 54.559 292.067 55.026 292.36 C 55.499 292.653 56.129 292.8 56.916 292.8 C 57.789 292.8 58.459 292.663 58.926 292.39 C 59.393 292.117 59.626 291.723 59.626 291.21 C 59.626 290.863 59.506 290.577 59.266 290.35 C 59.026 290.117 58.719 289.937 58.346 289.81 C 57.979 289.677 57.483 289.53 56.856 289.37 C 56.083 289.177 55.459 288.99 54.986 288.81 C 54.506 288.623 54.099 288.35 53.766 287.99 C 53.426 287.637 53.256 287.163 53.256 286.57 C 53.256 285.73 53.606 285.093 54.306 284.66 C 55.006 284.22 55.903 284 56.996 284 C 58.089 284 58.976 284.22 59.656 284.66 C 60.336 285.107 60.676 285.787 60.676 286.7 L 60.676 286.87 L 59.376 286.87 L 59.376 286.66 C 59.376 286.18 59.159 285.807 58.726 285.54 C 58.293 285.267 57.729 285.13 57.036 285.13 C 56.303 285.13 55.713 285.243 55.266 285.47 C 54.826 285.69 54.606 286.027 54.606 286.48 C 54.606 286.807 54.726 287.07 54.966 287.27 C 55.199 287.477 55.493 287.643 55.846 287.77 C 56.193 287.897 56.679 288.04 57.306 288.2 C 58.079 288.393 58.713 288.583 59.206 288.77 C 59.693 288.957 60.106 289.23 60.446 289.59 C 60.786 289.95 60.956 290.42 60.956 291 C 60.956 292.027 60.599 292.773 59.886 293.24 C 59.173 293.707 58.206 293.94 56.986 293.94 Z M 62.784 293.77 L 62.784 284.17 L 70.174 284.17 L 70.174 285.33 L 64.114 285.33 L 64.114 288.28 L 69.554 288.28 L 69.554 289.44 L 64.114 289.44 L 64.114 292.61 L 70.254 292.61 L 70.254 293.77 L 62.784 293.77 Z M 71.112 293.77 L 74.832 284.17 L 76.532 284.17 L 80.252 293.77 L 78.842 293.77 L 77.872 291.21 L 73.422 291.21 L 72.482 293.77 L 71.112 293.77 Z M 73.852 290.05 L 77.442 290.05 L 76.322 287.05 L 75.672 285.31 L 75.602 285.31 L 74.972 287.02 L 73.852 290.05 Z M 81.46 293.77 L 81.46 284.17 L 86.45 284.17 C 87.417 284.17 88.157 284.417 88.67 284.91 C 89.183 285.403 89.44 286.067 89.44 286.9 C 89.44 287.553 89.283 288.117 88.97 288.59 C 88.657 289.063 88.223 289.403 87.67 289.61 L 89.88 293.77 L 88.4 293.77 L 86.31 289.81 L 82.79 289.81 L 82.79 293.77 L 81.46 293.77 Z M 82.79 288.65 L 86.38 288.65 C 86.907 288.65 87.323 288.493 87.63 288.18 C 87.937 287.873 88.09 287.45 88.09 286.91 C 88.09 286.403 87.947 286.013 87.66 285.74 C 87.367 285.467 86.94 285.33 86.38 285.33 L 82.79 285.33 L 82.79 288.65 Z M 95.788 293.94 C 94.241 293.94 93.075 293.527 92.288 292.7 C 91.508 291.873 91.118 290.63 91.118 288.97 C 91.118 287.31 91.508 286.067 92.288 285.24 C 93.075 284.413 94.241 284 95.788 284 C 97.041 284 98.045 284.31 98.798 284.93 C 99.545 285.55 99.918 286.453 99.918 287.64 L 98.568 287.64 C 98.568 286.82 98.321 286.197 97.828 285.77 C 97.341 285.343 96.661 285.13 95.788 285.13 C 94.661 285.13 93.831 285.43 93.298 286.03 C 92.765 286.623 92.495 287.593 92.488 288.94 L 92.488 288.97 C 92.488 290.323 92.755 291.3 93.288 291.9 C 93.821 292.5 94.655 292.8 95.788 292.8 C 96.675 292.8 97.368 292.59 97.868 292.17 C 98.368 291.75 98.618 291.137 98.618 290.33 L 99.918 290.33 C 99.918 291.523 99.545 292.423 98.798 293.03 C 98.051 293.637 97.048 293.94 95.788 293.94 Z M 101.676 293.77 L 101.676 284.17 L 103.006 284.17 L 103.006 288.28 L 108.236 288.28 L 108.236 284.17 L 109.566 284.17 L 109.566 293.77 L 108.236 293.77 L 108.236 289.44 L 103.006 289.44 L 103.006 293.77 L 101.676 293.77 Z" style="fill: none; stroke: rgb(255, 255, 255); text-transform: uppercase; white-space: pre; stroke-width: 2px;" class="researchText-bb">
    <title>Research</title>
  </path>
  <g transform="matrix(1.32626, 0, 0, 1.32626, -167.22818, -126.153854)">
    <title>dataBlocks</title>
    <g id="g-32" transform="matrix(-0.475, 0, 0, 0.46756, 462.75, 299.995544)" class="buildingBlockSm" style="">
      <title>BlockSmall</title>
      <path id="path-125" d="m30 2.3622-20 10 20 10 20-10z" style="fill:#f9f9f9" class="topSideSmall-bb">
        <title>Top</title>
      </path>
      <path id="path-126" style="fill:#ececec" d="m30 22.362v25l20-10v-25z" class="leftSideSmall-bb">
        <title>Left</title>
      </path>
      <path id="path-127" d="m30 22.362v25l-20-10v-25z" style="fill:#cccccc" class="rightSideSmall-bb">
        <title>Right</title>
      </path>
      <path id="path-128" d="m30 2.375-20 10v25l20 10 20-10v-25l-20-10z" style="stroke: rgb(77, 77, 77); stroke-width: 1px; fill: none;" class="outlineSmall-bb">
        <title>Outline</title>
      </path>
    </g>
    <g id="g-33" transform="matrix(-0.475, 0, 0, 0.46756, 462.75, 288.09552)" class="buildingBlockSm" style="">
      <title>BlockSmall</title>
      <path id="path-129" d="m30 2.3622-20 10 20 10 20-10z" style="fill:#f9f9f9" class="topSideSmall-bb">
        <title>Top</title>
      </path>
      <path id="path-130" style="fill:#ececec" d="m30 22.362v25l20-10v-25z" class="leftSideSmall-bb">
        <title>Left</title>
      </path>
      <path id="path-131" d="m30 22.362v25l-20-10v-25z" style="fill:#cccccc" class="rightSideSmall-bb">
        <title>Right</title>
      </path>
      <path id="path-132" d="m30 2.375-20 10v25l20 10 20-10v-25l-20-10z" style="stroke: rgb(77, 77, 77); stroke-width: 1px; fill: none;" class="outlineSmall-bb">
        <title>Outline</title>
      </path>
    </g>
    <g id="g-34" transform="matrix(-0.475, 0, 0, 0.46756, 481.450012, 299.59552)" class="buildingBlockSm" style="">
      <title>BlockSmall</title>
      <path id="path-133" d="m30 2.3622-20 10 20 10 20-10z" style="fill:#f9f9f9" class="topSideSmall-bb">
        <title>Top</title>
      </path>
      <path id="path-134" style="fill:#ececec" d="m30 22.362v25l20-10v-25z" class="leftSideSmall-bb">
        <title>Left</title>
      </path>
      <path id="path-135" d="m30 22.362v25l-20-10v-25z" style="fill:#cccccc" class="rightSideSmall-bb">
        <title>Right</title>
      </path>
      <path id="path-136" d="m30 2.375-20 10v25l20 10 20-10v-25l-20-10z" style="stroke: rgb(77, 77, 77); stroke-width: 1px; fill: none;" class="outlineSmall-bb">
        <title>Outline</title>
      </path>
    </g>
    <g id="g-35" transform="matrix(-0.475, 0, 0, 0.46756, 481.450012, 288.09552)" class="buildingBlockSm" style="">
      <title>BlockSmall</title>
      <path id="path-137" d="m30 2.3622-20 10 20 10 20-10z" style="fill:#f9f9f9" class="topSideSmall-bb">
        <title>Top</title>
      </path>
      <path id="path-138" style="fill:#ececec" d="m30 22.362v25l20-10v-25z" class="leftSideSmall-bb">
        <title>Left</title>
      </path>
      <path id="path-139" d="m30 22.362v25l-20-10v-25z" style="fill:#cccccc" class="rightSideSmall-bb">
        <title>Right</title>
      </path>
      <path id="path-140" d="m30 2.375-20 10v25l20 10 20-10v-25l-20-10z" style="stroke: rgb(77, 77, 77); stroke-width: 1px; fill: none;" class="outlineSmall-bb">
        <title>Outline</title>
      </path>
    </g>
    <g id="g-36" transform="matrix(-0.475, 0, 0, 0.46756, 472.25, 271.695526)" class="buildingBlockSm" style="">
      <title>BlockSmall</title>
      <path id="path-141" d="m30 2.3622-20 10 20 10 20-10z" style="fill:#f9f9f9" class="topSideSmall-bb">
        <title>Top</title>
      </path>
      <path id="path-142" style="fill:#ececec" d="m30 22.362v25l20-10v-25z" class="leftSideSmall-bb">
        <title>Left</title>
      </path>
      <path id="path-143" d="m30 22.362v25l-20-10v-25z" style="fill:#cccccc" class="rightSideSmall-bb">
        <title>Right</title>
      </path>
      <path id="path-144" d="m30 2.375-20 10v25l20 10 20-10v-25l-20-10z" style="stroke: rgb(77, 77, 77); stroke-width: 1px; fill: none;" class="outlineSmall-bb">
        <title>Outline</title>
      </path>
    </g>
    <g id="g-37" transform="matrix(-0.475, 0, 0, 0.46756, 472.25, 259.895538)" class="buildingBlockSm" style="">
      <title>BlockSmall</title>
      <path id="path-145" d="m30 2.3622-20 10 20 10 20-10z" style="fill:#f9f9f9" class="topSideSmall-bb">
        <title>Top</title>
      </path>
      <path id="path-146" style="fill:#ececec" d="m30 22.362v25l20-10v-25z" class="leftSideSmall-bb">
        <title>Left</title>
      </path>
      <path id="path-147" d="m30 22.362v25l-20-10v-25z" style="fill:#cccccc" class="rightSideSmall-bb">
        <title>Right</title>
      </path>
      <path id="path-148" d="m30 2.375-20 10v25l20 10 20-10v-25l-20-10z" style="stroke: rgb(77, 77, 77); stroke-width: 1px; fill: none;" class="outlineSmall-bb">
        <title>Outline</title>
      </path>
    </g>
    <g id="g-38" transform="matrix(-0.475, 0, 0, 0.46756, 481.450012, 276.295532)" class="buildingBlockSm" style="">
      <title>BlockSmall</title>
      <path id="path-149" d="m30 2.3622-20 10 20 10 20-10z" style="fill:#f9f9f9" class="topSideSmall-bb">
        <title>Top</title>
      </path>
      <path id="path-150" style="fill:#ececec" d="m30 22.362v25l20-10v-25z" class="leftSideSmall-bb">
        <title>Left</title>
      </path>
      <path id="path-151" d="m30 22.362v25l-20-10v-25z" style="fill:#cccccc" class="rightSideSmall-bb">
        <title>Right</title>
      </path>
      <path id="path-152" d="m30 2.375-20 10v25l20 10 20-10v-25l-20-10z" style="stroke: rgb(77, 77, 77); stroke-width: 1px; fill: none;" class="outlineSmall-bb">
        <title>Outline</title>
      </path>
    </g>
    <g id="g-39" transform="matrix(-0.475, 0, 0, 0.46756, 471.75, 304.395538)" class="buildingBlockSm" style="">
      <title>BlockSmall</title>
      <path id="path-153" d="m30 2.3622-20 10 20 10 20-10z" style="fill:#f9f9f9" class="topSideSmall-bb">
        <title>Top</title>
      </path>
      <path id="path-154" style="fill:#ececec" d="m30 22.362v25l20-10v-25z" class="leftSideSmall-bb">
        <title>Left</title>
      </path>
      <path id="path-155" d="m30 22.362v25l-20-10v-25z" style="fill:#cccccc" class="rightSideSmall-bb">
        <title>Right</title>
      </path>
      <path id="path-156" d="m30 2.375-20 10v25l20 10 20-10v-25l-20-10z" style="stroke: rgb(77, 77, 77); stroke-width: 1px; fill: none;" class="outlineSmall-bb">
        <title>Outline</title>
      </path>
    </g>
  </g>
  <path d="M 375 295.6 L 375 286 L 378.55 286 C 380.09 286 381.277 286.393 382.11 287.18 C 382.937 287.967 383.35 289.173 383.35 290.8 C 383.35 292.42 382.937 293.627 382.11 294.42 C 381.277 295.207 380.09 295.6 378.55 295.6 L 375 295.6 Z M 376.33 294.44 L 378.55 294.44 C 379.663 294.44 380.51 294.16 381.09 293.6 C 381.677 293.04 381.973 292.117 381.98 290.83 L 381.98 290.8 C 381.98 289.5 381.69 288.57 381.11 288.01 C 380.523 287.443 379.67 287.16 378.55 287.16 L 376.33 287.16 L 376.33 294.44 Z M 384.098 295.6 L 387.818 286 L 389.518 286 L 393.238 295.6 L 391.828 295.6 L 390.858 293.04 L 386.408 293.04 L 385.468 295.6 L 384.098 295.6 Z M 386.838 291.88 L 390.428 291.88 L 389.308 288.88 L 388.658 287.14 L 388.588 287.14 L 387.958 288.85 L 386.838 291.88 Z M 395.91 295.6 L 395.91 287.16 L 392.61 287.16 L 392.61 286 L 400.55 286 L 400.55 287.16 L 397.24 287.16 L 397.24 295.6 L 395.91 295.6 Z M 399.918 295.6 L 403.638 286 L 405.338 286 L 409.058 295.6 L 407.648 295.6 L 406.678 293.04 L 402.228 293.04 L 401.288 295.6 L 399.918 295.6 Z M 402.658 291.88 L 406.248 291.88 L 405.128 288.88 L 404.478 287.14 L 404.408 287.14 L 403.778 288.85 L 402.658 291.88 Z" style="fill: none; stroke: rgb(255, 255, 255); text-transform: uppercase; white-space: pre; stroke-width: 2px;" class="dataText-bb">
    <title>Data</title>
  </path>
  <g transform="matrix(1, 0, 0, 1, 111, 8.796875)">
    <title>Title</title>
    <line style="stroke: rgb(255, 255, 255);" x1="18" y1="41.203" x2="260" y2="41.203"/>
    <line style="stroke: rgb(255, 255, 255);" x1="18" y1="9.203" x2="260" y2="9.203"/>
    <path d="M 29.896 38.201 L 21.926 38.201 L 21.926 12.281 L 28.676 12.281 C 29.789 12.281 30.839 12.368 31.826 12.541 C 32.819 12.708 33.699 13.031 34.466 13.511 C 35.239 13.991 35.843 14.674 36.276 15.561 C 36.716 16.448 36.936 17.614 36.936 19.061 C 36.936 20.108 36.779 20.988 36.466 21.701 C 36.159 22.421 35.723 22.994 35.156 23.421 C 34.589 23.848 33.913 24.134 33.126 24.281 C 34.126 24.408 34.969 24.734 35.656 25.261 C 36.336 25.781 36.853 26.478 37.206 27.351 C 37.559 28.224 37.736 29.281 37.736 30.521 C 37.736 31.868 37.559 33.024 37.206 33.991 C 36.853 34.964 36.346 35.761 35.686 36.381 C 35.026 36.994 34.209 37.451 33.236 37.751 C 32.269 38.051 31.156 38.201 29.896 38.201 Z M 27.656 26.421 L 27.656 34.201 L 28.866 34.201 C 30.126 34.201 30.996 33.881 31.476 33.241 C 31.956 32.601 32.196 31.661 32.196 30.421 C 32.196 29.441 32.089 28.664 31.876 28.091 C 31.663 27.511 31.313 27.088 30.826 26.821 C 30.333 26.554 29.669 26.421 28.836 26.421 L 27.656 26.421 Z M 27.656 16.121 L 27.656 22.651 L 28.776 22.651 C 29.649 22.651 30.309 22.518 30.756 22.251 C 31.203 21.984 31.506 21.594 31.666 21.081 C 31.826 20.568 31.906 19.948 31.906 19.221 C 31.906 18.541 31.786 17.971 31.546 17.511 C 31.299 17.051 30.936 16.704 30.456 16.471 C 29.976 16.238 29.373 16.121 28.646 16.121 L 27.656 16.121 ZM 48.232 38.581 C 46.245 38.581 44.692 38.258 43.572 37.611 C 42.452 36.958 41.669 36.008 41.222 34.761 C 40.775 33.514 40.552 31.984 40.552 30.171 L 40.552 12.281 L 46.212 12.281 L 46.212 31.031 C 46.212 31.564 46.255 32.098 46.342 32.631 C 46.429 33.164 46.615 33.601 46.902 33.941 C 47.189 34.288 47.632 34.461 48.232 34.461 C 48.852 34.461 49.299 34.288 49.572 33.941 C 49.852 33.601 50.029 33.164 50.102 32.631 C 50.175 32.098 50.212 31.564 50.212 31.031 L 50.212 12.281 L 55.912 12.281 L 55.912 30.171 C 55.912 31.984 55.682 33.514 55.222 34.761 C 54.762 36.008 53.979 36.958 52.872 37.611 C 51.759 38.258 50.212 38.581 48.232 38.581 ZM 65.318 38.201 L 59.588 38.201 L 59.588 12.281 L 65.318 12.281 L 65.318 38.201 ZM 80.87 38.201 L 69.19 38.201 L 69.19 12.281 L 74.92 12.281 L 74.92 34.331 L 80.87 34.331 L 80.87 38.201 ZM 89.73 38.201 L 83.11 38.201 L 83.11 12.281 L 89.67 12.281 C 91.93 12.281 93.69 12.564 94.95 13.131 C 96.21 13.698 97.097 14.581 97.61 15.781 C 98.117 16.988 98.37 18.551 98.37 20.471 L 98.37 29.881 C 98.37 31.821 98.117 33.404 97.61 34.631 C 97.097 35.858 96.217 36.761 94.97 37.341 C 93.717 37.914 91.97 38.201 89.73 38.201 Z M 88.84 16.281 L 88.84 34.231 L 89.73 34.231 C 90.61 34.231 91.24 34.104 91.62 33.851 C 92.007 33.591 92.247 33.208 92.34 32.701 C 92.44 32.188 92.49 31.548 92.49 30.781 L 92.49 19.481 C 92.49 18.714 92.43 18.094 92.31 17.621 C 92.19 17.154 91.94 16.814 91.56 16.601 C 91.173 16.388 90.553 16.281 89.7 16.281 L 88.84 16.281 ZM 107.622 38.201 L 101.892 38.201 L 101.892 12.281 L 107.622 12.281 L 107.622 38.201 ZM 116.394 38.201 L 111.494 38.201 L 111.494 12.281 L 115.524 12.281 L 120.834 24.761 L 120.834 12.281 L 125.574 12.281 L 125.574 38.201 L 121.704 38.201 L 116.394 24.761 L 116.394 38.201 ZM 136.196 38.581 C 134.403 38.581 132.989 38.208 131.956 37.461 C 130.923 36.714 130.186 35.664 129.746 34.311 C 129.313 32.958 129.096 31.394 129.096 29.621 L 129.096 20.921 C 129.096 19.088 129.329 17.498 129.796 16.151 C 130.269 14.811 131.076 13.771 132.216 13.031 C 133.356 12.298 134.906 11.931 136.866 11.931 C 138.786 11.931 140.296 12.251 141.396 12.891 C 142.496 13.531 143.279 14.414 143.746 15.541 C 144.219 16.674 144.456 17.998 144.456 19.511 L 144.456 21.181 L 138.856 21.181 L 138.856 19.061 C 138.856 18.508 138.819 17.998 138.746 17.531 C 138.666 17.058 138.493 16.678 138.226 16.391 C 137.959 16.104 137.529 15.961 136.936 15.961 C 136.316 15.961 135.866 16.128 135.586 16.461 C 135.313 16.788 135.139 17.198 135.066 17.691 C 134.986 18.178 134.946 18.688 134.946 19.221 L 134.946 31.221 C 134.946 31.801 135.006 32.341 135.126 32.841 C 135.246 33.341 135.459 33.748 135.766 34.061 C 136.073 34.368 136.516 34.521 137.096 34.521 C 137.689 34.521 138.146 34.361 138.466 34.041 C 138.786 33.721 139.013 33.304 139.146 32.791 C 139.273 32.278 139.336 31.734 139.336 31.161 L 139.336 28.121 L 136.996 28.121 L 136.996 24.761 L 144.486 24.761 L 144.486 38.201 L 140.706 38.201 L 140.386 36.061 C 140.046 36.781 139.546 37.381 138.886 37.861 C 138.226 38.341 137.329 38.581 136.196 38.581 ZM 164.232 38.201 L 156.262 38.201 L 156.262 12.281 L 163.012 12.281 C 164.125 12.281 165.175 12.368 166.162 12.541 C 167.155 12.708 168.035 13.031 168.802 13.511 C 169.575 13.991 170.179 14.674 170.612 15.561 C 171.052 16.448 171.272 17.614 171.272 19.061 C 171.272 20.108 171.115 20.988 170.802 21.701 C 170.495 22.421 170.059 22.994 169.492 23.421 C 168.925 23.848 168.249 24.134 167.462 24.281 C 168.462 24.408 169.305 24.734 169.992 25.261 C 170.672 25.781 171.189 26.478 171.542 27.351 C 171.895 28.224 172.072 29.281 172.072 30.521 C 172.072 31.868 171.895 33.024 171.542 33.991 C 171.189 34.964 170.682 35.761 170.022 36.381 C 169.362 36.994 168.545 37.451 167.572 37.751 C 166.605 38.051 165.492 38.201 164.232 38.201 Z M 161.992 26.421 L 161.992 34.201 L 163.202 34.201 C 164.462 34.201 165.332 33.881 165.812 33.241 C 166.292 32.601 166.532 31.661 166.532 30.421 C 166.532 29.441 166.425 28.664 166.212 28.091 C 165.999 27.511 165.649 27.088 165.162 26.821 C 164.669 26.554 164.005 26.421 163.172 26.421 L 161.992 26.421 Z M 161.992 16.121 L 161.992 22.651 L 163.112 22.651 C 163.985 22.651 164.645 22.518 165.092 22.251 C 165.539 21.984 165.842 21.594 166.002 21.081 C 166.162 20.568 166.242 19.948 166.242 19.221 C 166.242 18.541 166.122 17.971 165.882 17.511 C 165.635 17.051 165.272 16.704 164.792 16.471 C 164.312 16.238 163.709 16.121 162.982 16.121 L 161.992 16.121 ZM 186.758 38.201 L 175.078 38.201 L 175.078 12.281 L 180.808 12.281 L 180.808 34.331 L 186.758 34.331 L 186.758 38.201 ZM 196.258 38.581 C 194.318 38.581 192.785 38.241 191.658 37.561 C 190.525 36.881 189.711 35.901 189.218 34.621 C 188.731 33.341 188.488 31.814 188.488 30.041 L 188.488 20.411 C 188.488 18.618 188.731 17.091 189.218 15.831 C 189.711 14.571 190.525 13.608 191.658 12.941 C 192.785 12.268 194.318 11.931 196.258 11.931 C 198.225 11.931 199.778 12.268 200.918 12.941 C 202.058 13.608 202.875 14.571 203.368 15.831 C 203.855 17.091 204.098 18.618 204.098 20.411 L 204.098 30.041 C 204.098 31.814 203.855 33.341 203.368 34.621 C 202.875 35.901 202.058 36.881 200.918 37.561 C 199.778 38.241 198.225 38.581 196.258 38.581 Z M 196.258 34.521 C 196.858 34.521 197.298 34.371 197.578 34.071 C 197.851 33.771 198.031 33.388 198.118 32.921 C 198.205 32.454 198.248 31.974 198.248 31.481 L 198.248 19.001 C 198.248 18.488 198.205 18.001 198.118 17.541 C 198.031 17.088 197.851 16.711 197.578 16.411 C 197.298 16.111 196.858 15.961 196.258 15.961 C 195.705 15.961 195.291 16.111 195.018 16.411 C 194.738 16.711 194.555 17.088 194.468 17.541 C 194.381 18.001 194.338 18.488 194.338 19.001 L 194.338 31.481 C 194.338 31.974 194.378 32.454 194.458 32.921 C 194.531 33.388 194.701 33.771 194.968 34.071 C 195.235 34.371 195.665 34.521 196.258 34.521 ZM 215.01 38.581 C 213.05 38.581 211.5 38.224 210.36 37.511 C 209.22 36.798 208.413 35.794 207.94 34.501 C 207.473 33.214 207.24 31.694 207.24 29.941 L 207.24 20.601 C 207.24 18.808 207.473 17.268 207.94 15.981 C 208.413 14.688 209.22 13.688 210.36 12.981 C 211.5 12.281 213.05 11.931 215.01 11.931 C 216.93 11.931 218.43 12.244 219.51 12.871 C 220.59 13.504 221.353 14.384 221.8 15.511 C 222.247 16.644 222.47 17.948 222.47 19.421 L 222.47 21.661 L 216.87 21.661 L 216.87 19.061 C 216.87 18.554 216.843 18.064 216.79 17.591 C 216.737 17.124 216.583 16.734 216.33 16.421 C 216.07 16.114 215.63 15.961 215.01 15.961 C 214.417 15.961 213.977 16.121 213.69 16.441 C 213.397 16.761 213.213 17.161 213.14 17.641 C 213.067 18.121 213.03 18.628 213.03 19.161 L 213.03 31.351 C 213.03 31.931 213.077 32.461 213.17 32.941 C 213.27 33.421 213.463 33.804 213.75 34.091 C 214.037 34.378 214.457 34.521 215.01 34.521 C 215.61 34.521 216.037 34.368 216.29 34.061 C 216.55 33.748 216.71 33.348 216.77 32.861 C 216.837 32.368 216.87 31.864 216.87 31.351 L 216.87 28.631 L 222.47 28.631 L 222.47 30.871 C 222.47 32.344 222.25 33.661 221.81 34.821 C 221.377 35.988 220.62 36.908 219.54 37.581 C 218.467 38.248 216.957 38.581 215.01 38.581 ZM 231.336 38.201 L 225.606 38.201 L 225.606 12.281 L 231.336 12.281 L 231.336 22.871 L 235.686 12.281 L 241.286 12.281 L 236.486 23.991 L 241.506 38.201 L 235.686 38.201 L 231.946 26.741 L 231.336 27.771 L 231.336 38.201 ZM 250.086 38.581 C 248.466 38.581 247.113 38.294 246.026 37.721 C 244.933 37.148 244.109 36.258 243.556 35.051 C 243.003 33.844 242.693 32.281 242.626 30.361 L 247.526 29.621 C 247.546 30.734 247.646 31.631 247.826 32.311 C 248.013 32.998 248.269 33.488 248.596 33.781 C 248.929 34.081 249.329 34.231 249.796 34.231 C 250.396 34.231 250.786 34.028 250.966 33.621 C 251.146 33.221 251.236 32.794 251.236 32.341 C 251.236 31.274 250.979 30.374 250.466 29.641 C 249.959 28.908 249.266 28.168 248.386 27.421 L 246.146 25.461 C 245.166 24.634 244.339 23.691 243.666 22.631 C 242.999 21.578 242.666 20.271 242.666 18.711 C 242.666 16.518 243.316 14.838 244.616 13.671 C 245.916 12.511 247.686 11.931 249.926 11.931 C 251.313 11.931 252.426 12.164 253.266 12.631 C 254.113 13.104 254.753 13.718 255.186 14.471 C 255.626 15.231 255.926 16.031 256.086 16.871 C 256.246 17.718 256.336 18.524 256.356 19.291 L 251.426 19.901 C 251.406 19.128 251.359 18.461 251.286 17.901 C 251.213 17.334 251.059 16.894 250.826 16.581 C 250.586 16.274 250.223 16.121 249.736 16.121 C 249.203 16.121 248.813 16.344 248.566 16.791 C 248.319 17.238 248.196 17.688 248.196 18.141 C 248.196 19.101 248.426 19.884 248.886 20.491 C 249.346 21.098 249.949 21.731 250.696 22.391 L 252.836 24.281 C 253.969 25.241 254.926 26.328 255.706 27.541 C 256.479 28.761 256.866 30.268 256.866 32.061 C 256.866 33.274 256.589 34.378 256.036 35.371 C 255.483 36.364 254.699 37.148 253.686 37.721 C 252.673 38.294 251.473 38.581 250.086 38.581 Z" transform="matrix(1, 0, 0, 1, 0, 0)" style="fill: none; stroke: rgb(255, 255, 255); stroke-width: 2px; text-transform: uppercase; white-space: pre;"/>
  </g>
  <g transform="matrix(1, 0, 0, 1, 0, -117)">
    <title>Measurements</title>
    <line style="stroke: rgb(255, 255, 255);" x1="195.5" y1="201" x2="174" y2="201"/>
    <line style="stroke: rgb(255, 255, 255);" x1="195.481" y1="263" x2="174" y2="263.116"/>
    <path d="M 69.408 115.984 H 90.408 L 89.408 114.484 L 93.408 116.484 L 89.408 118.484 L 90.408 116.984 H 69.408 V 115.984 Z" style="stroke: rgb(255, 255, 255); fill: none;" transform="matrix(-0.000045, -1, 1, -0.000045, 67.825226, 296.46817)"/>
    <path d="M -69.408 -110.984 H -48.408 L -49.408 -112.484 L -45.408 -110.484 L -49.408 -108.484 L -48.408 -109.984 H -69.408 V -110.984 Z" style="stroke: rgb(255, 255, 255); fill: none;" transform="matrix(0.000045, 1, -1, 0.000045, 73.824142, 307.467896)"/>
    <line style="stroke: rgb(255, 255, 255);" x1="113" y1="199" x2="94" y2="199"/>
    <line style="stroke: rgb(255, 255, 255);" x1="65" y1="255" x2="113" y2="255"/>
    <path d="M 57.84 96.57 H 74.84 L 73.84 95.07 L 77.84 97.07 L 73.84 99.07 L 74.84 97.57 H 57.84 V 96.57 Z" style="stroke: rgb(255, 255, 255); fill: none;" transform="matrix(-0.000045, -1, 1, -0.000045, 5.433511, 277.844482)"/>
    <path d="M -57.84 -92.57 H -40.84 L -41.84 -94.07 L -37.84 -92.07 L -41.84 -90.07 L -40.84 -91.57 H -57.84 V -92.57 Z" style="stroke: rgb(255, 255, 255); fill: none;" transform="matrix(0.000045, 1, -1, 0.000045, 10.432611, 291.844269)"/>
    <line style="stroke: rgb(255, 255, 255);" x1="26" y1="183" x2="26" y2="162"/>
    <line style="stroke: rgb(255, 255, 255);" x1="89.457" y1="183.574" x2="89.457" y2="149.574"/>
    <path d="M 57.84 96.57 H 74.84 L 73.84 95.07 L 77.84 97.07 L 73.84 99.07 L 74.84 97.57 H 57.84 V 96.57 Z" style="stroke: rgb(255, 255, 255); fill: none;" transform="matrix(1, -0.000045, 0.000045, 1, 10.155752, 77.433502)"/>
    <path d="M -57.84 -92.57 H -40.84 L -41.84 -94.07 L -37.84 -92.07 L -41.84 -90.07 L -40.84 -91.57 H -57.84 V -92.57 Z" style="stroke: rgb(255, 255, 255); fill: none;" transform="matrix(-1, 0.000045, -0.000045, -1, -11.011961, 82.432602)"/>
    <line style="stroke: rgb(255, 255, 255);" x1="58" y1="170" x2="58" y2="149"/>
    <path d="M 46.272 77.156 H 59.272 L 58.272 75.656 L 62.272 77.656 L 58.272 79.656 L 59.272 78.156 H 46.272 V 77.156 Z" style="stroke: rgb(255, 255, 255); fill: none;" transform="matrix(1, -0.000045, 0.000045, 1, -5.275396, 79.346985)"/>
    <path d="M 46.272 77.156 H 59.272 L 58.272 75.656 L 62.272 77.656 L 58.272 79.656 L 59.272 78.156 H 46.272 V 77.156 Z" style="stroke: rgb(255, 255, 255); fill: none;" transform="matrix(-1, 0.000045, -0.000045, -1, 152.251984, 234.653931)"/>
  </g>
  <a xmlns="http://www.w3.org/2000/svg" id="anchor" xlink:href="/about.html" xmlns:xlink="http://www.w3.org/1999/xlink" target="_top">
    <rect x="0" y="0" width="100%" height="100%" fill-opacity="0"/>
</a>
</svg>
