<?xml version="1.0" encoding="utf-8"?>
<svg viewBox="0 0 190 65" xmlns="http://www.w3.org/2000/svg">
  <defs>
    <linearGradient id="gradient-10" gradientUnits="userSpaceOnUse" x1="256.352" y1="269.063" x2="256.352" y2="292.313" spreadMethod="reflect" gradientTransform="matrix(0.894241, 0.458562, -0.222902, 0.417913, 90.308666, 46.184916)">
      <stop offset="0" style="stop-color: rgba(29, 140, 237, 1)"/>
      <stop offset="1" style="stop-color: rgb(242, 152, 62);"/>
    </linearGradient>
    <linearGradient id="gradient-0" gradientUnits="userSpaceOnUse" x1="123.886" y1="83.938" x2="123.886" y2="147.938" gradientTransform="matrix(0.85548, -0.623808, 0.631368, 0.635448, -34.879796, 145.60027)" spreadMethod="pad">
      <stop offset="0" style="stop-color: rgb(253, 250, 160);"/>
      <stop offset="1" style="stop-color: rgba(237, 250, 198, 0);"/>
    </linearGradient>
    <linearGradient id="gradient-6" gradientUnits="userSpaceOnUse" x1="106.514" y1="143.479" x2="106.514" y2="181.344" gradientTransform="matrix(0.924359, -0.456978, 0.868569, 0.621148, -118.962866, 120.616855)">
      <stop offset="0" style="stop-color: rgba(253, 250, 160, 1)"/>
      <stop offset="1" style="stop-color: rgba(251, 245, 60, 0);"/>
    </linearGradient>
    <linearGradient id="gradient-2" gradientUnits="userSpaceOnUse" x1="123.886" y1="83.938" x2="123.886" y2="147.938" gradientTransform="matrix(0.860845, -0.617923, 0.536596, 0.554983, -20.176302, 151.70529)" spreadMethod="pad">
      <stop offset="0" style="stop-color: rgb(254, 220, 52);"/>
      <stop offset="1" style="stop-color: rgba(237, 250, 198, 0);"/>
    </linearGradient>
    <linearGradient id="gradient-4" gradientUnits="userSpaceOnUse" x1="179.053" y1="130.566" x2="179.053" y2="168.431" gradientTransform="matrix(0.907193, -0.483219, 0.720479, 0.697637, -78.624825, 139.374908)">
      <stop offset="0" style="stop-color: rgb(254, 220, 52);"/>
      <stop offset="1" style="stop-color: rgba(203, 196, 4, 0);"/>
    </linearGradient>
    <linearGradient id="gradient-8" gradientUnits="userSpaceOnUse" x1="123.886" y1="83.938" x2="123.886" y2="147.938" gradientTransform="matrix(0.90895, -0.586165, 0.429804, 0.378717, -21.427074, 163.681609)">
      <stop offset="0" style="stop-color: rgba(249, 186, 26, 1)"/>
      <stop offset="1" style="stop-color: rgba(253, 171, 6, 0.62);"/>
    </linearGradient>
    <linearGradient id="gradient-7" gradientUnits="userSpaceOnUse" x1="183.931" y1="133.83" x2="183.931" y2="168.645" gradientTransform="matrix(0.579951, -0.458981, 0.946034, 0.457703, -54.981897, 172.172243)">
      <stop offset="0" style="stop-color: rgba(249, 186, 26, 1)"/>
      <stop offset="1" style="stop-color: rgba(251, 200, 71, 0.13);"/>
    </linearGradient>
    <linearGradient id="gradient-3" gradientUnits="userSpaceOnUse" x1="123.886" y1="83.938" x2="123.886" y2="147.938" gradientTransform="matrix(0.81104, -0.693222, 0.424436, 0.367128, -0.394673, 187.093368)" spreadMethod="pad">
      <stop offset="0" style="stop-color: rgb(242, 152, 62);"/>
      <stop offset="1" style="stop-color: rgba(237, 250, 198, 0);"/>
    </linearGradient>
    <linearGradient id="gradient-5" gradientUnits="userSpaceOnUse" x1="179.053" y1="130.566" x2="179.053" y2="168.431" gradientTransform="matrix(0.857087, -0.531374, 0.692844, 0.537228, -64.656014, 175.045329)">
      <stop offset="0" style="stop-color: rgba(242, 152, 62, 1)"/>
      <stop offset="1" style="stop-color: rgba(189, 101, 13, 0);"/>
    </linearGradient>
    <linearGradient id="gradient-1" gradientUnits="userSpaceOnUse" x1="123.886" y1="83.938" x2="123.886" y2="147.938" gradientTransform="matrix(0.88313, -0.566363, 0.311609, 0.339848, 5.704384, 174.980381)" spreadMethod="pad">
      <stop offset="0" style="stop-color: rgb(229, 77, 26);"/>
      <stop offset="1" style="stop-color: rgba(237, 250, 198, 0);"/>
    </linearGradient>
    <linearGradient id="gradient-9" gradientUnits="userSpaceOnUse" x1="277.722" y1="140.029" x2="277.722" y2="177.894" gradientTransform="matrix(0.713522, -0.701842, 0.554302, 0.564965, 4.266005, 274.35903)">
      <stop offset="0" style="stop-color: rgba(229, 77, 26, 1)"/>
      <stop offset="1" style="stop-color: rgba(137, 46, 16, 0);"/>
    </linearGradient>
  </defs>
  <g transform="matrix(2.474948, 0, 0, 2.415705, -570.739197, -662.711426)" style="">
    <desc>Logo, sun in lower left corner one orange ray touches the letter B and infuses color to the blue lettering. On the right of the sun you have the text of the company name in blue as Larger B smaller word right, larger D smaller ay and on the second line TECH</desc>
    <title>Company Logo</title>
    <path d="M 256.597 287.756 L 252.937 287.756 L 252.937 275.036 L 256.057 275.036 C 256.624 275.036 257.134 275.089 257.587 275.196 C 258.047 275.303 258.44 275.479 258.767 275.726 C 259.094 275.966 259.347 276.296 259.527 276.716 C 259.707 277.136 259.797 277.666 259.797 278.306 C 259.797 278.819 259.727 279.259 259.587 279.626 C 259.44 279.993 259.234 280.283 258.967 280.496 C 258.694 280.709 258.354 280.853 257.947 280.926 C 258.447 281.013 258.86 281.189 259.187 281.456 C 259.52 281.723 259.767 282.069 259.927 282.496 C 260.094 282.923 260.177 283.439 260.177 284.046 C 260.177 284.659 260.1 285.196 259.947 285.656 C 259.794 286.123 259.567 286.513 259.267 286.826 C 258.974 287.133 258.604 287.363 258.157 287.516 C 257.71 287.676 257.19 287.756 256.597 287.756 Z M 255.257 281.836 L 255.257 286.126 L 256.137 286.126 C 256.837 286.126 257.314 285.956 257.567 285.616 C 257.82 285.276 257.947 284.749 257.947 284.036 C 257.947 283.523 257.887 283.106 257.767 282.786 C 257.64 282.466 257.44 282.229 257.167 282.076 C 256.887 281.916 256.517 281.836 256.057 281.836 L 255.257 281.836 Z M 255.257 276.656 L 255.257 280.236 L 256.047 280.236 C 256.507 280.236 256.86 280.169 257.107 280.036 C 257.36 279.896 257.537 279.686 257.637 279.406 C 257.737 279.119 257.787 278.763 257.787 278.336 C 257.787 277.883 257.71 277.536 257.557 277.296 C 257.404 277.049 257.177 276.879 256.877 276.786 C 256.57 276.699 256.184 276.656 255.717 276.656 L 255.257 276.656 Z" transform="matrix(1, 0, 0, 1, 0, 0)" style="fill: url(#gradient-10); line-height: 43.0516px; white-space: pre;"/>
    <path d="M 263.39 286.426 L 261.6 286.426 L 261.6 278.796 L 263.39 278.796 L 263.39 279.976 C 263.657 279.523 263.92 279.199 264.18 279.006 C 264.447 278.806 264.737 278.706 265.05 278.706 C 265.103 278.706 265.15 278.706 265.19 278.706 C 265.23 278.713 265.277 278.719 265.33 278.726 L 265.33 280.596 C 265.223 280.549 265.107 280.509 264.98 280.476 C 264.853 280.449 264.723 280.436 264.59 280.436 C 264.357 280.436 264.143 280.493 263.95 280.606 C 263.757 280.719 263.57 280.909 263.39 281.176 L 263.39 286.426 ZM 268.06 286.426 L 266.27 286.426 L 266.27 278.796 L 268.06 278.796 L 268.06 286.426 Z M 268.06 277.586 L 266.27 277.586 L 266.27 276.086 L 268.06 276.086 L 268.06 277.586 ZM 271.733 288.936 C 271.213 288.936 270.756 288.883 270.363 288.776 C 269.963 288.669 269.653 288.506 269.433 288.286 C 269.213 288.066 269.103 287.779 269.103 287.426 C 269.103 287.193 269.156 286.979 269.263 286.786 C 269.363 286.599 269.5 286.436 269.673 286.296 C 269.853 286.156 270.043 286.036 270.243 285.936 C 269.95 285.856 269.726 285.729 269.573 285.556 C 269.42 285.376 269.343 285.166 269.343 284.926 C 269.343 284.626 269.42 284.369 269.573 284.156 C 269.72 283.943 269.926 283.719 270.193 283.486 C 269.92 283.266 269.713 282.989 269.573 282.656 C 269.44 282.329 269.373 281.896 269.373 281.356 C 269.373 280.776 269.466 280.286 269.653 279.886 C 269.846 279.486 270.123 279.186 270.483 278.986 C 270.85 278.779 271.296 278.676 271.823 278.676 C 272.23 278.676 272.57 278.736 272.843 278.856 C 273.116 278.976 273.34 279.153 273.513 279.386 C 273.586 279.286 273.71 279.156 273.883 278.996 C 274.063 278.836 274.266 278.703 274.493 278.596 L 274.733 278.496 L 275.163 279.456 C 275.07 279.483 274.94 279.526 274.773 279.586 C 274.613 279.646 274.453 279.713 274.293 279.786 C 274.133 279.859 274.01 279.923 273.923 279.976 C 274.003 280.149 274.07 280.369 274.123 280.636 C 274.176 280.896 274.203 281.146 274.203 281.386 C 274.203 281.919 274.12 282.386 273.953 282.786 C 273.786 283.179 273.53 283.483 273.183 283.696 C 272.83 283.916 272.376 284.026 271.823 284.026 C 271.643 284.026 271.463 284.009 271.283 283.976 C 271.11 283.949 270.946 283.913 270.793 283.866 C 270.74 283.946 270.69 284.029 270.643 284.116 C 270.596 284.203 270.573 284.296 270.573 284.396 C 270.573 284.489 270.626 284.566 270.733 284.626 C 270.84 284.693 271.016 284.739 271.263 284.766 L 272.873 284.926 C 273.493 284.986 273.953 285.179 274.253 285.506 C 274.553 285.839 274.703 286.286 274.703 286.846 C 274.703 287.306 274.6 287.689 274.393 287.996 C 274.186 288.303 273.866 288.536 273.433 288.696 C 272.993 288.856 272.426 288.936 271.733 288.936 Z M 271.933 287.586 C 272.426 287.586 272.796 287.539 273.043 287.446 C 273.29 287.346 273.413 287.169 273.413 286.916 C 273.413 286.776 273.38 286.663 273.313 286.576 C 273.253 286.483 273.143 286.409 272.983 286.356 C 272.83 286.296 272.606 286.253 272.313 286.226 L 271.003 286.106 C 270.91 286.186 270.826 286.269 270.753 286.356 C 270.673 286.436 270.613 286.526 270.573 286.626 C 270.526 286.719 270.503 286.819 270.503 286.926 C 270.503 287.146 270.61 287.313 270.823 287.426 C 271.036 287.533 271.406 287.586 271.933 287.586 Z M 271.823 282.876 C 271.983 282.876 272.113 282.846 272.213 282.786 C 272.306 282.733 272.38 282.643 272.433 282.516 C 272.486 282.383 272.523 282.219 272.543 282.026 C 272.556 281.833 272.563 281.609 272.563 281.356 C 272.563 281.103 272.556 280.879 272.543 280.686 C 272.523 280.493 272.49 280.329 272.443 280.196 C 272.39 280.063 272.316 279.966 272.223 279.906 C 272.123 279.846 271.99 279.816 271.823 279.816 C 271.67 279.816 271.54 279.846 271.433 279.906 C 271.333 279.966 271.26 280.059 271.213 280.186 C 271.166 280.313 271.13 280.473 271.103 280.666 C 271.083 280.866 271.073 281.096 271.073 281.356 C 271.073 281.603 271.083 281.819 271.103 282.006 C 271.116 282.199 271.15 282.359 271.203 282.486 C 271.256 282.613 271.333 282.709 271.433 282.776 C 271.54 282.843 271.67 282.876 271.823 282.876 ZM 277.504 286.426 L 275.704 286.426 L 275.704 275.736 L 277.504 275.736 L 277.504 279.526 C 277.764 279.259 278.05 279.053 278.364 278.906 C 278.677 278.753 279.02 278.676 279.394 278.676 C 279.7 278.676 279.944 278.753 280.124 278.906 C 280.31 279.059 280.447 279.266 280.534 279.526 C 280.627 279.779 280.674 280.056 280.674 280.356 L 280.674 286.426 L 278.874 286.426 L 278.874 280.706 C 278.874 280.479 278.84 280.306 278.774 280.186 C 278.7 280.059 278.564 279.996 278.364 279.996 C 278.237 279.996 278.097 280.033 277.944 280.106 C 277.79 280.173 277.644 280.263 277.504 280.376 L 277.504 286.426 ZM 284.193 286.516 C 283.706 286.516 283.326 286.436 283.053 286.276 C 282.773 286.123 282.576 285.896 282.463 285.596 C 282.35 285.296 282.293 284.939 282.293 284.526 L 282.293 279.986 L 281.523 279.986 L 281.523 278.796 L 282.293 278.796 L 282.293 276.516 L 284.103 276.516 L 284.103 278.796 L 285.263 278.796 L 285.263 279.986 L 284.103 279.986 L 284.103 284.366 C 284.103 284.633 284.16 284.819 284.273 284.926 C 284.386 285.039 284.556 285.096 284.783 285.096 C 284.883 285.096 284.98 285.089 285.073 285.076 C 285.166 285.069 285.256 285.063 285.343 285.056 L 285.343 286.426 C 285.19 286.446 285.016 286.466 284.823 286.486 C 284.623 286.506 284.413 286.516 284.193 286.516 Z" transform="matrix(1, 0, 0, 1, 0, 0)" style="fill: rgb(29, 140, 237); line-height: 24.5063px; white-space: pre;"/>
    <path d="M 289.567 287.753 L 286.477 287.753 L 286.477 275.033 L 289.477 275.033 C 290.51 275.033 291.317 275.176 291.897 275.463 C 292.477 275.743 292.89 276.176 293.137 276.763 C 293.384 277.35 293.507 278.093 293.507 278.993 L 293.507 283.643 C 293.507 284.563 293.384 285.33 293.137 285.943 C 292.89 286.556 292.484 287.01 291.917 287.303 C 291.344 287.603 290.56 287.753 289.567 287.753 Z M 288.797 276.683 L 288.797 286.133 L 289.507 286.133 C 290.04 286.133 290.42 286.04 290.647 285.853 C 290.88 285.666 291.024 285.393 291.077 285.033 C 291.13 284.666 291.157 284.223 291.157 283.703 L 291.157 278.833 C 291.157 278.32 291.12 277.906 291.047 277.593 C 290.974 277.28 290.82 277.05 290.587 276.903 C 290.36 276.756 289.99 276.683 289.477 276.683 L 288.797 276.683 Z" transform="matrix(1, 0, 0, 1, 0, 0)" style="fill: rgb(29, 140, 237); line-height: 38.4153px; white-space: pre;"/>
    <path d="M 296.56 286.533 C 296.22 286.533 295.927 286.443 295.68 286.263 C 295.433 286.083 295.243 285.853 295.11 285.573 C 294.977 285.3 294.91 285.013 294.91 284.713 C 294.91 284.233 295 283.833 295.18 283.513 C 295.353 283.186 295.587 282.913 295.88 282.693 C 296.167 282.473 296.497 282.28 296.87 282.113 C 297.237 281.953 297.61 281.806 297.99 281.673 L 297.99 281.013 C 297.99 280.793 297.973 280.61 297.94 280.463 C 297.913 280.31 297.857 280.193 297.77 280.113 C 297.69 280.033 297.56 279.993 297.38 279.993 C 297.233 279.993 297.113 280.03 297.02 280.103 C 296.927 280.176 296.86 280.276 296.82 280.403 C 296.78 280.53 296.757 280.676 296.75 280.843 L 296.72 281.303 L 295.02 281.243 C 295.047 280.363 295.263 279.713 295.67 279.293 C 296.083 278.873 296.707 278.663 297.54 278.663 C 298.307 278.663 298.863 278.876 299.21 279.303 C 299.557 279.723 299.73 280.293 299.73 281.013 L 299.73 284.543 C 299.73 284.823 299.737 285.076 299.75 285.303 C 299.763 285.53 299.783 285.736 299.81 285.923 C 299.83 286.11 299.847 286.273 299.86 286.413 L 298.25 286.413 C 298.223 286.24 298.193 286.04 298.16 285.813 C 298.12 285.586 298.09 285.42 298.07 285.313 C 297.983 285.626 297.817 285.906 297.57 286.153 C 297.323 286.406 296.987 286.533 296.56 286.533 Z M 297.22 285.203 C 297.34 285.203 297.45 285.173 297.55 285.113 C 297.65 285.053 297.74 284.986 297.82 284.913 C 297.9 284.833 297.957 284.76 297.99 284.693 L 297.99 282.573 C 297.797 282.686 297.613 282.8 297.44 282.913 C 297.273 283.026 297.123 283.153 296.99 283.293 C 296.863 283.426 296.767 283.573 296.7 283.733 C 296.633 283.893 296.6 284.076 296.6 284.283 C 296.6 284.57 296.657 284.793 296.77 284.953 C 296.877 285.12 297.027 285.203 297.22 285.203 ZM 301.446 288.483 L 301.106 288.483 L 301.106 287.193 C 301.413 287.193 301.663 287.176 301.856 287.143 C 302.05 287.103 302.19 287.04 302.276 286.953 C 302.37 286.866 302.416 286.743 302.416 286.583 C 302.416 286.47 302.386 286.29 302.326 286.043 C 302.266 285.796 302.203 285.53 302.136 285.243 L 300.456 278.783 L 302.196 278.783 L 303.186 283.813 L 304.046 278.783 L 305.776 278.783 L 303.996 286.713 C 303.896 287.166 303.733 287.52 303.506 287.773 C 303.28 288.026 302.993 288.21 302.646 288.323 C 302.306 288.43 301.906 288.483 301.446 288.483 Z" transform="matrix(1, 0, 0, 1, 0, 0)" style="fill: rgb(29, 140, 237); line-height: 21.1946px; white-space: pre;"/>
    <path d="M 265.815 300.592 L 263.495 300.592 L 263.495 289.582 L 261.465 289.582 L 261.465 287.872 L 267.815 287.872 L 267.815 289.582 L 265.815 289.582 L 265.815 300.592 Z" transform="matrix(1, 0, 0, 1, 0, 0)" style="fill: rgb(29, 140, 237); line-height: 40.4023px; white-space: pre;"/>
    <path d="M 271.522 300.536 L 267.282 300.536 L 267.282 290.496 L 271.492 290.496 L 271.492 291.786 L 269.112 291.786 L 269.112 294.666 L 270.982 294.666 L 270.982 295.946 L 269.112 295.946 L 269.112 299.276 L 271.522 299.276 L 271.522 300.536 ZM 275.288 300.676 C 274.555 300.676 273.978 300.529 273.558 300.236 C 273.138 299.949 272.848 299.556 272.688 299.056 C 272.522 298.556 272.438 297.979 272.438 297.326 L 272.438 293.736 C 272.438 293.056 272.522 292.463 272.688 291.956 C 272.848 291.449 273.138 291.059 273.558 290.786 C 273.978 290.513 274.555 290.376 275.288 290.376 C 275.982 290.376 276.525 290.496 276.918 290.736 C 277.312 290.969 277.592 291.306 277.758 291.746 C 277.925 292.186 278.008 292.693 278.008 293.266 L 278.008 294.116 L 276.238 294.116 L 276.238 293.246 C 276.238 292.966 276.225 292.709 276.198 292.476 C 276.172 292.243 276.095 292.059 275.968 291.926 C 275.835 291.786 275.612 291.716 275.298 291.716 C 274.985 291.716 274.755 291.789 274.608 291.936 C 274.468 292.083 274.375 292.276 274.328 292.516 C 274.288 292.763 274.268 293.039 274.268 293.346 L 274.268 297.706 C 274.268 298.073 274.298 298.373 274.358 298.606 C 274.418 298.846 274.525 299.023 274.678 299.136 C 274.832 299.256 275.038 299.316 275.298 299.316 C 275.605 299.316 275.822 299.246 275.948 299.106 C 276.082 298.959 276.162 298.766 276.188 298.526 C 276.222 298.286 276.238 298.019 276.238 297.726 L 276.238 296.816 L 278.008 296.816 L 278.008 297.626 C 278.008 298.219 277.928 298.746 277.768 299.206 C 277.608 299.666 277.335 300.026 276.948 300.286 C 276.555 300.546 276.002 300.676 275.288 300.676 ZM 281.123 300.536 L 279.303 300.536 L 279.303 290.496 L 281.123 290.496 L 281.123 294.696 L 283.173 294.696 L 283.173 290.496 L 285.013 290.496 L 285.013 300.536 L 283.173 300.536 L 283.173 295.996 L 281.123 295.996 L 281.123 300.536 Z" transform="matrix(1, 0, 0, 1, 0, 0)" style="fill: rgb(29, 140, 237); line-height: 21.1946px; white-space: pre;"/>
    <g transform="matrix(0.070709, 0, 0, 0.073197, 239.565628, 283.928955)" style="">
      <title>Sun</title>
      <g transform="matrix(0.717351, -0.434137, 0.658077, 0.875425, -248.135056, 58.54826)" class="sunRay1">
        <title>Ray 1</title>
        <circle style="fill: url(#gradient-0);" cx="123.886" cy="115.938" r="30.448" transform="matrix(0.749285, 0.206958, -0.233901, 0.528085, 30.977434, 55.96265)">
          <title>Top</title>
        </circle>
        <path style="fill: url(#gradient-6);" d="M 113.738 139.909 L 130.634 181.344 L 73.665 159.861" transform="matrix(0.950657, 0.310244, -0.310244, 0.950657, 55.642914, -25.031452)">
          <title>Bottom</title>
        </path>
      </g>
      <g transform="matrix(1.218649, -0.192804, 0.326748, 1.662696, -288.797028, -141.891312)" class="sunRay2">
        <title>Ray 2</title>
        <circle style="fill: url(#gradient-2);" cx="123.886" cy="115.938" r="32" transform="matrix(0.730062, 0.238251, -0.269489, 0.520353, 110.630692, 39.407486)">
          <title>Top</title>
        </circle>
        <path style="fill: url(#gradient-4);" d="M 187.89 126.389 L 203.173 168.431 L 148.533 148.665" transform="matrix(0.950657, 0.310244, -0.310244, 0.950657, 55.216024, -48.17341)">
          <title>Bottom</title>
        </path>
      </g>
      <g transform="matrix(1.239787, 0.39322, -0.824035, 2.091657, -19.510567, -358.266144)" class="sunRay3">
        <title>Ray 3</title>
        <circle style="fill: url(#gradient-8);" cx="123.283" cy="116.218" r="32" transform="matrix(0.73513, 0.239905, -0.269489, 0.520353, 109.928261, 39.301605)">
          <title>Top</title>
        </circle>
        <path style="fill: url(#gradient-7);" d="M 176.776 130.921 L 215.515 167.876 L 146.861 150.099" transform="matrix(0.893262, 0.291512, -0.884995, 0.830679, 151.556649, -27.522086)">
          <title>Bottom</title>
        </path>
      </g>
      <g transform="matrix(0.780769, 0.83502, -1.441536, 1.085146, 250.447678, -246.597504)" class="sunRay4">
        <title>Ray 4</title>
        <circle style="fill: url(#gradient-3);" cx="123.886" cy="115.938" r="32" transform="matrix(0.730062, 0.238251, -0.269489, 0.520353, 110.630692, 39.407486)">
          <title>Top</title>
        </circle>
        <path style="fill: url(#gradient-5);" d="M 188.717 130.441 L 203.173 168.431 L 152.014 150.3" transform="matrix(0.950657, 0.310244, -0.310244, 0.950657, 55.216035, -48.173411)">
          <title>Bottom</title>
        </path>
      </g>
      <g transform="matrix(0.236212, 0.739696, -1.112302, 0.285963, 333.067871, -107.613586)" class="sunRay5">
        <title>Ray 5</title>
        <circle style="fill: url(#gradient-1);" cx="123.886" cy="115.938" r="32" transform="matrix(0.730062, 0.238251, -0.269489, 0.520353, 209.300186, 48.870514)">
          <title>Top</title>
        </circle>
        <path style="fill: url(#gradient-9);" d="M 287.491 140.029 L 301.842 177.894 L 253.602 160.768" transform="matrix(0.950657, 0.310244, -0.310244, 0.950657, 63.020504, -78.317966)">
          <title>Bottom</title>
        </path>
      </g>
      <path d="M 199.864 209.95 C 199.864 216.51 199.293 222.94 198.196 229.197 C 199.041 167.395 148.185 116.479 84.4 115.378 C 20.461 114.275 -32.259 163.644 -33.354 225.647 C -33.388 227.595 -33.372 229.533 -33.304 231.458 C -34.674 224.493 -35.392 217.302 -35.392 209.95 C -35.392 146.953 17.27 95.884 82.235 95.884 C 147.201 95.884 199.864 146.953 199.864 209.95 Z" style="fill: rgb(250, 171, 44);" class="sunOutlineOuter">
        <title>Outline Outer</title>
      </path>
      <path d="M 81.129 129.205 C 135.313 129.205 180.069 164.858 186.953 211.046 C 173.505 171.544 132.385 142.447 83.192 141.675 C 31.946 140.869 -11.737 171.06 -24.926 212.695 C -18.871 165.709 26.302 129.205 81.129 129.205 Z" style="fill: rgb(250, 171, 44);" class="sunOutlineInner">
        <title>Outline inner</title>
      </path>
    </g>
  </g>
</svg>
