<?xml version="1.0" encoding="utf-8"?>
<svg viewBox="237 153.363 71 84.2" xmlns="http://www.w3.org/2000/svg">
  <defs>
    <linearGradient id="gradient-23" y2="145.91" gradientUnits="userSpaceOnUse" x2="-150.66" y1="-35.774" x1="-150.66" gradientTransform="matrix(0.238892, 0, 0, 0.238892, 555.591492, 594.752563)">
      <stop id="stop-53" style="stop-color: rgb(157, 255, 128);" offset="0"/>
      <stop id="stop-54" style="stop-color: rgb(0, 230, 69);" offset="1"/>
    </linearGradient>
    <linearGradient id="gradient-24" y2="69.331" gradientUnits="userSpaceOnUse" y1="-33.352" gradientTransform="matrix(0.238892, 0, 0, 0.238892, 555.591492, 594.752502)" x2="-150.71" x1="-138.55">
      <stop id="stop-55" style="stop-color:#ffffff" offset="0"/>
      <stop id="stop-56" style="stop-color:#ffffff;stop-opacity:.66667" offset="0"/>
      <stop id="stop-57" style="stop-color:#9dbbe1;stop-opacity:.089431" offset="1"/>
    </linearGradient>
  </defs>
  <g transform="matrix(0.720134, 0, 0, 0.663614, -199.093918, -206.915558)" style="">
    <title>InformationBlock</title>
    <g id="layer1" transform="matrix(-2.256522, 0, 0, 2.416698, 709.026062, -1877.712036)" style="">
      <title>Block</title>
      <g id="g3000" transform="translate(-6,1003)">
        <path id="path2987" d="m30 2.3622-20 10 20 10 20-10z" style="fill:#f9f9f9"/>
        <path id="path2989" style="fill:#ececec" d="m30 22.362v25l20-10v-25z"/>
        <path id="path2991" d="m30 22.362v25l-20-10v-25z" style="fill:#cccccc"/>
        <path id="path2993" d="m30 2.375-20 10v25l20 10 20-10v-25l-20-10z" style="stroke:#4d4d4d;stroke-width:1px;fill:none"/>
      </g>
    </g>
    <g transform="matrix(0.885952, 0.440116, 0, 1.006425, 172.281555, -221.422226)" style="">
      <title>Green Icon</title>
      <path id="path-30" style="fill: rgb(19, 216, 25);" d="M 542.458 607.907 C 542.458 620.691 532.224 631.055 519.599 631.055 C 506.975 631.055 496.741 620.691 496.741 607.907 C 496.741 595.123 506.975 584.759 519.599 584.759 C 532.224 584.759 542.458 595.123 542.458 607.907 Z"/>
      <path id="path-31" style="fill: url(#gradient-23);" d="M 541.3 607.907 C 541.3 619.893 531.585 629.609 519.599 629.609 C 507.614 629.609 497.898 619.893 497.898 607.907 C 497.898 595.922 507.614 586.206 519.599 586.206 C 531.585 586.206 541.3 595.922 541.3 607.907 Z"/>
      <path id="path-33" style="opacity: 0.7572; fill: url(#gradient-24);" d="M 519.599 586.204 C 507.804 586.204 498.206 595.621 497.905 607.344 C 507.67 611.272 522.781 614.078 541.27 606.797 C 540.693 595.327 531.213 586.204 519.599 586.204 Z"/>
      <path d="M 522.399 608.812 L 522.349 614.537 C 522.335 616.26 522.477 617.353 522.776 617.82 C 522.983 618.144 524.063 618.352 526.015 618.445 C 526.147 618.571 526.202 618.795 526.189 619.109 C 526.181 619.424 526.118 619.632 526.003 619.737 C 523.41 619.575 520.944 619.495 518.61 619.495 C 516.011 619.495 513.416 619.575 510.816 619.737 C 510.704 619.632 510.645 619.424 510.637 619.109 C 510.631 618.795 510.693 618.571 510.825 618.445 C 513.063 618.342 514.28 618.133 514.474 617.82 C 514.778 617.353 514.939 616.26 514.955 614.537 L 514.988 610.523 C 515.002 609.011 514.841 608.057 514.503 607.662 C 514.312 607.442 513.778 607.267 512.897 607.147 C 512.019 607.027 511.361 606.966 510.928 606.966 C 510.831 606.929 510.788 606.74 510.79 606.396 C 510.793 606.056 510.859 605.881 510.991 605.881 C 512.97 605.788 514.99 605.557 517.066 605.185 C 519.146 604.815 520.825 604.432 522.096 604.035 C 522.286 604.067 522.496 604.161 522.724 604.314 C 522.945 604.463 523.06 604.568 523.059 604.627 C 522.983 604.767 522.875 605.071 522.735 605.542 C 522.599 606.015 522.512 606.372 522.472 606.616 C 522.434 607.126 522.406 607.862 522.399 608.812 Z M 515.306 599.88 C 514.517 599.392 514.123 598.798 514.129 598.101 C 514.139 597.401 514.54 596.811 515.339 596.32 C 516.136 595.832 517.109 595.588 518.246 595.588 C 519.379 595.588 520.358 595.832 521.164 596.32 C 521.978 596.811 522.379 597.401 522.375 598.101 C 522.369 598.798 521.955 599.392 521.137 599.88 C 520.318 600.37 519.335 600.612 518.201 600.612 C 517.064 600.612 516.096 600.37 515.306 599.88 Z" style="fill: rgb(255, 255, 255); white-space: pre;" transform="matrix(1.001057, -0.002675, 0.002423, 0.998938, -2.020692, 2.03239)">
        <title>i</title>
      </path>
    </g>
  </g>
</svg>