<?xml version="1.0" encoding="utf-8"?>
<svg viewBox="0 0 90 90" style="enable-background:new 0 0 71 76.3;" xmlns="http://www.w3.org/2000/svg">
  <defs>
    <style type="text/css">.st0{fill:#000000;}</style>
  </defs>
  <circle cx="45" cy="57.698" r="44.5" style="fill: rgb(10, 149, 255);"/>
  <g transform="matrix(1.230762, 0, 0, 1.230762, 1.422745, -4.602538)">
    <path style="fill: rgb(255, 255, 255);" d="M 9.179 65.968 C 8.763 65.808 14.772 59.939 14.966 60.014 C 15.453 60.194 12.134 69.11 12.024 69.069 C 12.041 69.034 18.552 64.406 18.422 64.68 C 17.938 64.482 27.479 59.681 28.524 60.108 C 28.207 58.967 44.371 58.639 44.693 59.798 C 44.695 59.794 52.926 61.083 52.824 61.343 C 52.824 61.178 56.803 60.965 56.803 61.007 L 62.657 56.92 C 63.35 57.032 62.916 71.169 61.574 70.952 C 61.877 71.103 59.227 76.973 59.058 76.889 C 59.058 76.889 13.641 77.076 13.641 76.699 C 13.267 77.046 8.651 66.457 9.179 65.968 Z">
      <title>white</title>
    </path>
    <path style="fill: rgb(255, 76, 5);" d="M 6.402 62.931 C 6.66 63.125 24.272 45.328 24.04 44.768 L 19.685 58.995 L 29.974 55.66 L 40.63 55.281 L 51.671 57.417 C 52.246 58.6 57.126 56.765 57.655 56.563 C 60.956 55.301 59.547 50.007 60.145 49.126 C 60.742 48.246 55.834 43.173 54.375 41.714 C 53.917 41.256 47.489 35.317 45.991 36.195 L 43.118 34.916 L 41.574 35.959 C 41.101 36.62 47.01 43.335 47.109 43.196 L 46.893 46.643 L 44.745 48.897 L 42.475 48.517 L 41.14 49.193 L 38.38 50.403 L 36.131 49.814 L 34.147 47.519 L 32.914 45.064 C 33.3 45.005 33.251 41.964 32.537 42.072 L 32.166 38.96 L 28.21 37.476 L 24.918 35.599 C 24.176 35.09 21.783 37.196 19.602 38.172 C 11.235 41.915 1.34 62.347 6.402 62.931 Z">
      <title>Hair 1</title>
    </path>
    <path style="fill: rgb(255, 76, 5);" d="M 29.065 16.313 C 27.665 15.64 25.552 23.471 25.42 24.878 C 24.966 29.71 26.41 30.655 26.898 31.292 C 27.196 31.681 28.945 34.267 29.904 33.738 C 31.207 33.947 33.105 30.646 31.985 31.474 C 30.865 32.302 33.101 31.389 34.421 30.444 C 35.28 30.758 35.37 31.054 36.558 30.919 C 37.291 31.579 38.106 32.863 39.13 32.915 C 40.031 33.708 41.442 31.828 42.154 30.012 C 42.901 28.74 43.338 27.352 42.42 25.158 C 42.056 23.442 41.383 21.323 39.899 20.402 C 39.169 19.344 38.132 19.126 36.449 18.844 C 34.919 18.391 32.394 18.019 32.292 18.174 C 32.325 18.114 29.22 15.679 29.065 16.313 Z">
      <title>Hair 2</title>
    </path>
    <g>
      <title>Key</title>
      <path style="fill: rgb(0, 158, 8);" d="M 25.054 15.425 C 24.463 16.98 19.509 17.618 19.718 17.195 C 20.503 15.607 19.052 20.272 21.898 21.561 C 21.898 21.581 17.881 21.526 17.881 20.996 L 16.922 20.113 L 17.101 15.762 L 18.309 14.138 C 18.296 13.702 20.472 14.032 20.851 14.071 C 21.494 14.137 25.437 14.418 25.054 15.425 Z"/>
      <path style="fill: rgb(0, 158, 8);" d="M 19.722 18.315 C 17.757 16.783 17.985 17.442 18.705 18.706 C 19.377 19.887 20.966 21.921 21.337 21.351 C 22.498 23.113 24.597 16.253 24.221 15.682 C 25.182 14.866 22.082 15.85 21.588 16.27 C 20.543 17.889 22.623 20.829 20.913 17.796"/>
      <path style="fill: rgb(0, 158, 8);" d="M 38.123 47.069 C 37.325 48.032 35.877 44.954 36.2 44.563 C 35.727 44.391 37.801 41.126 39.468 41.731 C 39.109 42.269 38.266 40.565 38.336 40.439 C 38.406 40.313 36.234 41.581 36.234 41.581 C 35.872 42.386 35.157 40.914 35.2 40.818 C 34.264 40.437 36.449 38.511 37.07 38.764 C 36.69 39.161 33.14 35.038 33.768 34.383 C 33.084 33.999 33.521 33.064 34.673 33.71 C 35.881 32.998 38.594 37.676 39.352 38.664 C 39.711 39.132 46.158 44.239 44.165 45.085 C 44.64 45.274 44.135 46.516 43.355 46.206 C 43.164 46.756 41.674 45.016 41.757 44.778 C 41.933 45.011 38.569 47.658 38.123 47.069 Z"/>
    </g>
  </g>
  <g transform="matrix(1.128914, 0, 0, 1.128914, -268.315613, -422.503723)">
    <path class="st0" d="M247.8,451.8c-0.6-1.3-1.4-3.1-1.8-4l-0.6-1.7l-2,2.2l-2,2.2 l-0.2-4.2c-0.3-6,0.2-12.2,1.2-16.6c2.3-9.8,9.5-18.7,18.8-23.4l2.1-1l-0.5-1.5c-0.3-0.8-0.6-2.5-0.7-3.6l-0.2-2.1l-2.1-0.2 c-3.2-0.3-4.9-1.2-6-3.5c-0.6-1.2-0.6-1.4-0.4-4.6c0.2-4.2,0.5-5.1,1.8-6.5c1.6-1.8,2.7-2.1,6.7-1.9c2.9,0.2,3.5,0.3,4.8,0.9 c0.8,0.4,1.5,0.8,1.6,0.8c0.1,0,1-1.1,2.1-2.6l1.9-2.7l1.2,0.7c0.7,0.4,1.5,0.9,1.9,1.1l0.7,0.4l-0.6,1.5c-0.3,0.8-0.7,2.2-0.8,2.9 l-0.2,1.4l1.7,0.2c6.1,0.6,10.7,4.3,12.4,9.9c0.5,1.8,0.5,5.3,0,7c-0.5,1.6-0.5,1.7-0.1,1.7c0.7,0,5.4,2.3,7.3,3.5 c3.7,2.4,8,6.6,10.4,10.2c4.5,6.7,6.4,14,5.6,22c-0.4,4.8-1.3,8.6-2.9,12.3l-0.6,1.4l-2.5,0l-2.5,0l1.2-2.4 c1.3-2.6,2.3-6.2,2.8-9.4c0.3-2.2,0.4-8.2,0.1-9.3l-0.2-0.7l-1.3,1.4c-3.2,3.5-7.9,4.5-14.2,2.8c-5.4-1.4-7.6-1.7-12.7-1.7 c-3.9,0-5.2,0.1-7.3,0.6c-5.8,1.3-9.9,3.2-15.6,7.3c-2.1,1.5-3.8,2.7-3.9,2.7c-0.1,0,0.2-1,0.6-2.3c0.4-1.3,1.1-3.4,1.5-4.8 l0.8-2.5l-0.9,0.9c-0.5,0.5-1.9,1.9-3.1,3.2l-2.1,2.3l0.5,1.9c0.6,2.5,2,5.6,3.5,7.9c0.6,1,1.1,1.8,1.1,1.9s-1.2,0.1-2.6,0.1h-2.6 L247.8,451.8L247.8,451.8z M256.6,427.6c4.8-5.1,8.7-9.2,8.8-9.2c0.1,0.1-0.4,1.6-0.9,3.3c-3.3,10.4-4,12.4-3.9,12.5 c0,0,1.2-0.4,2.5-0.9c8.5-3.7,18.4-4.2,28.9-1.4c4.7,1.2,6.5,1.2,8.8,0c1.3-0.7,1.8-1.1,2.4-2.1c1.1-1.7,1.2-4.1,0.5-6.3 c-1.7-4.8-8.3-11-14.5-13.7c-3.2-1.4-3.4-1.4-4.1-0.7l-0.6,0.6l2.6,3.2c1.4,1.7,2.9,3.6,3.1,4.1c0.6,1.2,0.7,3.1,0.1,4.3 c-0.8,1.7-3.2,2.9-5.1,2.5c-0.8-0.2-1.1-0.1-1.9,0.5c-2.2,1.6-4.6,1.2-6.6-1.2c-1.6-1.8-2-2.7-2.1-4.5c0-0.9-0.3-2-0.5-2.4 c-0.3-0.6-0.4-1.3-0.4-2.2l0.1-1.4l-1.3-0.3c-1.8-0.5-3.9-1.5-5.1-2.4c-0.6-0.4-1.1-0.8-1.3-0.8s-1.5,0.6-2.9,1.3 c-9.7,5-16,14.3-17,24.8c-0.1,1-0.2,2.3-0.3,2.8l-0.1,0.9l1.1-1.1C247.4,437.3,251.8,432.7,256.6,427.6L256.6,427.6z M282.5,420.2 c0.9-0.7,1.7-1.3,1.9-1.3c0.1,0,0.4,0.3,0.7,0.7c0.5,0.8,1.4,0.8,1.8,0.1c0.3-0.5,0.3-0.6-5.6-7.8c-3.5-4.3-4.2-5-4.7-5 c-1.2,0.1-0.9,1,1,3.3l1.8,2.2l-1,0.8c-1.1,1-1.2,1.2-0.5,1.8c0.5,0.5,0.6,0.4,1.6-0.3l1.1-0.7l0.7,0.6c0.4,0.3,0.6,0.8,0.6,0.9 c0,0.2-0.8,0.9-1.7,1.7c-0.9,0.7-1.6,1.5-1.6,1.7c0,0.3,0.5,1.1,1.4,2.2C280.3,421.7,280.8,421.5,282.5,420.2L282.5,420.2z  M272.2,406c0.6-1.8,2.6-3.2,4.6-3.2c1.1,0,2.7,0.9,3.8,2.1l1,1.2l0.9-1.1c2.5-2.8,2.8-6.7,0.8-10.1c-1.5-2.5-4.3-4-8.2-4.4 c-2.1-0.2-2.6-0.4-3.7-1.5l-0.8-0.8l-0.4,0.6c-0.8,1.2-2.5,5.1-3,6.6c-0.7,2.3-0.4,5.9,0.5,7.7c0.9,1.7,3.3,4,4,3.7 C271.8,406.9,272,406.5,272.2,406L272.2,406z M263.3,392.4c0.2-0.5,0.7-1.8,1.2-2.8c0.5-1,0.9-2,0.9-2.3c0-0.9-1-1.3-3.7-1.5 c-2.4-0.2-2.6-0.1-3.1,0.4c-0.4,0.4-0.6,0.9-0.6,1.6c0,0.6-0.1,1.7-0.2,2.6c-0.2,2.1,0.1,2.5,2.2,2.8 C263.1,393.4,263,393.4,263.3,392.4z M260.2,390c0-1.7,0.2-1.9,1.6-1.9h1.3v1.4v1.4h-1.4h-1.4V390z M266.5,448.3 c-0.6-0.6-0.8-1-0.8-2c0-1.9,1.1-3,2.9-3c1.7,0,2.9,1.2,2.9,2.9c0,1.8-1.1,2.8-3,2.9C267.5,449.1,267.1,448.9,266.5,448.3 L266.5,448.3z M285.8,448.6c-2.3-1.8-1.1-5.3,1.8-5.3c1.8,0,2.8,1.1,2.9,3c0,1.1-0.1,1.4-0.8,2s-1,0.8-2,0.8 C286.8,449.1,286.2,448.9,285.8,448.6L285.8,448.6z" style=""/>
  </g>
</svg>