<?xml version="1.0" encoding="utf-8"?>
<svg viewBox="0 0 71 84.2" xmlns="http://www.w3.org/2000/svg">
  <title>roadMapBlock</title>
  <defs>
    <linearGradient id="gradient-26" y2="145.91" gradientUnits="userSpaceOnUse" x2="-150.66" y1="-35.774" x1="-150.66">
      <stop id="stop-58" style="stop-color: rgb(14, 200, 237);" offset="0"/>
      <stop id="stop-59" style="stop-color: rgb(0, 164, 230);" offset="1"/>
    </linearGradient>
    <linearGradient id="gradient-27" y2="69.331" gradientUnits="userSpaceOnUse" y1="-33.352" gradientTransform="matrix(.91463 0 0 .91463 535.32 843.08)" x2="-150.71" x1="-138.55">
      <stop id="stop-60" style="stop-color:#ffffff" offset="0"/>
      <stop id="stop-61" style="stop-color:#ffffff;stop-opacity:.66667" offset="0"/>
      <stop id="stop-62" style="stop-color:#9dbbe1;stop-opacity:.089431" offset="1"/>
    </linearGradient>
  </defs>
  <g transform="matrix(1, 0, 0, 1, -362.222351, -203.586975)">
    <title>RoadMap</title>
    <g id="g-10" transform="matrix(-1.625, 0, 0, 1.603987, 446.108948, 205.909409)">
      <title>Block</title>
      <path id="path-69" d="m30 2.3622-20 10 20 10 20-10z" style="fill:#f9f9f9"/>
      <path id="path-70" style="fill:#ececec" d="m30 22.362v25l20-10v-25z"/>
      <path id="path-71" d="m30 22.362v25l-20-10v-25z" style="fill:#cccccc"/>
      <path id="path-72" d="m30 2.375-20 10v25l20 10 20-10v-25l-20-10z" style="stroke:#4d4d4d;stroke-width:1px;fill:none"/>
    </g>
    <g id="g-12" transform="matrix(0.160505, 0.058997, 0, 0.157268, 318.14917, 90.023499)">
      <title>Icon</title>
      <path id="path-73" style="fill: rgb(10, 144, 234);" d="m-59.822 55.066c0 50.17-40.671 90.841-90.841 90.841s-90.841-40.671-90.841-90.841 40.671-90.841 90.841-90.841 90.841 40.671 90.841 90.841z" transform="matrix(.96341 0 0 .97561 542.67 839.72)"/>
      <path id="path-74" style="fill: url(#gradient-26);" d="m-59.822 55.066c0 50.17-40.671 90.841-90.841 90.841s-90.841-40.671-90.841-90.841 40.671-90.841 90.841-90.841 90.841 40.671 90.841 90.841z" transform="matrix(.91463 0 0 .91463 535.32 843.08)"/>
      <path id="path-78" style="opacity: 0.7572; fill: url(#gradient-27);" d="m397.52 810.35c-45.16 0-81.909 36.056-83.062 80.938 37.387 15.04 95.243 25.784 166.03-2.0938-2.2099-43.915-38.505-78.844-82.969-78.844z"/>
    </g>
    <g>
      <title>Roadpoints</title>
      <path style="fill: none; stroke-linecap: square; stroke-width: 4px; stroke: rgb(255, 255, 255);" d="M 373 249 C 398.5 249 364.5 264.746 390 264.746"/>
      <circle style="fill: rgb(6, 179, 233);" cx="373.6" cy="248.9" r="2"/>
      <circle style="fill: rgb(6, 179, 233);" cx="389.058" cy="264.655" r="2"/>
      <path d="M 389.337 256.03 C 389.761 255.972 390.214 255.996 390.587 256.114 C 390.962 256.232 391.327 256.473 391.577 256.737 C 391.835 257.01 392.007 257.36 392.098 257.735 C 392.2 258.153 392.252 258.694 392.098 259.149 C 391.937 259.624 391.6 260.237 391.107 260.522 C 390.612 260.808 389.718 264.054 389.162 263.999 C 388.687 263.952 388.233 260.598 387.93 260.354 C 387.626 260.111 387.421 259.8 387.304 259.398 C 387.158 258.893 387.158 257.992 387.304 257.486 C 387.421 257.084 387.607 256.77 387.93 256.53 C 388.271 256.277 388.877 256.095 389.337 256.03 Z" style="fill: rgb(255, 255, 255);"/>
      <path d="M 373.642 241.03 C 374.066 240.972 374.519 240.996 374.892 241.114 C 375.267 241.232 375.632 241.473 375.882 241.737 C 376.14 242.01 376.312 242.36 376.403 242.735 C 376.505 243.153 376.557 243.694 376.403 244.149 C 376.242 244.624 375.905 245.237 375.412 245.522 C 374.917 245.808 374.023 249.054 373.467 248.999 C 372.992 248.952 372.538 245.598 372.235 245.354 C 371.931 245.111 371.726 244.8 371.609 244.398 C 371.463 243.893 371.463 242.992 371.609 242.486 C 371.726 242.084 371.912 241.77 372.235 241.53 C 372.576 241.277 373.182 241.095 373.642 241.03 Z" style="fill: rgb(255, 255, 255);"/>
      <path d="M 374.291 241.644 L 375.381 245.284 L 374.881 245.284 L 374.601 244.354 L 373.261 244.354 L 372.991 245.284 L 372.511 245.284 L 373.631 241.644 L 374.291 241.644 Z M 373.361 244.004 L 374.501 244.004 L 374.191 242.914 L 373.941 242.014 C 373.848 242.354 373.764 242.644 373.691 242.884 L 373.361 244.004 Z" transform="matrix(1, 0, 0, 1, 0, 0)" style="fill: rgb(6, 180, 233); white-space: pre;"/>
      <path d="M 390.98 259.575 C 390.98 259.682 390.977 259.772 390.97 259.845 C 390.963 259.925 390.953 259.998 390.94 260.065 C 390.927 260.132 390.913 260.188 390.9 260.235 C 390.887 260.288 390.863 260.335 390.83 260.375 C 390.797 260.415 390.767 260.448 390.74 260.475 C 390.707 260.502 390.663 260.525 390.61 260.545 C 390.557 260.565 390.503 260.578 390.45 260.585 C 390.403 260.598 390.337 260.608 390.25 260.615 C 390.17 260.622 390.09 260.625 390.01 260.625 C 389.93 260.625 389.833 260.625 389.72 260.625 L 388.42 260.625 L 388.42 256.985 L 389.8 256.985 C 389.98 256.985 390.13 256.995 390.25 257.015 C 390.377 257.035 390.487 257.068 390.58 257.115 C 390.673 257.162 390.74 257.232 390.78 257.325 C 390.82 257.412 390.843 257.525 390.85 257.665 L 390.85 257.925 C 390.85 258.038 390.847 258.132 390.84 258.205 C 390.827 258.272 390.81 258.335 390.79 258.395 C 390.77 258.448 390.74 258.492 390.7 258.525 C 390.66 258.558 390.613 258.585 390.56 258.605 C 390.5 258.632 390.423 258.652 390.33 258.665 C 390.443 258.678 390.54 258.702 390.62 258.735 C 390.7 258.775 390.763 258.822 390.81 258.875 C 390.857 258.928 390.893 258.992 390.92 259.065 C 390.94 259.145 390.957 259.225 390.97 259.305 C 390.977 259.378 390.98 259.468 390.98 259.575 Z M 390.37 258.215 L 390.37 257.825 C 390.37 257.818 390.37 257.815 390.37 257.815 C 390.37 257.742 390.37 257.692 390.37 257.665 C 390.37 257.638 390.363 257.602 390.35 257.555 C 390.343 257.515 390.337 257.488 390.33 257.475 C 390.317 257.462 390.293 257.445 390.26 257.425 C 390.233 257.405 390.203 257.392 390.17 257.385 C 390.137 257.385 390.09 257.378 390.03 257.365 C 389.963 257.358 389.897 257.355 389.83 257.355 C 389.763 257.355 389.673 257.355 389.56 257.355 L 388.91 257.355 L 388.91 258.525 L 389.4 258.525 C 389.613 258.525 389.783 258.518 389.91 258.505 C 390.043 258.492 390.143 258.472 390.21 258.445 C 390.27 258.412 390.313 258.378 390.34 258.345 C 390.36 258.312 390.37 258.268 390.37 258.215 Z M 390.5 259.785 L 390.5 259.465 C 390.493 259.265 390.483 259.142 390.47 259.095 C 390.45 259.002 390.393 258.942 390.3 258.915 C 390.193 258.868 389.947 258.845 389.56 258.845 C 389.533 258.845 389.507 258.845 389.48 258.845 L 388.91 258.845 L 388.91 260.255 L 389.84 260.255 C 390.027 260.255 390.17 260.238 390.27 260.205 C 390.363 260.178 390.427 260.132 390.46 260.065 C 390.487 260.005 390.5 259.912 390.5 259.785 Z" transform="matrix(1, 0, 0, 1, 0, 0)" style="fill: rgb(6, 180, 233); white-space: pre;"/>
    </g>
  </g>
</svg>