<?xml version="1.0" encoding="utf-8"?>
<svg role="img" aria-labelledby="title desc" viewBox="224.223 161.975 71 84.2" xmlns="http://www.w3.org/2000/svg">
  <title id="title">Secure building block</title>
  <desc id="desc">We believe in the importance of prioritizing the utilization of secure building blocks for solutions</desc>
  <defs>
    <linearGradient id="linearGradient5784" y2="145.91" gradientUnits="userSpaceOnUse" x2="-150.66" y1="-35.774" x1="-150.66">
      <stop id="stop5490-9" style="stop-color:#fb9e00" offset="0"/>
      <stop id="stop5492-3" style="stop-color:#f44f00" offset="1"/>
    </linearGradient>
    <linearGradient id="linearGradient4009" y2="69.331" gradientUnits="userSpaceOnUse" y1="-33.352" gradientTransform="matrix(.91463 0 0 .91463 535.32 843.08)" x2="-150.71" x1="-138.55">
      <stop id="stop5509-79" style="stop-color:#ffffff" offset="0"/>
      <stop id="stop5511-9" style="stop-color:#ffffff;stop-opacity:.66667" offset="0"/>
      <stop id="stop5513-5" style="stop-color:#9dbbe1;stop-opacity:.089431" offset="1"/>
    </linearGradient>
  </defs>
  <g transform="matrix(0.720134, 0, 0, 0.66371, -211.871094, -197.356659)" style="">
    <title>Secure</title>
    <g id="layer1" transform="matrix(-2.256522, 0, 0, 2.416698, 709.026062, -1877.712036)" style="">
      <title>Cube</title>
      <g id="g3000" transform="translate(-6,1003)">
        <path id="path2987" d="m30 2.3622-20 10 20 10 20-10z" style="fill:#f9f9f9"/>
        <path id="path2989" style="fill:#ececec" d="m30 22.362v25l20-10v-25z"/>
        <path id="path2991" d="m30 22.362v25l-20-10v-25z" style="fill:#cccccc"/>
        <path id="path2993" d="m30 2.375-20 10v25l20 10 20-10v-25l-20-10z" style="stroke:#4d4d4d;stroke-width:1px;fill:none"/>
      </g>
    </g>
    <g id="g-6" transform="matrix(0.85333, 0.340326, 0, 0.907204, 488.318542, 323.697968)" style="">
      <title>Icon</title>
      <g id="g5977" transform="matrix(.26119 0 0 .26119 64.648 30.159)">
        <path id="path5778" style="fill:#f44800" d="m-59.822 55.066c0 50.17-40.671 90.841-90.841 90.841s-90.841-40.671-90.841-90.841 40.671-90.841 90.841-90.841 90.841 40.671 90.841 90.841z" transform="matrix(.96341 0 0 .97561 542.67 839.72)"/>
        <path id="path5780" style="fill:url(#linearGradient5784)" d="m-59.822 55.066c0 50.17-40.671 90.841-90.841 90.841s-90.841-40.671-90.841-90.841 40.671-90.841 90.841-90.841 90.841 40.671 90.841 90.841z" transform="matrix(.91463 0 0 .91463 535.32 843.08)"/>
        <g id="g4220" style="fill:#ffffff" transform="matrix(.75853 0 0 .75853 -178.85 340.67)">
          <path id="rect4189" style="stroke-width:1.9;fill:#ffffff" d="m729.75 660.3c-6.5919 0-11.875 5.3085-11.875 11.906v25.188h12.719v-14.125c0-6.5978 5.3143-11.906 11.906-11.906h25.5c6.5919 0 11.906 5.3085 11.906 11.906v14.125h12.188v-25.188c0-6.5978-5.3143-11.906-11.906-11.906h-50.438z"/>
          <path id="rect4193" style="stroke-width:1.9;fill:#ffffff" d="m716.47 395.12c-6.5919 0-11.906 5.3085-11.906 11.906v14.969c0 6.5978 5.3143 11.906 11.906 11.906h75.906c5.877 0 10.735-4.2212 11.719-9.8125h-11.594c-6.5919 0-11.906-3.3938-11.906-7.625s5.3143-7.6562 11.906-7.6562h11.781v-1.7812c0-6.5978-5.3143-11.906-11.906-11.906h-75.906z" transform="translate(0 308.27)"/>
          <path id="path4218" style="stroke-width:1.9;fill:#ffffff" d="m716.47 749.22c-6.5919 0-11.906 5.3085-11.906 11.906v14.969c0 6.5978 5.3143 11.906 11.906 11.906h75.906c5.877 0 10.735-4.2212 11.719-9.8125h-11.594c-6.5919 0-11.906-3.3938-11.906-7.625s5.3143-7.6562 11.906-7.6562h11.781v-1.7812c0-6.5978-5.3143-11.906-11.906-11.906h-75.906z"/>
        </g>
        <path id="path5782" style="opacity:.75720;fill:url(#linearGradient4009)" d="m397.52 810.35c-45.16 0-81.909 36.056-83.062 80.938 37.387 15.04 95.243 25.784 166.03-2.0938-2.2099-43.915-38.505-78.844-82.969-78.844z"/>
      </g>
    </g>
  </g>
</svg>
