<?xml version="1.0" encoding="utf-8"?>
<svg viewBox="0 0 280 280" xmlns="http://www.w3.org/2000/svg">
  <g transform="matrix(1.166667, 0, 0, 1.166667, -4.666668, -4.666668)">
    <title>Services</title>
    <circle style="fill: rgb(34, 139, 230);" cx="124" cy="124" r="120" id="st_circle" class="st-circle-background">
      <title>Token</title>
    </circle>
    <g id="st_design" style="" transform="matrix(-0.116818, -0.006952, 0.005908, -0.099192, 408.49762, 195.037567)">
      <title>design</title>
      <g id="g-14" fill="none" style="">
        <title>Path</title>
        <g>
          <path id="path-76" d="M 1878.99 -120.464 C 2076.915 -429.317 2675.523 -605.168 2997.206 -152.591" style="stroke-width: 27.7274px; paint-order: fill; stroke: rgb(217, 217, 217);"/>
          <path id="path-77" d="M 3173.683 98.569 C 3645.123 1302.498 2255.421 2032.276 1757.888 1008.466" style="stroke-width: 27.7274px; paint-order: fill; stroke: rgb(217, 217, 217);"/>
        </g>
        <g style="" transform="matrix(0.898713, 0, 0, 1.056832, 265.712891, -29.862303)">
          <path id="path-107" d="M 3102.704 532.359 C 3102.704 1044.721 2548.055 1364.948 2104.336 1108.766 C 1898.406 989.872 1771.547 770.147 1771.547 532.359 C 1771.547 19.996 2326.196 -300.23 2769.915 -44.049 C 2975.845 74.845 3102.704 294.57 3102.704 532.359 Z" style="stroke-width: 23.1669px; paint-order: fill; stroke: rgb(217, 217, 217);"/>
          <path id="path-108" d="M 2690.075 1135.627 C 2518.828 1207.42 2325.138 1203.05 2157.304 1123.607" style="stroke-width: 58.9288px; paint-order: fill; stroke: rgb(217, 217, 217);"/>
          <path id="path-109" d="M 2997.9 195.525 C 3065.322 307.764 3097.511 437.653 3090.301 568.387" style="stroke-width: 58.9288px; paint-order: fill; stroke: rgb(217, 217, 217);"/>
          <path id="path-110" d="M 1783.451 557.013 C 1777.81 407.389 1823.671 260.359 1913.375 140.474" style="stroke-width: 58.9288px; paint-order: fill; stroke: rgb(217, 217, 217);"/>
        </g>
        <g style="" transform="matrix(0.861022, 0, 0, 0.934628, 346.463837, 18.377106)">
          <path id="path-83" d="M 2096.155 151.558 C 2127.144 122.745 2161.683 97.992 2198.932 77.889" style="stroke-width: 45.2738px; paint-order: fill; stroke: rgb(217, 217, 217);" transform="matrix(1, -0.000069, 0.000058, 1, -0.006658, 0.14818)"/>
          <path id="path-89" d="M 2470.495 24.711 C 2565.865 32.752 2656.908 68.025 2732.759 126.321" style="stroke-width: 70.8145px; paint-order: fill; stroke: rgb(217, 217, 217);" transform="matrix(1, -0.000069, 0.000058, 1, -0.004377, 0.179512)"/>
          <path id="path-90" d="M 2922.14 593.871 C 2906.021 703.19 2853.992 804.063 2774.23 880.638" style="stroke-width: 56.6516px; paint-order: fill; stroke: rgb(217, 217, 217);" transform="matrix(1, -0.000069, 0.000058, 1, -0.042832, 0.196525)"/>
          <path id="path-91" d="M 2202.439 961.044 C 2128.269 921.346 2065.31 863.229 2019.5 792.175" style="stroke-width: 54.3286px; paint-order: fill; stroke: rgb(217, 217, 217);" transform="matrix(1, 0.000657, -0.000553, 1, 0.485396, -1.386728)"/>
          <path id="path-92" d="M 2938.412 595.64 C 2881.539 988.331 2425.084 1171.1 2116.793 924.626 C 2073.442 889.967 2035.939 848.436 2005.754 801.65" style="stroke-width: 18.1095px; paint-order: fill; stroke: rgb(217, 217, 217);" transform="matrix(1, 0.000657, -0.000553, 1, 0.451992, -1.623992)"/>
          <path id="path-93" d="M 2688.088 126.109 C 2939.493 291.824 2973.13 650.562 2756.944 860.49" style="stroke-width: 45.2738px; paint-order: fill; stroke: rgb(217, 217, 217);" transform="matrix(1, 0.000657, -0.000553, 1, 0.273406, -1.835574)"/>
          <path id="path-94" d="M 2115.261 175.581 C 2227.209 70.096 2383.346 26.908 2533.01 60.033" style="stroke-width: 45.2738px; paint-order: fill; stroke: rgb(217, 217, 217);" transform="matrix(1, 0.000657, -0.000553, 1, 0.062534, -1.526934)"/>
        </g>
        <g style="" transform="matrix(1.038596, 0, 0, 1.11002, -81.338013, -63.535954)">
          <path id="path-98" d="M 2307.992 362.104 C 2423.209 264.604 2589.524 348.349 2607.357 512.847 C 2617.685 608.113 2571.814 698.624 2494.892 734.761" style="stroke-width: 45.2738px; paint-order: fill; stroke: rgb(217, 217, 217);" transform="matrix(0.999962, 0.009477, -0.007982, 0.999962, 4.303784, -23.27811)"/>
          <path id="path-99" d="M 2330.716 720.893 C 2255.562 672.451 2217.699 572.442 2238.686 477.799" style="stroke-width: 45.2738px; paint-order: fill; stroke: rgb(217, 217, 217);" transform="matrix(0.999962, 0.009477, -0.007982, 0.999962, 4.869361, -21.602057)"/>
          <path id="path-100" d="M 2318.361 377.956 C 2422.805 289.438 2573.695 365.273 2589.964 514.457 C 2606.231 663.644 2475.676 774.292 2354.964 713.625 C 2277.436 674.661 2235.439 577.134 2256.146 484.15" style="stroke-width: 18.1095px; paint-order: fill; stroke: rgb(217, 217, 217);" transform="matrix(0.999962, 0.009477, -0.007982, 0.999962, 4.363994, -22.924509)"/>
        </g>
      </g>
    </g>
    <g style="" transform="matrix(1.093792, 0, 0, 1.093792, -283.775787, -222.966476)" id="st_text">
      <title>text</title>
      <path d="M 60.861 29.317 C 60.127 29.725 59.43 29.905 58.772 29.858 C 58.107 29.815 57.496 29.586 56.938 29.171 C 56.372 28.753 55.864 28.188 55.416 27.476 L 56.758 26.184 C 57.042 26.613 57.355 27.007 57.699 27.366 C 58.036 27.728 58.408 27.971 58.813 28.097 C 59.212 28.227 59.637 28.167 60.086 27.918 C 60.546 27.663 60.825 27.34 60.922 26.951 C 61.013 26.566 60.924 26.131 60.656 25.647 C 60.336 25.069 59.948 24.679 59.492 24.474 C 59.032 24.264 58.506 24.091 57.912 23.955 L 54.722 23.253 C 54.098 23.119 53.566 22.888 53.126 22.56 C 52.688 22.239 52.292 21.757 51.936 21.116 C 51.419 20.183 51.287 19.311 51.539 18.501 C 51.782 17.688 52.367 17.024 53.294 16.51 C 53.795 16.232 54.276 16.054 54.735 15.975 C 55.191 15.89 55.623 15.913 56.031 16.045 C 56.44 16.177 56.835 16.408 57.216 16.738 C 57.597 17.068 57.969 17.498 58.331 18.029 L 57.041 19.27 C 56.779 18.866 56.505 18.515 56.218 18.217 C 55.925 17.922 55.602 17.731 55.249 17.645 C 54.89 17.562 54.492 17.641 54.055 17.884 C 53.612 18.129 53.332 18.437 53.217 18.805 C 53.104 19.18 53.176 19.598 53.431 20.059 C 53.648 20.449 53.89 20.734 54.157 20.914 C 54.43 21.09 54.785 21.229 55.222 21.33 L 58.43 22.022 C 59.14 22.176 59.841 22.444 60.532 22.823 C 61.222 23.202 61.789 23.792 62.232 24.59 C 62.581 25.22 62.75 25.835 62.74 26.435 C 62.729 27.036 62.565 27.584 62.246 28.081 C 61.923 28.572 61.462 28.984 60.861 29.317 ZM 66.693 26.039 L 65.2 26.743 L 59.225 13.441 L 61.034 12.587 L 68.405 22.191 L 65.701 10.386 L 67.492 9.542 L 73.955 22.614 L 72.472 23.313 L 67.814 13.812 L 70.102 24.431 L 69.053 24.926 L 62.333 16.397 L 66.693 26.039 ZM 79.659 20.385 L 76.026 21.775 L 70.816 8.158 L 73.944 6.961 C 74.561 6.725 75.122 6.589 75.629 6.552 C 76.134 6.508 76.592 6.569 77.005 6.732 C 77.411 6.898 77.771 7.167 78.085 7.54 C 78.395 7.921 78.66 8.401 78.882 8.98 C 79.096 9.54 79.214 10.052 79.234 10.515 C 79.248 10.981 79.157 11.387 78.961 11.733 C 78.763 12.073 78.453 12.363 78.03 12.603 C 78.626 12.518 79.149 12.561 79.6 12.731 C 80.048 12.895 80.445 13.178 80.792 13.581 C 81.133 13.986 81.427 14.512 81.675 15.16 C 81.899 15.745 82.034 16.304 82.08 16.836 C 82.129 17.374 82.078 17.864 81.926 18.308 C 81.768 18.754 81.503 19.151 81.13 19.501 C 80.753 19.859 80.263 20.154 79.659 20.385 Z M 75.447 14.555 L 77.409 19.683 L 78.689 19.193 C 79.535 18.869 80.026 18.453 80.16 17.945 C 80.294 17.437 80.192 16.741 79.853 15.857 C 79.634 15.284 79.376 14.833 79.079 14.504 C 78.782 14.175 78.431 13.977 78.027 13.911 C 77.615 13.84 77.129 13.912 76.568 14.126 L 75.447 14.555 Z M 73.26 8.839 L 74.893 13.107 L 76.014 12.679 C 76.556 12.471 76.948 12.236 77.189 11.972 C 77.437 11.706 77.559 11.381 77.555 10.997 C 77.551 10.613 77.445 10.15 77.238 9.609 C 77 8.986 76.731 8.571 76.43 8.365 C 76.13 8.159 75.766 8.095 75.339 8.172 C 74.906 8.252 74.363 8.418 73.709 8.668 L 73.26 8.839 ZM 91.351 16.707 C 90.831 16.854 90.387 16.875 90.018 16.771 C 89.641 16.663 89.332 16.449 89.089 16.129 C 88.842 15.818 88.65 15.419 88.512 14.931 L 86.669 8.396 L 85.62 8.692 L 85.276 7.469 L 86.325 7.174 L 85.497 4.238 L 87.354 3.714 L 88.182 6.65 L 89.79 6.196 L 90.134 7.419 L 88.527 7.872 L 90.335 14.282 C 90.447 14.68 90.591 14.944 90.766 15.075 C 90.941 15.205 91.205 15.221 91.558 15.121 C 91.655 15.094 91.762 15.057 91.88 15.01 C 91.998 14.963 92.114 14.916 92.225 14.871 L 92.614 16.247 C 92.392 16.344 92.184 16.431 91.99 16.506 C 91.795 16.575 91.582 16.642 91.351 16.707 ZM 95.923 15.409 L 94.048 15.824 L 90.899 1.588 L 92.774 1.173 L 93.91 6.309 C 94.175 5.902 94.493 5.535 94.864 5.207 C 95.236 4.879 95.679 4.658 96.193 4.545 C 96.59 4.457 96.923 4.496 97.192 4.662 C 97.452 4.822 97.664 5.052 97.825 5.351 C 97.979 5.645 98.093 5.958 98.166 6.29 L 99.985 14.511 L 98.1 14.928 L 96.4 7.243 C 96.321 6.885 96.207 6.617 96.059 6.438 C 95.91 6.259 95.673 6.206 95.347 6.278 C 95.119 6.328 94.903 6.445 94.697 6.627 C 94.485 6.81 94.293 7.02 94.119 7.256 L 95.923 15.409 ZM 103.769 13.891 L 101.873 14.19 L 100.253 3.917 L 102.15 3.618 L 102.379 5.07 C 102.662 4.385 102.974 3.903 103.315 3.627 C 103.664 3.356 104.029 3.19 104.411 3.13 C 104.457 3.123 104.5 3.116 104.54 3.11 C 104.579 3.104 104.636 3.102 104.711 3.103 L 105.041 5.197 C 104.893 5.16 104.724 5.136 104.533 5.126 C 104.343 5.115 104.152 5.125 103.961 5.155 C 103.665 5.202 103.405 5.31 103.182 5.48 C 102.96 5.657 102.762 5.958 102.586 6.384 L 103.769 13.891 ZM 109.019 13.329 C 108.607 13.367 108.278 13.29 108.033 13.098 C 107.788 12.907 107.607 12.652 107.491 12.335 C 107.368 12.019 107.291 11.694 107.26 11.362 L 106.484 2.978 L 108.406 2.8 L 109.128 10.607 C 109.163 10.979 109.243 11.266 109.369 11.469 C 109.494 11.664 109.723 11.747 110.054 11.716 C 110.274 11.696 110.493 11.612 110.714 11.465 C 110.935 11.317 111.143 11.144 111.339 10.945 L 110.567 2.6 L 112.489 2.423 L 113.447 12.778 L 111.525 12.956 L 111.43 11.931 C 111.128 12.287 110.775 12.597 110.371 12.862 C 109.967 13.127 109.516 13.283 109.019 13.329 ZM 125.478 12.733 L 119.79 12.586 L 120.168 -1.989 L 125.826 -1.843 L 125.787 -0.333 L 122.168 -0.427 L 122.043 4.401 L 124.972 4.477 L 124.935 5.917 L 122.006 5.841 L 121.867 11.179 L 125.516 11.274 L 125.478 12.733 ZM 128.828 13.036 L 126.909 12.833 L 128.005 2.491 L 129.924 2.694 L 129.817 3.708 C 130.195 3.427 130.605 3.192 131.048 3.004 C 131.489 2.823 131.962 2.759 132.466 2.812 C 132.883 2.857 133.19 3 133.386 3.242 C 133.582 3.477 133.709 3.762 133.768 4.097 C 133.82 4.424 133.829 4.757 133.793 5.095 L 132.906 13.468 L 130.996 13.266 L 131.825 5.44 C 131.864 5.075 131.838 4.784 131.747 4.566 C 131.663 4.35 131.455 4.224 131.123 4.189 C 130.905 4.165 130.672 4.205 130.427 4.306 C 130.182 4.407 129.943 4.536 129.712 4.693 L 128.828 13.036 ZM 137.492 14.413 C 136.961 14.317 136.552 14.142 136.266 13.887 C 135.975 13.624 135.79 13.296 135.712 12.903 C 135.627 12.515 135.629 12.071 135.719 11.573 L 136.926 4.891 L 135.853 4.697 L 136.079 3.447 L 137.152 3.641 L 137.694 0.64 L 139.593 0.983 L 139.051 3.984 L 140.695 4.281 L 140.469 5.531 L 138.825 5.234 L 137.641 11.788 C 137.568 12.195 137.581 12.495 137.682 12.689 C 137.782 12.884 138.013 13.013 138.373 13.079 C 138.472 13.096 138.585 13.11 138.712 13.119 C 138.839 13.129 138.962 13.138 139.083 13.146 L 138.828 14.553 C 138.586 14.543 138.362 14.53 138.155 14.513 C 137.949 14.489 137.728 14.456 137.492 14.413 ZM 142.942 15.639 C 142.155 15.437 141.583 15.129 141.228 14.715 C 140.881 14.296 140.701 13.764 140.686 13.121 C 140.664 12.482 140.765 11.727 140.988 10.855 L 141.578 8.549 C 141.808 7.651 142.085 6.931 142.41 6.388 C 142.736 5.838 143.158 5.468 143.675 5.277 C 144.185 5.084 144.825 5.086 145.593 5.283 C 146.446 5.501 147.028 5.836 147.339 6.287 C 147.65 6.738 147.786 7.31 147.746 8.002 C 147.7 8.692 147.56 9.495 147.325 10.412 L 147.117 11.226 L 143.145 10.209 L 142.627 12.234 C 142.523 12.641 142.476 12.984 142.488 13.262 C 142.494 13.532 142.569 13.751 142.712 13.918 C 142.849 14.084 143.049 14.2 143.314 14.268 C 143.592 14.339 143.822 14.326 144.005 14.228 C 144.181 14.136 144.326 13.97 144.442 13.731 C 144.558 13.493 144.66 13.205 144.746 12.869 L 144.902 12.259 L 146.723 12.725 L 146.624 13.113 C 146.366 14.12 145.946 14.859 145.365 15.33 C 144.783 15.8 143.976 15.903 142.942 15.639 Z M 143.542 8.659 L 143.403 9.202 L 145.544 9.75 L 145.777 8.839 C 145.883 8.426 145.95 8.068 145.98 7.766 C 146.007 7.47 145.968 7.233 145.862 7.055 C 145.752 6.868 145.538 6.734 145.222 6.653 C 144.925 6.577 144.677 6.59 144.479 6.69 C 144.288 6.793 144.121 7.001 143.979 7.316 C 143.836 7.63 143.691 8.078 143.542 8.659 ZM 149.415 17.416 L 147.596 16.802 L 150.924 6.948 L 152.743 7.563 L 152.273 8.955 C 152.842 8.479 153.342 8.198 153.772 8.111 C 154.207 8.032 154.607 8.055 154.973 8.179 C 155.018 8.194 155.059 8.208 155.097 8.22 C 155.134 8.233 155.186 8.258 155.251 8.294 L 154.573 10.302 C 154.459 10.201 154.321 10.101 154.157 10.003 C 153.993 9.906 153.819 9.826 153.636 9.764 C 153.352 9.668 153.071 9.644 152.795 9.691 C 152.516 9.745 152.201 9.92 151.847 10.215 L 149.415 17.416 ZM 153.428 22.561 L 151.653 21.804 L 157.075 9.092 L 158.85 9.849 L 158.529 10.603 C 158.839 10.453 159.183 10.353 159.559 10.303 C 159.929 10.251 160.32 10.312 160.731 10.488 C 161.227 10.699 161.568 10.997 161.752 11.38 C 161.928 11.767 162.006 12.188 161.986 12.643 C 161.959 13.095 161.883 13.53 161.755 13.947 C 161.626 14.37 161.499 14.726 161.376 15.014 L 160.388 17.332 C 160.1 18.006 159.764 18.617 159.379 19.163 C 158.987 19.706 158.542 20.089 158.041 20.31 C 157.535 20.529 156.966 20.504 156.334 20.234 C 155.991 20.088 155.724 19.872 155.533 19.588 C 155.34 19.31 155.187 19.016 155.072 18.707 L 153.428 22.561 Z M 156.577 18.696 C 156.89 18.83 157.159 18.81 157.384 18.638 C 157.616 18.469 157.83 18.198 158.025 17.824 C 158.227 17.454 158.426 17.039 158.622 16.579 L 159.61 14.261 C 159.78 13.862 159.916 13.485 160.017 13.129 C 160.112 12.771 160.13 12.464 160.073 12.208 C 160.018 11.945 159.835 11.747 159.522 11.614 C 159.289 11.514 159.046 11.472 158.793 11.488 C 158.543 11.497 158.313 11.533 158.105 11.596 L 155.492 17.722 C 155.605 17.916 155.748 18.1 155.92 18.275 C 156.094 18.443 156.313 18.584 156.577 18.696 ZM 162.086 22.831 L 160.383 21.943 L 165.191 12.721 L 166.893 13.609 L 166.214 14.912 C 166.849 14.529 167.386 14.328 167.825 14.309 C 168.267 14.298 168.659 14.382 169.002 14.561 C 169.043 14.583 169.082 14.603 169.117 14.621 C 169.152 14.64 169.2 14.672 169.258 14.717 L 168.279 16.597 C 168.182 16.479 168.06 16.36 167.913 16.238 C 167.766 16.116 167.607 16.011 167.436 15.921 C 167.17 15.782 166.896 15.715 166.616 15.719 C 166.333 15.73 165.994 15.854 165.599 16.091 L 162.086 22.831 ZM 167.184 25.702 L 165.533 24.722 L 170.84 15.778 L 172.491 16.758 L 167.184 25.702 Z M 173.282 15.425 L 171.631 14.445 L 172.662 12.708 L 174.313 13.688 L 173.282 15.425 ZM 170.878 28.246 C 170.177 27.772 169.761 27.168 169.629 26.434 C 169.503 25.705 169.655 24.958 170.084 24.194 L 171.683 24.685 C 171.396 25.288 171.253 25.791 171.253 26.194 C 171.258 26.592 171.445 26.916 171.815 27.166 C 172.102 27.36 172.376 27.425 172.637 27.361 C 172.895 27.302 173.119 27.131 173.309 26.85 C 173.478 26.601 173.574 26.34 173.598 26.067 C 173.622 25.793 173.579 25.47 173.469 25.098 L 172.853 22.833 C 172.731 22.372 172.676 21.912 172.689 21.453 C 172.698 21 172.874 20.52 173.218 20.012 C 173.528 19.554 173.884 19.231 174.285 19.044 C 174.676 18.858 175.094 18.794 175.537 18.853 C 175.98 18.912 176.425 19.093 176.873 19.395 C 177.563 19.863 177.937 20.439 177.997 21.123 C 178.062 21.812 177.907 22.487 177.53 23.15 L 176.185 22.819 C 176.348 22.494 176.466 22.196 176.538 21.923 C 176.608 21.64 176.616 21.392 176.56 21.177 C 176.508 20.956 176.369 20.769 176.142 20.616 C 175.883 20.44 175.616 20.388 175.342 20.46 C 175.072 20.527 174.854 20.682 174.69 20.924 C 174.589 21.073 174.523 21.242 174.492 21.43 C 174.455 21.615 174.47 21.831 174.537 22.077 L 175.113 24.508 C 175.195 24.838 175.253 25.175 175.286 25.519 C 175.318 25.863 175.302 26.214 175.236 26.573 C 175.165 26.927 175.004 27.289 174.754 27.659 C 174.425 28.145 174.049 28.486 173.626 28.683 C 173.207 28.874 172.764 28.932 172.299 28.859 C 171.832 28.776 171.358 28.572 170.878 28.246 ZM 176.656 32.499 C 176.02 31.992 175.625 31.477 175.47 30.954 C 175.326 30.43 175.378 29.871 175.629 29.278 C 175.87 28.686 176.271 28.038 176.832 27.334 L 178.314 25.472 C 178.892 24.747 179.44 24.203 179.958 23.841 C 180.481 23.473 181.018 23.308 181.567 23.345 C 182.112 23.379 182.695 23.642 183.315 24.136 C 184.004 24.685 184.397 25.228 184.496 25.767 C 184.596 26.306 184.485 26.883 184.166 27.498 C 183.842 28.109 183.385 28.785 182.795 29.526 L 182.272 30.183 L 179.064 27.629 L 177.762 29.264 C 177.501 29.592 177.318 29.886 177.215 30.144 C 177.11 30.393 177.089 30.623 177.151 30.835 C 177.207 31.042 177.343 31.23 177.556 31.401 C 177.781 31.579 177.996 31.661 178.203 31.647 C 178.401 31.635 178.602 31.543 178.806 31.373 C 179.009 31.203 179.219 30.982 179.435 30.711 L 179.828 30.218 L 181.298 31.389 L 181.049 31.702 C 180.401 32.515 179.716 33.018 178.993 33.209 C 178.269 33.4 177.491 33.163 176.656 32.499 Z M 180.061 26.377 L 179.712 26.815 L 181.441 28.192 L 182.026 27.456 C 182.292 27.123 182.5 26.824 182.651 26.56 C 182.797 26.302 182.858 26.069 182.835 25.863 C 182.811 25.648 182.671 25.438 182.415 25.235 C 182.175 25.044 181.944 24.954 181.722 24.965 C 181.506 24.98 181.268 25.101 181.01 25.33 C 180.751 25.559 180.435 25.908 180.061 26.377 Z" transform="matrix(0.9142510294914246, 0, 0, 0.9142510294914246, 267.3276062011719, 212.88975524902344)" style="fill: rgb(255, 255, 255); stroke-width: 0.5px; white-space: pre;"/>
      <path d="M 322.613 421.186 C 321.799 420.743 321.243 420.216 320.946 419.606 C 320.651 418.99 320.573 418.291 320.711 417.508 C 320.854 416.728 321.181 415.87 321.692 414.934 L 324.059 410.587 C 324.579 409.632 325.121 408.876 325.683 408.317 C 326.243 407.749 326.873 407.428 327.574 407.354 C 328.275 407.28 329.082 407.492 329.995 407.989 C 330.809 408.433 331.391 408.925 331.742 409.465 C 332.09 410.011 332.222 410.626 332.138 411.309 C 332.06 411.995 331.789 412.766 331.323 413.621 L 331.06 414.104 L 329.356 413.176 L 329.576 412.772 C 329.882 412.21 330.096 411.727 330.218 411.322 C 330.336 410.924 330.329 410.574 330.197 410.274 C 330.058 409.971 329.743 409.686 329.251 409.418 C 328.718 409.127 328.265 409.04 327.891 409.155 C 327.517 409.27 327.186 409.523 326.898 409.912 C 326.604 410.299 326.31 410.761 326.017 411.3 L 323.395 416.112 C 323.054 416.739 322.817 417.285 322.684 417.752 C 322.552 418.219 322.555 418.623 322.696 418.965 C 322.842 419.31 323.152 419.612 323.626 419.87 C 324.094 420.125 324.519 420.209 324.901 420.121 C 325.28 420.039 325.639 419.805 325.978 419.42 C 326.31 419.032 326.655 418.51 327.013 417.855 L 327.5 416.959 L 325.85 416.06 L 326.548 414.778 L 329.841 416.571 L 326.335 423.008 L 325.193 422.386 L 325.831 420.798 C 325.394 421.182 324.909 421.431 324.377 421.543 C 323.845 421.656 323.257 421.537 322.613 421.186 ZM 330.725 425.105 C 330.008 424.797 329.505 424.407 329.214 423.934 C 328.921 423.467 328.805 422.928 328.865 422.315 C 328.918 421.7 329.102 421.027 329.414 420.298 L 330.625 417.477 C 330.938 416.748 331.299 416.152 331.708 415.689 C 332.111 415.224 332.582 414.936 333.123 414.827 C 333.665 414.712 334.295 414.808 335.012 415.116 C 335.729 415.423 336.226 415.811 336.504 416.278 C 336.791 416.743 336.905 417.281 336.845 417.894 C 336.791 418.509 336.608 419.181 336.295 419.91 L 335.084 422.731 C 334.772 423.461 334.411 424.056 334.002 424.519 C 333.599 424.985 333.13 425.274 332.596 425.385 C 332.066 425.506 331.442 425.412 330.725 425.105 Z M 331.297 423.772 C 331.64 423.919 331.925 423.922 332.153 423.781 C 332.381 423.639 332.581 423.409 332.754 423.091 C 332.92 422.771 333.08 422.433 333.232 422.078 L 334.537 419.036 C 334.698 418.663 334.835 418.308 334.95 417.973 C 335.059 417.635 335.086 417.335 335.032 417.072 C 334.98 416.803 334.783 416.595 334.44 416.448 C 334.091 416.298 333.798 416.296 333.562 416.441 C 333.328 416.58 333.129 416.807 332.965 417.121 C 332.795 417.433 332.63 417.775 332.47 418.149 L 331.164 421.191 C 331.012 421.546 330.88 421.896 330.769 422.24 C 330.651 422.581 330.623 422.884 330.683 423.15 C 330.743 423.415 330.948 423.622 331.297 423.772 ZM 337.036 427.548 C 336.644 427.417 336.333 427.188 336.105 426.859 C 335.884 426.533 335.742 426.166 335.681 425.759 C 335.628 425.348 335.666 424.946 335.797 424.554 C 336.005 423.928 336.285 423.434 336.636 423.073 C 336.988 422.713 337.392 422.447 337.85 422.275 C 338.316 422.1 338.826 421.981 339.38 421.92 C 339.932 421.864 340.509 421.821 341.11 421.788 L 341.346 421.077 C 341.481 420.672 341.57 420.329 341.614 420.049 C 341.652 419.766 341.62 419.534 341.518 419.353 C 341.417 419.172 341.224 419.034 340.939 418.939 C 340.686 418.855 340.462 418.844 340.266 418.905 C 340.07 418.967 339.901 419.093 339.76 419.285 C 339.619 419.477 339.5 419.719 339.403 420.01 L 339.236 420.513 L 337.421 419.825 C 337.814 418.726 338.342 417.992 339.006 417.623 C 339.668 417.259 340.508 417.247 341.526 417.585 C 342.519 417.915 343.135 418.422 343.371 419.105 C 343.608 419.788 343.555 420.645 343.212 421.676 L 341.689 426.259 C 341.586 426.569 341.493 426.872 341.409 427.167 C 341.331 427.465 341.267 427.742 341.217 427.999 C 341.16 428.254 341.108 428.497 341.059 428.727 L 339.361 428.162 C 339.384 427.966 339.417 427.717 339.461 427.416 C 339.505 427.114 339.552 426.845 339.603 426.609 C 339.358 426.964 339.015 427.257 338.573 427.489 C 338.124 427.72 337.612 427.739 337.036 427.548 Z M 338.299 426.187 C 338.483 426.248 338.674 426.255 338.872 426.208 C 339.066 426.153 339.248 426.08 339.419 425.99 C 339.596 425.901 339.719 425.826 339.788 425.765 L 340.734 422.918 C 340.391 422.979 340.065 423.05 339.757 423.131 C 339.452 423.205 339.171 423.301 338.913 423.419 C 338.665 423.533 338.449 423.686 338.266 423.878 C 338.084 424.064 337.946 424.302 337.849 424.593 C 337.714 424.998 337.681 425.342 337.749 425.624 C 337.825 425.903 338.008 426.09 338.299 426.187 ZM 344.761 429.68 L 342.864 429.185 L 346.609 414.856 L 348.505 415.351 L 344.761 429.68 ZM 353.118 431.364 L 351.067 431.084 L 353.074 416.41 L 356.026 416.814 C 357.01 416.949 357.802 417.188 358.401 417.532 C 359.006 417.878 359.425 418.359 359.657 418.976 C 359.889 419.593 359.941 420.367 359.813 421.299 C 359.736 421.867 359.603 422.373 359.414 422.818 C 359.231 423.271 358.986 423.638 358.678 423.919 C 358.37 424.2 357.989 424.383 357.533 424.469 L 358.607 432.115 L 356.635 431.845 L 355.655 424.696 L 354.06 424.478 L 353.118 431.364 Z M 354.924 418.157 L 354.26 423.012 L 355.043 423.119 C 355.618 423.198 356.096 423.189 356.48 423.093 C 356.863 422.998 357.164 422.787 357.384 422.46 C 357.597 422.133 357.746 421.655 357.832 421.028 C 357.949 420.169 357.879 419.527 357.621 419.101 C 357.355 418.681 356.757 418.408 355.826 418.28 L 354.924 418.157 ZM 363.248 432.502 C 362.422 432.464 361.79 432.271 361.352 431.924 C 360.921 431.584 360.629 431.097 360.478 430.463 C 360.334 429.822 360.283 429.046 360.325 428.133 L 360.435 425.726 C 360.478 424.787 360.604 424.012 360.812 423.401 C 361.027 422.783 361.369 422.328 361.836 422.036 C 362.31 421.737 362.947 421.607 363.746 421.643 C 364.638 421.684 365.286 421.897 365.689 422.283 C 366.091 422.668 366.344 423.207 366.445 423.899 C 366.547 424.598 366.575 425.427 366.531 426.386 L 366.492 427.245 L 362.326 427.054 L 362.229 429.172 C 362.21 429.598 362.234 429.946 362.301 430.216 C 362.369 430.493 362.489 430.698 362.663 430.833 C 362.831 430.968 363.054 431.041 363.334 431.054 C 363.627 431.068 363.853 431.008 364.013 430.875 C 364.173 430.742 364.285 430.547 364.35 430.29 C 364.416 430.026 364.456 429.718 364.473 429.365 L 364.502 428.725 L 366.41 428.813 L 366.391 429.222 C 366.343 430.281 366.078 431.103 365.597 431.689 C 365.116 432.281 364.333 432.552 363.248 432.502 Z M 362.401 425.426 L 362.375 425.995 L 364.623 426.098 L 364.666 425.149 C 364.686 424.71 364.68 424.339 364.647 424.037 C 364.614 423.735 364.525 423.508 364.378 423.354 C 364.232 423.194 363.996 423.106 363.669 423.091 C 363.35 423.077 363.103 423.139 362.93 423.278 C 362.764 423.417 362.639 423.658 362.557 424.001 C 362.481 424.345 362.429 424.819 362.401 425.426 ZM 369.946 432.582 C 369.533 432.595 369.163 432.487 368.835 432.258 C 368.514 432.028 368.255 431.733 368.056 431.372 C 367.864 431.005 367.762 430.615 367.748 430.202 C 367.727 429.542 367.819 428.982 368.024 428.522 C 368.229 428.062 368.517 427.672 368.887 427.354 C 369.263 427.028 369.701 426.74 370.2 426.491 C 370.699 426.248 371.225 426.007 371.777 425.769 L 371.753 425.02 C 371.739 424.593 371.704 424.241 371.649 423.962 C 371.586 423.684 371.476 423.478 371.318 423.343 C 371.161 423.208 370.932 423.145 370.632 423.155 C 370.365 423.164 370.151 423.231 369.988 423.356 C 369.825 423.481 369.711 423.658 369.645 423.887 C 369.579 424.116 369.551 424.384 369.561 424.69 L 369.578 425.22 L 367.637 425.203 C 367.626 424.036 367.867 423.164 368.362 422.588 C 368.858 422.018 369.642 421.716 370.714 421.681 C 371.76 421.648 372.513 421.91 372.971 422.469 C 373.429 423.028 373.676 423.85 373.711 424.936 L 373.867 429.764 C 373.878 430.09 373.895 430.407 373.918 430.713 C 373.948 431.018 373.984 431.301 374.026 431.56 C 374.061 431.819 374.095 432.064 374.129 432.297 L 372.34 432.354 C 372.294 432.163 372.239 431.918 372.176 431.619 C 372.113 431.321 372.065 431.053 372.03 430.814 C 371.924 431.231 371.703 431.625 371.368 431.996 C 371.027 432.367 370.553 432.562 369.946 432.582 Z M 370.661 430.868 C 370.855 430.862 371.036 430.803 371.206 430.69 C 371.369 430.572 371.515 430.44 371.643 430.296 C 371.779 430.151 371.869 430.039 371.913 429.957 L 371.816 426.959 C 371.514 427.135 371.233 427.314 370.973 427.496 C 370.711 427.671 370.481 427.859 370.28 428.059 C 370.086 428.252 369.937 428.47 369.831 428.714 C 369.726 428.951 369.678 429.222 369.688 429.529 C 369.701 429.955 369.789 430.289 369.95 430.531 C 370.118 430.766 370.355 430.878 370.661 430.868 ZM 377.971 431.935 L 376.019 432.113 L 374.676 417.364 L 376.628 417.186 L 377.971 431.935 ZM 382.014 431.447 L 380.081 431.7 L 378.71 421.219 L 380.644 420.966 L 382.014 431.447 Z M 380.44 419.409 L 378.507 419.662 L 378.241 417.63 L 380.175 417.377 L 380.44 419.409 ZM 388.95 430.273 L 383.775 431.212 L 383.539 429.913 L 385.327 421.672 L 382.464 422.191 L 382.203 420.755 L 387.142 419.859 L 387.332 420.902 L 385.557 429.385 L 388.686 428.817 L 388.95 430.273 ZM 392.278 429.657 C 391.877 429.756 391.492 429.727 391.124 429.571 C 390.762 429.414 390.446 429.179 390.177 428.868 C 389.913 428.549 389.731 428.189 389.632 427.787 C 389.473 427.147 389.446 426.58 389.551 426.087 C 389.656 425.594 389.856 425.153 390.151 424.764 C 390.451 424.367 390.819 423.995 391.255 423.646 C 391.692 423.305 392.156 422.96 392.647 422.612 L 392.467 421.884 C 392.365 421.47 392.257 421.132 392.145 420.872 C 392.026 420.613 391.875 420.434 391.692 420.335 C 391.51 420.235 391.273 420.222 390.982 420.294 C 390.723 420.358 390.527 420.468 390.394 420.625 C 390.261 420.781 390.186 420.978 390.17 421.216 C 390.153 421.454 390.181 421.721 390.255 422.019 L 390.382 422.533 L 388.48 422.922 C 388.225 421.783 388.28 420.88 388.644 420.213 C 389.01 419.553 389.713 419.093 390.755 418.836 C 391.771 418.584 392.562 418.684 393.126 419.135 C 393.691 419.586 394.104 420.339 394.365 421.394 L 395.525 426.082 C 395.603 426.4 395.686 426.705 395.772 427 C 395.865 427.293 395.959 427.561 396.054 427.806 C 396.142 428.052 396.228 428.285 396.309 428.505 L 394.572 428.935 C 394.487 428.757 394.382 428.528 394.258 428.25 C 394.134 427.972 394.031 427.719 393.947 427.493 C 393.93 427.923 393.796 428.354 393.546 428.787 C 393.29 429.221 392.867 429.511 392.278 429.657 Z M 392.62 427.831 C 392.807 427.785 392.973 427.689 393.115 427.544 C 393.25 427.394 393.365 427.235 393.461 427.067 C 393.563 426.897 393.627 426.768 393.653 426.679 L 392.933 423.767 C 392.675 424.002 392.438 424.236 392.221 424.469 C 392.002 424.694 391.815 424.926 391.661 425.163 C 391.512 425.393 391.411 425.637 391.358 425.897 C 391.304 426.151 391.314 426.427 391.388 426.725 C 391.49 427.139 391.646 427.447 391.854 427.65 C 392.067 427.844 392.322 427.905 392.62 427.831 ZM 400.554 427.346 C 400.032 427.509 399.581 427.541 399.202 427.442 C 398.82 427.338 398.5 427.13 398.243 426.819 C 397.984 426.501 397.778 426.098 397.626 425.608 L 395.58 419.028 L 394.51 419.361 L 394.124 418.12 L 395.194 417.787 L 394.276 414.836 L 396.148 414.254 L 397.065 417.205 L 398.689 416.7 L 399.075 417.941 L 397.451 418.446 L 399.459 424.901 C 399.583 425.302 399.735 425.566 399.914 425.692 C 400.095 425.824 400.363 425.835 400.72 425.724 C 400.815 425.694 400.922 425.654 401.039 425.604 C 401.156 425.554 401.273 425.503 401.39 425.453 L 401.82 426.837 C 401.594 426.943 401.386 427.035 401.195 427.116 C 401.003 427.196 400.79 427.273 400.554 427.346 ZM 405.174 425.596 L 403.339 426.255 L 399.764 416.308 L 401.599 415.649 L 405.174 425.596 Z M 401.068 414.171 L 399.233 414.83 L 398.54 412.901 L 400.375 412.242 L 401.068 414.171 ZM 409.821 423.921 C 409.101 424.223 408.471 424.314 407.929 424.194 C 407.39 424.081 406.921 423.79 406.521 423.321 C 406.116 422.855 405.76 422.256 405.453 421.524 L 404.265 418.694 C 403.958 417.962 403.78 417.288 403.731 416.673 C 403.677 416.059 403.798 415.521 404.094 415.056 C 404.389 414.586 404.895 414.2 405.614 413.898 C 406.334 413.596 406.958 413.507 407.488 413.632 C 408.021 413.748 408.487 414.041 408.886 414.509 C 409.291 414.976 409.647 415.574 409.954 416.306 L 411.142 419.137 C 411.449 419.868 411.627 420.542 411.676 421.158 C 411.731 421.771 411.613 422.308 411.322 422.77 C 411.04 423.236 410.54 423.619 409.821 423.921 Z M 409.26 422.584 C 409.604 422.439 409.804 422.236 409.86 421.974 C 409.917 421.712 409.89 421.408 409.782 421.063 C 409.667 420.721 409.535 420.372 409.385 420.015 L 408.105 416.963 C 407.947 416.588 407.788 416.243 407.627 415.927 C 407.459 415.614 407.262 415.386 407.036 415.243 C 406.806 415.093 406.52 415.09 406.176 415.235 C 405.825 415.382 405.62 415.591 405.56 415.862 C 405.498 416.127 405.523 416.427 405.635 416.763 C 405.741 417.102 405.872 417.459 406.03 417.834 L 407.311 420.886 C 407.46 421.242 407.62 421.58 407.79 421.899 C 407.954 422.221 408.152 422.452 408.385 422.593 C 408.618 422.734 408.909 422.731 409.26 422.584 ZM 416.058 420.909 L 414.32 421.795 L 409.518 412.379 L 411.256 411.493 L 411.728 412.419 C 411.9 411.965 412.124 411.536 412.398 411.135 C 412.672 410.733 413.034 410.417 413.486 410.187 C 413.866 409.993 414.207 409.943 414.509 410.036 C 414.811 410.129 415.077 410.3 415.309 410.548 C 415.538 410.806 415.729 411.086 415.884 411.389 L 419.772 419.014 L 418.035 419.9 L 414.405 412.783 C 414.233 412.444 414.049 412.208 413.854 412.076 C 413.665 411.94 413.419 411.95 413.116 412.104 C 412.92 412.204 412.744 412.365 412.588 412.587 C 412.432 412.809 412.298 413.053 412.187 413.319 L 416.058 420.909 Z" transform="matrix(1, 0, 0, 1, 3.5719878673553467, -8.700501441955566)" style="fill: rgb(255, 255, 255); line-height: 27.7932px; stroke-width: 0.639975px; white-space: pre;"/>
      <path d="M 311.988 274.41 L 310.147 275.356 L 303.373 262.175 L 308.469 259.556 L 309.146 260.872 L 305.89 262.545 L 308.148 266.939 L 310.674 265.641 L 311.342 266.94 L 308.816 268.238 L 311.988 274.41 ZM 321.891 269.915 L 316.489 272.186 L 310.746 258.524 L 312.654 257.721 L 317.824 270.019 L 321.318 268.55 L 321.891 269.915 ZM 328.781 267.674 L 323.267 269.439 L 318.749 255.324 L 324.226 253.571 L 324.692 255.029 L 321.187 256.15 L 322.684 260.827 L 325.522 259.918 L 325.967 261.309 L 323.129 262.217 L 324.787 267.398 L 328.33 266.264 L 328.781 267.674 ZM 331.371 267.041 L 329.491 267.429 L 330.947 259.205 L 326.543 252.905 L 328.423 252.517 L 331.694 257.182 L 332.634 251.647 L 334.524 251.257 L 332.941 258.967 L 337.658 265.743 L 335.778 266.131 L 332.289 261.154 L 331.371 267.041 ZM 341.161 265.428 L 339.143 265.653 L 337.501 250.924 L 339.519 250.699 L 341.161 265.428 ZM 347.507 265.111 L 343.547 265.15 L 343.404 250.33 L 346.813 250.297 C 347.48 250.291 348.061 250.359 348.555 250.5 C 349.057 250.642 349.472 250.862 349.802 251.158 C 350.131 251.462 350.379 251.85 350.543 252.321 C 350.708 252.786 350.793 253.336 350.799 253.969 C 350.805 254.582 350.733 255.11 350.584 255.551 C 350.435 255.999 350.209 256.355 349.905 256.618 C 349.594 256.874 349.195 257.041 348.709 257.119 C 349.304 257.247 349.786 257.472 350.156 257.795 C 350.526 258.112 350.803 258.522 350.988 259.027 C 351.166 259.532 351.259 260.138 351.266 260.845 C 351.272 261.478 351.204 262.059 351.062 262.587 C 350.921 263.115 350.699 263.564 350.395 263.933 C 350.086 264.303 349.692 264.59 349.214 264.795 C 348.729 264.999 348.16 265.105 347.507 265.111 Z M 345.549 258.07 L 345.603 263.65 L 346.992 263.636 C 347.919 263.627 348.537 263.405 348.846 262.968 C 349.155 262.532 349.305 261.83 349.296 260.864 C 349.29 260.244 349.201 259.725 349.031 259.306 C 348.86 258.888 348.594 258.574 348.231 258.364 C 347.869 258.154 347.385 258.052 346.778 258.058 L 345.549 258.07 Z M 345.488 251.84 L 345.533 256.49 L 346.763 256.478 C 347.35 256.472 347.806 256.388 348.131 256.225 C 348.456 256.055 348.683 255.786 348.813 255.418 C 348.949 255.05 349.015 254.573 349.009 253.986 C 349.003 253.306 348.894 252.814 348.685 252.509 C 348.469 252.205 348.143 252.015 347.709 251.939 C 347.269 251.863 346.692 251.829 345.978 251.835 L 345.488 251.84 ZM 355.251 265.499 L 353.23 265.312 L 354.59 250.555 L 356.611 250.741 L 355.251 265.499 ZM 363.398 266.776 L 357.627 265.758 L 360.203 251.163 L 362.242 251.523 L 359.923 264.66 L 363.655 265.319 L 363.398 266.776 ZM 366.833 267.706 L 364.869 267.195 L 368.597 252.852 L 370.562 253.363 L 366.833 267.706 ZM 372.615 269.533 L 370.657 268.861 L 374.971 256.291 L 372.597 255.476 L 373.093 254.029 L 379.724 256.304 L 379.227 257.751 L 376.929 256.962 L 372.615 269.533 ZM 380.114 272.624 L 378.31 271.807 L 380.468 267.043 L 381.511 256.987 L 383.26 257.779 L 382.377 265.229 L 387.359 259.637 L 389.126 260.437 L 382.272 267.86 L 380.114 272.624 Z" transform="matrix(0.8004570007324219, -0.5993940234184265, 0.5993940234184265, 0.8004570007324219, -104.20686340332031, 260.4049072265625)" style="fill: rgb(255, 255, 255); line-height: 21.942px; stroke-width: 0.639974px; text-transform: uppercase; white-space: pre;"/>
      <path d="M 369.713 215.448 C 368.773 215.43 367.997 215.216 367.384 214.804 C 366.765 214.386 366.302 213.821 365.995 213.108 C 365.682 212.389 365.507 211.559 365.471 210.618 L 367.501 210.116 C 367.53 210.696 367.61 211.255 367.74 211.79 C 367.87 212.333 368.092 212.777 368.405 213.123 C 368.719 213.469 369.166 213.647 369.746 213.658 C 370.332 213.669 370.782 213.514 371.095 213.193 C 371.401 212.872 371.559 212.401 371.571 211.781 C 371.585 211.041 371.429 210.445 371.104 209.992 C 370.772 209.54 370.357 209.078 369.859 208.609 L 367.164 206.149 C 366.64 205.666 366.256 205.145 366.013 204.587 C 365.764 204.029 365.646 203.34 365.661 202.52 C 365.684 201.327 366.044 200.407 366.743 199.76 C 367.441 199.119 368.381 198.81 369.56 198.832 C 370.2 198.844 370.765 198.938 371.256 199.113 C 371.739 199.289 372.141 199.553 372.461 199.906 C 372.788 200.265 373.043 200.71 373.226 201.24 C 373.41 201.77 373.529 202.393 373.582 203.107 L 371.643 203.591 C 371.613 203.057 371.542 202.566 371.43 202.117 C 371.318 201.662 371.112 201.294 370.81 201.015 C 370.515 200.737 370.088 200.592 369.528 200.582 C 368.961 200.571 368.519 200.713 368.2 201.007 C 367.881 201.301 367.716 201.745 367.705 202.338 C 367.696 202.831 367.772 203.24 367.933 203.563 C 368.093 203.892 368.357 204.227 368.724 204.567 L 371.439 207.028 C 372.042 207.579 372.574 208.229 373.033 208.978 C 373.486 209.733 373.703 210.621 373.684 211.64 C 373.669 212.447 373.489 213.137 373.145 213.711 C 372.801 214.291 372.333 214.729 371.741 215.025 C 371.155 215.321 370.479 215.462 369.713 215.448 ZM 379.354 215.632 L 377.088 215.509 L 377.883 200.931 L 375.127 200.78 L 375.219 199.093 L 382.917 199.513 L 382.825 201.2 L 380.149 201.054 L 379.354 215.632 ZM 385.9 216.168 L 383.648 215.884 L 385.689 199.722 L 388.943 200.133 C 390.014 200.268 390.886 200.523 391.558 200.897 C 392.23 201.271 392.694 201.796 392.951 202.474 C 393.209 203.145 393.273 203.993 393.144 205.018 C 393.065 205.646 392.927 206.207 392.73 206.699 C 392.533 207.199 392.266 207.605 391.931 207.919 C 391.596 208.233 391.177 208.438 390.674 208.536 L 391.942 216.931 L 389.769 216.657 L 388.613 208.81 L 386.857 208.588 L 385.9 216.168 Z M 387.737 201.624 L 387.061 206.971 L 387.914 207.079 C 388.556 207.16 389.085 207.146 389.502 207.038 C 389.927 206.923 390.256 206.686 390.489 206.326 C 390.723 205.965 390.884 205.438 390.971 204.744 C 391.091 203.798 391.005 203.095 390.713 202.635 C 390.416 202.174 389.757 201.879 388.739 201.75 L 387.737 201.624 ZM 395.161 217.673 L 393.111 217.096 L 400.859 202.354 L 402.967 202.948 L 401.899 219.571 L 399.829 218.988 L 400.229 214.841 L 397.033 213.941 L 395.161 217.673 Z M 401.054 205.755 L 397.764 212.454 L 400.382 213.191 L 401.054 205.755 ZM 406.357 222.012 L 404.35 220.951 L 411.171 208.043 L 408.73 206.753 L 409.52 205.259 L 416.337 208.861 L 415.547 210.355 L 413.178 209.103 L 406.357 222.012 ZM 414.983 227.983 L 409.894 224.185 L 419.638 211.13 L 424.695 214.904 L 423.684 216.259 L 420.446 213.842 L 417.222 218.162 L 419.851 220.124 L 418.888 221.414 L 416.259 219.452 L 412.688 224.236 L 415.958 226.677 L 414.983 227.983 ZM 419.19 231.736 C 418.401 231.09 417.909 230.407 417.715 229.687 C 417.519 228.958 417.578 228.187 417.89 227.374 C 418.207 226.556 418.735 225.696 419.475 224.794 L 422.929 220.579 C 423.685 219.656 424.425 218.947 425.148 218.454 C 425.872 217.961 426.62 217.747 427.394 217.812 C 428.163 217.873 428.988 218.265 429.87 218.987 C 430.659 219.634 431.185 220.285 431.449 220.941 C 431.719 221.601 431.737 222.293 431.506 223.017 C 431.279 223.736 430.825 224.511 430.145 225.341 L 429.758 225.813 L 428.111 224.463 L 428.434 224.068 C 428.882 223.522 429.214 223.044 429.429 222.634 C 429.64 222.229 429.704 221.851 429.622 221.499 C 429.539 221.147 429.258 220.775 428.779 220.382 C 428.258 219.955 427.784 219.765 427.358 219.812 C 426.932 219.859 426.521 220.066 426.126 220.432 C 425.736 220.793 425.327 221.234 424.9 221.754 L 421.078 226.418 C 420.584 227.022 420.216 227.56 419.974 228.034 C 419.728 228.514 419.648 228.953 419.735 229.351 C 419.827 229.754 420.1 230.142 420.554 230.514 C 421.013 230.89 421.455 231.071 421.88 231.057 C 422.305 231.043 422.739 230.861 423.183 230.509 C 423.622 230.162 424.101 229.671 424.621 229.037 L 425.337 228.163 L 423.736 226.851 L 424.757 225.606 L 427.943 228.217 L 422.829 234.459 L 421.73 233.559 L 422.745 231.973 C 422.195 232.298 421.62 232.469 421.02 232.485 C 420.424 232.497 419.814 232.247 419.19 231.736 ZM 428.186 238.676 L 426.472 237.346 L 429.996 232.803 L 433.675 222.317 L 435.342 223.61 L 432.5 231.353 L 439.253 226.644 L 440.936 227.95 L 431.711 234.133 L 428.186 238.676 Z" transform="matrix(0.8902789354324341, 0.45541703701019287, -0.45541703701019287, 0.8902789354324341, 166.55673217773438, -104.99739074707031)" style="fill: rgb(255, 255, 255); line-height: 42.0759px; stroke-width: 0.639975px; text-transform: uppercase; white-space: pre;"/>
      <path d="M 370.276 346.128 L 368.857 344.621 L 379.641 334.469 L 383.568 338.641 L 382.491 339.655 L 379.982 336.991 L 376.392 340.37 L 378.332 342.43 L 377.262 343.438 L 375.322 341.378 L 370.276 346.128 ZM 376.573 352.5 C 375.829 351.831 375.364 351.153 375.176 350.464 C 374.997 349.775 375.052 349.076 375.34 348.367 C 375.637 347.657 376.113 346.937 376.768 346.208 L 380.517 342.035 C 381.168 341.311 381.826 340.773 382.492 340.422 C 383.153 340.075 383.829 339.961 384.52 340.079 C 385.206 340.203 385.921 340.599 386.665 341.268 C 387.409 341.936 387.875 342.605 388.061 343.275 C 388.239 343.945 388.195 344.627 387.93 345.321 C 387.656 346.016 387.193 346.725 386.543 347.449 L 382.78 351.637 C 382.134 352.356 381.473 352.896 380.799 353.258 C 380.119 353.616 379.432 353.747 378.738 353.652 C 378.039 353.552 377.317 353.168 376.573 352.5 Z M 377.656 351.295 C 378.063 351.66 378.446 351.852 378.806 351.871 C 379.165 351.889 379.518 351.781 379.865 351.545 C 380.215 351.304 380.573 350.981 380.939 350.574 L 385.276 345.746 C 385.642 345.34 385.921 344.954 386.114 344.59 C 386.302 344.23 386.364 343.878 386.298 343.532 C 386.232 343.186 385.996 342.831 385.589 342.465 C 385.183 342.1 384.801 341.901 384.446 341.868 C 384.09 341.835 383.743 341.931 383.406 342.157 C 383.064 342.388 382.711 342.707 382.345 343.113 L 378.008 347.941 C 377.642 348.347 377.359 348.738 377.157 349.112 C 376.96 349.481 376.892 349.846 376.953 350.206 C 377.015 350.567 377.249 350.929 377.656 351.295 ZM 384.12 358.77 C 383.287 358.126 382.773 357.455 382.58 356.758 C 382.39 356.055 382.436 355.341 382.719 354.615 C 382.993 353.891 383.411 353.165 383.973 352.438 L 387.173 348.3 C 387.784 347.509 388.406 346.89 389.038 346.444 C 389.669 345.987 390.338 345.776 391.046 345.809 C 391.753 345.842 392.524 346.181 393.357 346.825 C 394.09 347.392 394.566 347.975 394.785 348.574 C 395.005 349.174 395.015 349.797 394.818 350.445 C 394.62 351.093 394.248 351.77 393.702 352.477 L 392.986 353.402 L 391.436 352.203 L 392.072 351.381 C 392.41 350.943 392.687 350.542 392.902 350.177 C 393.111 349.808 393.192 349.458 393.145 349.126 C 393.089 348.796 392.834 348.456 392.38 348.105 C 391.921 347.75 391.508 347.587 391.141 347.615 C 390.775 347.652 390.422 347.825 390.081 348.135 C 389.737 348.45 389.379 348.847 389.008 349.327 L 385.417 353.971 C 384.96 354.562 384.649 355.067 384.485 355.487 C 384.314 355.904 384.285 356.269 384.396 356.582 C 384.504 356.901 384.745 357.205 385.119 357.495 C 385.562 357.838 385.959 357.984 386.309 357.935 C 386.655 357.89 386.986 357.713 387.303 357.401 C 387.619 357.09 387.957 356.702 388.316 356.238 L 388.989 355.368 L 390.539 356.567 L 389.866 357.437 C 389.312 358.154 388.737 358.717 388.143 359.126 C 387.549 359.534 386.92 359.726 386.257 359.702 C 385.602 359.676 384.89 359.366 384.12 358.77 ZM 391.932 364.397 C 391.047 363.802 390.485 363.168 390.247 362.494 C 390.009 361.82 390.02 361.105 390.28 360.347 C 390.535 359.587 390.95 358.777 391.526 357.92 L 397.004 349.769 L 398.647 350.874 L 393.119 359.099 C 392.766 359.625 392.479 360.13 392.257 360.616 C 392.039 361.095 391.963 361.543 392.03 361.957 C 392.097 362.371 392.365 362.737 392.836 363.053 C 393.323 363.38 393.768 363.495 394.171 363.396 C 394.575 363.298 394.957 363.057 395.319 362.674 C 395.685 362.285 396.045 361.828 396.398 361.302 L 401.926 353.077 L 403.553 354.171 L 398.075 362.321 C 397.498 363.179 396.909 363.871 396.306 364.397 C 395.703 364.924 395.044 365.204 394.331 365.238 C 393.622 365.276 392.823 364.996 391.932 364.397 ZM 400.196 369.546 C 399.457 369.12 398.929 368.608 398.612 368.01 C 398.304 367.409 398.187 366.757 398.261 366.054 C 398.33 365.347 398.554 364.611 398.934 363.845 L 400.769 364.325 C 400.541 364.801 400.36 365.282 400.227 365.767 C 400.094 366.252 400.076 366.703 400.174 367.121 C 400.272 367.539 400.549 367.879 401.005 368.142 C 401.467 368.409 401.891 368.48 402.278 368.357 C 402.665 368.233 402.998 367.929 403.277 367.443 C 403.613 366.86 403.753 366.317 403.696 365.815 C 403.633 365.31 403.503 364.761 403.305 364.17 L 402.254 361.026 C 402.04 360.41 401.961 359.826 402.018 359.274 C 402.068 358.718 402.278 358.12 402.648 357.479 C 403.19 356.537 403.88 355.961 404.717 355.751 C 405.556 355.549 406.438 355.715 407.362 356.248 C 407.87 356.54 408.28 356.865 408.59 357.221 C 408.904 357.571 409.111 357.959 409.211 358.386 C 409.305 358.81 409.311 359.275 409.227 359.781 C 409.138 360.283 408.96 360.831 408.695 361.425 L 406.931 360.962 C 407.148 360.518 407.309 360.091 407.414 359.682 C 407.525 359.277 407.522 358.894 407.406 358.535 C 407.292 358.185 407.013 357.882 406.568 357.625 C 406.129 357.372 405.717 357.293 405.332 357.386 C 404.947 357.48 404.62 357.761 404.351 358.229 C 404.128 358.616 404.009 358.975 403.996 359.306 C 403.976 359.633 404.04 360.016 404.188 360.455 L 405.261 363.6 C 405.503 364.302 405.639 365.053 405.669 365.856 C 405.703 366.652 405.488 367.452 405.026 368.255 C 404.66 368.89 404.214 369.364 403.687 369.676 C 403.159 369.98 402.593 370.119 401.992 370.096 C 401.395 370.075 400.797 369.892 400.196 369.546 Z" transform="matrix(-0.23852600157260895, -1.0021469593048096, 0.9673510789871216, -0.2302439957857132, 192.91726684570312, 820.202392578125)" style="fill: rgb(255, 255, 255); stroke-width: 0.632225px; text-transform: uppercase; white-space: pre;"/>
      <path d="M 365.859 400.035 L 363.789 400.035 L 363.789 385.215 L 366.779 385.215 C 367.766 385.215 368.582 385.345 369.229 385.605 C 369.876 385.865 370.352 386.285 370.659 386.865 C 370.972 387.445 371.129 388.205 371.129 389.145 C 371.129 389.718 371.069 390.242 370.949 390.715 C 370.829 391.182 370.632 391.578 370.359 391.905 C 370.092 392.225 369.739 392.458 369.299 392.605 L 371.409 400.035 L 369.409 400.035 L 367.469 393.085 L 365.859 393.085 L 365.859 400.035 Z M 365.859 386.695 L 365.859 391.595 L 366.649 391.595 C 367.236 391.595 367.712 391.522 368.079 391.375 C 368.439 391.228 368.706 390.978 368.879 390.625 C 369.052 390.272 369.139 389.778 369.139 389.145 C 369.139 388.278 368.979 387.655 368.659 387.275 C 368.339 386.888 367.712 386.695 366.779 386.695 L 365.859 386.695 ZM 376.394 400.195 C 375.727 400.195 375.15 400.052 374.664 399.765 C 374.184 399.478 373.82 399.085 373.574 398.585 C 373.32 398.085 373.194 397.512 373.194 396.865 C 373.194 395.925 373.404 395.112 373.824 394.425 C 374.244 393.738 374.754 393.125 375.354 392.585 C 375.134 392.145 374.9 391.705 374.654 391.265 C 374.4 390.818 374.187 390.352 374.014 389.865 C 373.834 389.385 373.744 388.882 373.744 388.355 C 373.744 387.702 373.87 387.128 374.124 386.635 C 374.384 386.148 374.75 385.768 375.224 385.495 C 375.704 385.222 376.267 385.085 376.914 385.085 C 377.507 385.085 378.04 385.195 378.514 385.415 C 378.98 385.635 379.354 385.948 379.634 386.355 C 379.914 386.762 380.054 387.252 380.054 387.825 C 380.054 388.472 379.907 389.092 379.614 389.685 C 379.314 390.278 378.95 390.828 378.524 391.335 C 378.097 391.842 377.68 392.288 377.274 392.675 L 379.504 396.195 C 379.644 395.935 379.757 395.645 379.844 395.325 C 379.937 394.998 380.017 394.652 380.084 394.285 C 380.15 393.918 380.204 393.565 380.244 393.225 L 382.184 393.225 C 382.184 393.705 382.114 394.205 381.974 394.725 C 381.834 395.252 381.654 395.748 381.434 396.215 C 381.214 396.688 380.987 397.088 380.754 397.415 C 380.914 397.615 381.12 397.788 381.374 397.935 C 381.634 398.088 381.907 398.165 382.194 398.165 L 382.194 400.185 C 382.147 400.185 382.104 400.185 382.064 400.185 C 382.017 400.185 381.977 400.185 381.944 400.185 C 381.59 400.172 381.274 400.088 380.994 399.935 C 380.714 399.782 380.46 399.595 380.234 399.375 C 380.007 399.155 379.79 398.948 379.584 398.755 C 379.25 399.168 378.82 399.512 378.294 399.785 C 377.76 400.058 377.127 400.195 376.394 400.195 Z M 376.394 398.575 C 376.86 398.575 377.254 398.462 377.574 398.235 C 377.887 398.008 378.16 397.755 378.394 397.475 L 376.124 393.975 C 375.83 394.355 375.594 394.798 375.414 395.305 C 375.24 395.812 375.154 396.332 375.154 396.865 C 375.154 397.145 375.19 397.418 375.264 397.685 C 375.337 397.945 375.464 398.158 375.644 398.325 C 375.83 398.492 376.08 398.575 376.394 398.575 Z M 376.604 391.615 C 376.857 391.308 377.097 390.948 377.324 390.535 C 377.55 390.122 377.737 389.682 377.884 389.215 C 378.03 388.742 378.104 388.278 378.104 387.825 C 378.104 387.472 377.994 387.195 377.774 386.995 C 377.554 386.795 377.267 386.695 376.914 386.695 C 376.474 386.695 376.16 386.865 375.974 387.205 C 375.794 387.545 375.704 387.928 375.704 388.355 C 375.704 388.922 375.797 389.482 375.984 390.035 C 376.177 390.588 376.384 391.115 376.604 391.615 ZM 387.76 400.035 L 384.37 400.035 L 384.37 385.215 L 387.59 385.215 C 388.69 385.215 389.56 385.382 390.2 385.715 C 390.84 386.048 391.297 386.552 391.57 387.225 C 391.85 387.898 391.99 388.735 391.99 389.735 L 391.99 395.185 C 391.99 396.232 391.85 397.115 391.57 397.835 C 391.297 398.555 390.853 399.102 390.24 399.475 C 389.62 399.848 388.793 400.035 387.76 400.035 Z M 386.44 386.745 L 386.44 398.555 L 387.61 398.555 C 388.37 398.555 388.907 398.408 389.22 398.115 C 389.54 397.822 389.733 397.395 389.8 396.835 C 389.867 396.275 389.9 395.598 389.9 394.805 L 389.9 389.985 C 389.9 389.218 389.85 388.598 389.75 388.125 C 389.657 387.645 389.443 387.295 389.11 387.075 C 388.783 386.855 388.267 386.745 387.56 386.745 L 386.44 386.745 Z" transform="matrix(1, 0, 0, 1, 0, 0)" style="fill: rgb(255, 255, 255); stroke-width: 0.639975px; text-transform: uppercase; white-space: pre;"/>
      <path d="M 286.634 369.67 L 285.111 368.268 L 295.149 357.365 L 299.365 361.246 L 298.362 362.335 L 295.67 359.856 L 292.324 363.491 L 294.413 365.414 L 293.424 366.488 L 291.335 364.565 L 286.634 369.67 ZM 294.888 376.662 L 290.381 373.028 L 299.684 361.492 L 304.16 365.101 L 303.199 366.292 L 300.335 363.982 L 297.253 367.804 L 299.572 369.675 L 298.656 370.811 L 296.336 368.94 L 292.921 373.175 L 295.817 375.51 L 294.888 376.662 ZM 297.165 378.312 L 295.566 377.214 L 306.554 366.783 L 308.194 367.91 L 302.415 381.92 L 300.799 380.81 L 302.351 377.35 L 299.862 375.64 L 297.165 378.312 Z M 305.719 369.764 L 300.936 374.571 L 302.972 375.969 L 305.719 369.764 ZM 306.674 384.556 C 305.932 384.134 305.404 383.626 305.09 383.033 C 304.779 382.434 304.656 381.781 304.721 381.073 C 304.786 380.366 305.007 379.629 305.383 378.861 L 307.22 379.332 C 306.995 379.81 306.816 380.291 306.685 380.777 C 306.555 381.262 306.539 381.714 306.639 382.131 C 306.739 382.549 307.018 382.888 307.475 383.148 C 307.939 383.412 308.366 383.483 308.758 383.361 C 309.144 383.235 309.476 382.929 309.753 382.443 C 310.086 381.858 310.22 381.313 310.155 380.807 C 310.093 380.297 309.964 379.748 309.769 379.161 L 308.689 376.026 C 308.477 375.414 308.395 374.83 308.443 374.275 C 308.491 373.719 308.7 373.117 309.07 372.468 C 309.607 371.523 310.292 370.947 311.125 370.738 C 311.966 370.527 312.853 370.687 313.786 371.218 C 314.296 371.508 314.704 371.829 315.01 372.18 C 315.323 372.534 315.532 372.922 315.637 373.342 C 315.74 373.769 315.747 374.234 315.66 374.736 C 315.579 375.243 315.405 375.792 315.137 376.383 L 313.37 375.929 C 313.582 375.49 313.741 375.063 313.847 374.647 C 313.955 374.241 313.952 373.863 313.837 373.514 C 313.724 373.158 313.445 372.854 312.999 372.6 C 312.553 372.346 312.138 372.266 311.753 372.362 C 311.369 372.458 311.043 372.74 310.776 373.209 C 310.552 373.603 310.434 373.966 310.422 374.296 C 310.41 374.627 310.477 375.007 310.624 375.436 L 311.717 378.59 C 311.963 379.29 312.103 380.041 312.137 380.843 C 312.174 381.639 311.964 382.44 311.505 383.245 C 311.143 383.882 310.696 384.357 310.165 384.669 C 309.638 384.975 309.077 385.119 308.48 385.102 C 307.878 385.081 307.276 384.899 306.674 384.556 ZM 313.247 387.795 L 311.422 386.906 L 317.914 373.584 L 319.739 374.473 L 313.247 387.795 ZM 319.075 390.339 L 315.404 388.855 L 320.957 375.115 L 324.119 376.393 C 324.737 376.643 325.247 376.928 325.649 377.249 C 326.058 377.572 326.358 377.934 326.548 378.335 C 326.736 378.741 326.815 379.194 326.786 379.693 C 326.76 380.186 326.628 380.726 326.391 381.313 C 326.161 381.881 325.892 382.341 325.585 382.691 C 325.276 383.048 324.93 383.289 324.548 383.416 C 324.163 383.533 323.731 383.535 323.252 383.42 C 323.752 383.766 324.111 384.159 324.329 384.6 C 324.549 385.034 324.647 385.519 324.624 386.056 C 324.595 386.591 324.448 387.186 324.183 387.841 C 323.946 388.429 323.661 388.939 323.328 389.372 C 322.994 389.805 322.617 390.135 322.195 390.36 C 321.767 390.582 321.293 390.696 320.773 390.702 C 320.247 390.705 319.681 390.584 319.075 390.339 Z M 319.968 383.085 L 317.878 388.259 L 319.166 388.78 C 320.025 389.127 320.681 389.158 321.134 388.874 C 321.587 388.59 321.995 387.999 322.357 387.103 C 322.589 386.528 322.707 386.015 322.71 385.563 C 322.713 385.111 322.587 384.719 322.333 384.386 C 322.079 384.054 321.671 383.774 321.109 383.546 L 319.968 383.085 Z M 322.303 377.309 L 320.561 381.62 L 321.701 382.081 C 322.245 382.301 322.698 382.398 323.061 382.372 C 323.426 382.34 323.74 382.179 324.001 381.889 C 324.268 381.602 324.511 381.186 324.731 380.642 C 324.986 380.012 325.075 379.515 324.998 379.154 C 324.915 378.789 324.688 378.489 324.316 378.252 C 323.938 378.013 323.419 377.76 322.757 377.493 L 322.303 377.309 ZM 326.383 392.949 L 324.452 392.322 L 329.029 378.227 L 330.959 378.854 L 326.383 392.949 ZM 334.335 395.136 L 328.663 393.661 L 332.392 379.318 L 334.396 379.839 L 331.039 392.75 L 334.707 393.703 L 334.335 395.136 ZM 338.058 395.835 L 336.065 395.451 L 338.873 380.899 L 340.866 381.284 L 338.058 395.835 ZM 343.912 396.707 L 341.859 396.445 L 343.541 383.262 L 341.051 382.944 L 341.244 381.426 L 348.198 382.313 L 348.004 383.831 L 345.594 383.524 L 343.912 396.707 ZM 352.231 397.248 L 350.252 397.197 L 350.384 391.969 L 347.428 382.301 L 349.347 382.35 L 351.436 389.555 L 353.846 382.464 L 355.785 382.513 L 352.363 392.019 L 352.231 397.248 Z" transform="matrix(0.8102250099182129, 0.5861179828643799, -0.5861179828643799, 0.8102250099182129, 275.5256042480469, -140.205810546875)" style="fill: rgb(255, 255, 255); stroke-width: 0.639976px; text-transform: uppercase; white-space: pre;"/>
      <path d="M 372.491 336.57 L 369.926 338.202 L 362.767 326.958 L 365.205 325.406 C 366.043 324.872 366.784 324.578 367.429 324.523 C 368.074 324.469 368.663 324.631 369.197 325.01 C 369.727 325.384 370.234 325.95 370.717 326.709 L 373.354 330.851 C 373.859 331.644 374.181 332.379 374.321 333.057 C 374.463 333.741 374.391 334.372 374.103 334.95 C 373.815 335.529 373.278 336.068 372.491 336.57 Z M 365.077 327.123 L 370.781 336.081 L 371.667 335.518 C 372.24 335.152 372.576 334.78 372.675 334.401 C 372.777 334.028 372.717 333.612 372.496 333.152 C 372.274 332.692 371.972 332.162 371.589 331.56 L 369.263 327.908 C 368.895 327.328 368.557 326.879 368.251 326.56 C 367.944 326.25 367.614 326.093 367.263 326.087 C 366.908 326.076 366.461 326.242 365.921 326.586 L 365.077 327.123 ZM 382.075 331.578 L 377.336 333.718 L 371.851 321.569 L 376.563 319.442 L 377.13 320.699 L 374.114 322.062 L 375.929 326.081 L 378.371 324.978 L 378.914 326.181 L 376.472 327.284 L 378.484 331.741 L 381.528 330.366 L 382.075 331.578 ZM 387.297 330.06 L 385.719 330.467 L 379.506 318.302 L 381.191 317.868 L 385.685 326.851 L 385.181 316.84 L 386.818 316.418 L 387.297 330.06 ZM 396.76 328.958 L 391.567 329.241 L 390.84 315.931 L 396.002 315.649 L 396.078 317.027 L 392.773 317.208 L 393.013 321.611 L 395.689 321.465 L 395.761 322.783 L 393.085 322.929 L 393.352 327.812 L 396.687 327.63 L 396.76 328.958 ZM 403.47 329.729 L 398.251 329.076 L 399.907 315.849 L 401.752 316.08 L 400.262 327.987 L 403.635 328.409 L 403.47 329.729 ZM 407.814 331.184 C 406.959 330.902 406.334 330.51 405.938 330.007 C 405.536 329.503 405.328 328.908 405.316 328.222 C 405.299 327.529 405.428 326.764 405.704 325.929 L 407.286 321.133 C 407.562 320.297 407.91 319.615 408.33 319.087 C 408.754 318.567 409.273 318.229 409.886 318.073 C 410.49 317.922 411.22 317.987 412.075 318.269 C 412.929 318.551 413.553 318.936 413.947 319.424 C 414.341 319.912 414.553 320.491 414.585 321.161 C 414.61 321.829 414.485 322.581 414.209 323.417 L 412.621 328.232 C 412.349 329.055 412.001 329.737 411.577 330.278 C 411.147 330.817 410.626 331.171 410.015 331.342 C 409.402 331.519 408.668 331.466 407.814 331.184 Z M 408.274 329.788 C 408.743 329.943 409.129 329.965 409.432 329.854 C 409.737 329.737 409.988 329.518 410.186 329.197 C 410.389 328.878 410.568 328.485 410.723 328.016 L 412.552 322.47 C 412.707 322.002 412.796 321.582 412.82 321.211 C 412.849 320.848 412.773 320.535 412.593 320.272 C 412.413 320.009 412.089 319.8 411.62 319.646 C 411.152 319.491 410.767 319.466 410.466 319.57 C 410.158 319.672 409.908 319.878 409.715 320.186 C 409.52 320.501 409.345 320.892 409.191 321.361 L 407.361 326.907 C 407.206 327.375 407.113 327.797 407.08 328.173 C 407.048 328.548 407.122 328.875 407.305 329.152 C 407.482 329.422 407.806 329.634 408.274 329.788 ZM 414.629 333.894 L 412.994 333.008 L 419.342 321.287 L 422.252 322.863 C 422.956 323.244 423.447 323.673 423.727 324.151 C 424.01 324.637 424.117 325.173 424.05 325.759 C 423.98 326.35 423.761 326.986 423.393 327.666 C 423.056 328.287 422.657 328.765 422.196 329.099 C 421.732 329.438 421.22 329.613 420.662 329.621 C 420.107 329.639 419.51 329.475 418.871 329.129 L 417.587 328.433 L 414.629 333.894 Z M 420.344 323.342 L 418.22 327.264 L 418.968 327.669 C 419.442 327.926 419.843 328.075 420.17 328.115 C 420.497 328.156 420.79 328.076 421.05 327.875 C 421.314 327.669 421.575 327.326 421.836 326.845 C 422.137 326.288 422.328 325.838 422.408 325.495 C 422.488 325.151 422.428 324.85 422.227 324.589 C 422.033 324.332 421.66 324.055 421.109 323.756 L 420.344 323.342 Z" transform="matrix(0.9959059953689575, 0.09041199833154678, -0.09041199833154678, 0.9959059953689575, 14.820661544799805, -89.90280151367188)" style="fill: rgb(255, 255, 255); stroke-width: 0.639975px; text-transform: uppercase; white-space: pre;"/>
      <path d="M 340.301 329.029 L 337.155 330.672 L 330.984 318.856 L 333.697 317.44 C 334.228 317.162 334.723 316.979 335.181 316.89 C 335.638 316.802 336.061 316.811 336.447 316.917 C 336.834 317.024 337.189 317.229 337.513 317.533 C 337.835 317.847 338.127 318.255 338.389 318.757 C 338.642 319.242 338.802 319.692 338.869 320.108 C 338.934 320.534 338.894 320.911 338.751 321.242 C 338.611 321.578 338.359 321.875 337.997 322.132 C 338.534 321.994 339.014 321.977 339.436 322.08 C 339.868 322.185 340.259 322.402 340.611 322.73 C 340.957 323.061 341.278 323.51 341.574 324.077 C 341.836 324.579 342.021 325.07 342.128 325.548 C 342.229 326.029 342.231 326.479 342.134 326.899 C 342.04 327.324 341.842 327.716 341.542 328.076 C 341.241 328.437 340.827 328.754 340.301 329.029 Z M 335.864 324.182 L 338.188 328.632 L 339.296 328.053 C 340.034 327.668 340.437 327.236 340.503 326.757 C 340.572 326.285 340.406 325.665 340.005 324.897 C 339.746 324.4 339.46 324.019 339.148 323.753 C 338.842 323.484 338.504 323.341 338.134 323.324 C 337.755 323.304 337.324 323.42 336.839 323.673 L 335.864 324.182 Z M 333.272 319.218 L 335.207 322.924 L 336.182 322.414 C 336.649 322.171 336.978 321.916 337.17 321.65 C 337.368 321.381 337.443 321.071 337.395 320.72 C 337.35 320.375 337.206 319.969 336.962 319.502 C 336.678 318.959 336.39 318.609 336.098 318.453 C 335.806 318.297 335.469 318.278 335.087 318.395 C 334.704 318.512 334.229 318.719 333.662 319.015 L 333.272 319.218 ZM 348.17 325.873 C 347.247 326.162 346.48 326.199 345.868 325.986 C 345.265 325.777 344.769 325.366 344.382 324.754 C 343.997 324.148 343.664 323.4 343.385 322.509 L 340.743 314.073 L 342.442 313.541 L 345.108 322.053 C 345.279 322.6 345.47 323.086 345.679 323.509 C 345.897 323.937 346.171 324.242 346.501 324.425 C 346.824 324.611 347.234 324.625 347.73 324.47 C 348.233 324.313 348.561 324.067 348.715 323.732 C 348.875 323.395 348.922 322.989 348.857 322.514 C 348.787 322.047 348.667 321.539 348.496 320.992 L 345.83 312.48 L 347.509 311.954 L 350.151 320.39 C 350.43 321.281 350.584 322.085 350.613 322.802 C 350.644 323.526 350.475 324.145 350.105 324.659 C 349.731 325.181 349.086 325.586 348.17 325.873 ZM 355.382 324.366 L 353.568 324.517 L 352.462 311.233 L 354.276 311.082 L 355.382 324.366 ZM 362.739 325.061 L 357.538 324.273 L 359.536 311.093 L 361.375 311.372 L 359.577 323.236 L 362.938 323.746 L 362.739 325.061 ZM 366.658 326.854 L 363.957 325.458 L 370.079 313.617 L 372.646 314.944 C 373.523 315.397 374.15 315.89 374.527 316.423 C 374.896 316.959 375.052 317.55 374.995 318.196 C 374.936 318.848 374.701 319.571 374.291 320.364 L 372.036 324.726 C 371.604 325.561 371.129 326.212 370.609 326.679 C 370.093 327.14 369.513 327.392 368.868 327.434 C 368.224 327.476 367.487 327.282 366.658 326.854 Z M 371.098 315.697 L 366.22 325.13 L 367.153 325.613 C 367.757 325.925 368.248 326.028 368.625 325.923 C 368.999 325.824 369.329 325.563 369.615 325.141 C 369.901 324.718 370.208 324.19 370.535 323.556 L 372.519 319.719 C 372.838 319.103 373.053 318.584 373.167 318.162 C 373.285 317.743 373.261 317.378 373.092 317.065 C 372.917 316.75 372.549 316.447 371.986 316.156 L 371.098 315.697 Z" transform="matrix(-0.24455398321151733, 0.969639003276825, -0.969639003276825, -0.24455398321151733, 818.4583740234375, 64.66796112060547)" style="fill: rgb(255, 255, 255); line-height: 26.3303px; stroke-width: 0.639973px; text-transform: uppercase; white-space: pre;"/>
      <path d="M 102.35 189.724 L 100.57 189.031 L 108.743 176.566 L 110.57 177.277 L 108.184 191.993 L 106.395 191.297 L 107.1 187.633 L 104.332 186.557 L 102.35 189.724 Z M 108.622 179.609 L 105.113 185.294 L 107.378 186.175 L 108.622 179.609 ZM 112.935 193.056 L 109.678 192.36 L 112.728 178.102 L 115.828 178.765 C 116.884 178.991 117.688 179.33 118.239 179.782 C 118.782 180.239 119.118 180.819 119.247 181.522 C 119.37 182.223 119.328 183.056 119.122 184.021 L 118 189.262 C 117.784 190.273 117.472 191.095 117.063 191.731 C 116.648 192.365 116.106 192.797 115.436 193.029 C 114.766 193.261 113.932 193.27 112.935 193.056 Z M 114.407 180.006 L 111.978 191.359 L 113.103 191.599 C 113.833 191.756 114.378 191.726 114.738 191.509 C 115.104 191.295 115.378 190.924 115.559 190.397 C 115.74 189.869 115.912 189.224 116.075 188.462 L 117.065 183.836 C 117.224 183.093 117.306 182.484 117.313 182.008 C 117.313 181.531 117.178 181.154 116.91 180.879 C 116.637 180.595 116.161 180.381 115.483 180.236 L 114.407 180.006 ZM 120.161 194.279 L 118.259 194.107 L 122.659 179.865 L 124.611 180.042 L 126.396 194.842 L 124.484 194.67 L 124.147 190.954 L 121.189 190.687 L 120.161 194.279 Z M 123.386 182.823 L 121.589 189.257 L 124.009 189.476 L 123.386 182.823 ZM 129.961 194.846 L 127.921 194.856 L 127.845 180.276 L 131.465 180.257 C 132.345 180.253 133.046 180.409 133.567 180.726 C 134.089 181.037 134.471 181.492 134.714 182.09 C 134.958 182.689 135.081 183.415 135.086 184.268 C 135.09 185.035 134.96 185.702 134.696 186.27 C 134.426 186.839 134.028 187.274 133.503 187.577 C 132.978 187.886 132.319 188.043 131.526 188.047 L 129.926 188.056 L 129.961 194.846 Z M 129.892 181.726 L 129.918 186.606 L 130.848 186.601 C 131.441 186.598 131.904 186.528 132.237 186.393 C 132.57 186.258 132.808 186.024 132.953 185.69 C 133.098 185.362 133.169 184.898 133.166 184.298 C 133.162 183.605 133.106 183.072 132.998 182.699 C 132.896 182.327 132.681 182.068 132.353 181.923 C 132.033 181.784 131.529 181.717 130.842 181.721 L 129.892 181.726 ZM 140.227 194.358 L 138.205 194.544 L 137.01 181.529 L 134.55 181.755 L 134.412 180.251 L 141.273 179.621 L 141.411 181.124 L 139.031 181.343 L 140.227 194.358 Z" transform="matrix(0.8469749689102173, 0.34422001242637634, -0.34422001242637634, 0.8469749689102173, 310.06134033203125, 166.83253479003906)" style="fill: rgb(255, 255, 255); stroke-width: 0.7px; text-transform: uppercase; white-space: pre;"/>
      <path d="M 370.283 336.474 L 369.052 337.869 L 359.059 329.046 L 361.25 326.565 C 361.779 325.965 362.308 325.582 362.836 325.417 C 363.374 325.252 363.921 325.267 364.476 325.464 C 365.036 325.666 365.606 326.022 366.186 326.534 C 366.716 327.002 367.091 327.498 367.313 328.023 C 367.54 328.552 367.594 329.089 367.477 329.635 C 367.369 330.18 367.075 330.725 366.594 331.27 L 365.628 332.364 L 370.283 336.474 Z M 361.287 328.532 L 364.631 331.484 L 365.193 330.847 C 365.551 330.442 365.786 330.085 365.899 329.775 C 366.012 329.466 366 329.162 365.863 328.864 C 365.722 328.561 365.446 328.228 365.036 327.867 C 364.561 327.447 364.166 327.16 363.849 327.005 C 363.532 326.85 363.225 326.841 362.926 326.978 C 362.632 327.109 362.278 327.41 361.863 327.88 L 361.287 328.532 ZM 378.643 329.007 L 374.43 332.156 L 366.449 321.479 L 367.939 320.366 L 375.124 329.977 L 377.847 327.942 L 378.643 329.007 ZM 380.707 327.965 L 379.087 328.628 L 376.657 315.22 L 378.323 314.538 L 386.01 325.794 L 384.372 326.465 L 382.544 323.583 L 380.026 324.613 L 380.707 327.965 Z M 378.495 317.309 L 379.754 323.288 L 381.808 322.447 L 378.495 317.309 ZM 388.897 325.431 L 387.321 325.547 L 386.341 312.254 L 387.597 312.161 L 392.028 320.708 L 391.377 311.882 L 392.923 311.768 L 393.903 325.062 L 392.716 325.15 L 388.227 316.356 L 388.897 325.431 Z" transform="matrix(0.5736729502677917, -0.8190869688987732, 0.8190869688987732, 0.5736729502677917, -159.7806396484375, 432.9012756347656)" style="fill: rgb(255, 255, 255); stroke-width: 0.639974px; text-transform: uppercase; white-space: pre;"/>
      <path d="M 373.96 328.237 L 369.7 328.237 L 369.7 308.957 L 373.96 308.957 L 373.96 328.237 ZM 382.863 328.237 L 378.583 328.237 L 378.583 312.127 L 375.673 312.127 L 375.673 308.957 L 385.743 308.957 L 385.743 312.127 L 382.863 312.127 L 382.863 328.237 Z" transform="matrix(1, 0, 0, 1, 0, 0)" style="fill: rgb(255, 255, 255); line-height: 27.7932px; stroke: rgb(38, 38, 38); stroke-width: 0.639975px; text-transform: uppercase; white-space: pre;"/>
    </g>
    <g>
      <title>txt dividers</title>
      <g transform="matrix(0.453219, 0.039615, -0.039615, 0.453219, 127.360771, -77.604462)">
        <title>Divider</title>
        <path d="M 90.253 269.077 L 99.359 284.849 L 81.147 284.849 L 90.253 269.077 Z" style="fill: rgb(255, 71, 15);" transform="matrix(1, 0.000061, -0.000061, 1, -56.872238, -23.485273)"/>
        <path d="M -72.041 -269.077 L -62.935 -253.305 L -81.147 -253.305 L -72.041 -269.077 Z" style="fill: rgb(255, 71, 15);" transform="matrix(1, -0.000061, -0.000061, -1, 105.389198, 7.287455)"/>
      </g>
      <g transform="matrix(0.079013, -0.448033, 0.448033, 0.079013, -75.731476, 108.140877)">
        <title>Divider</title>
        <path d="M 90.253 269.077 L 99.359 284.849 L 81.147 284.849 L 90.253 269.077 Z" style="fill: rgb(255, 71, 15);" transform="matrix(1, 0.000061, -0.000061, 1, -56.872238, -23.485273)"/>
        <path d="M -72.041 -269.077 L -62.935 -253.305 L -81.147 -253.305 L -72.041 -269.077 Z" style="fill: rgb(255, 71, 15);" transform="matrix(1, -0.000061, -0.000061, -1, 105.389198, 7.287455)"/>
      </g>
      <g transform="matrix(0.079013, -0.448033, 0.448033, 0.079013, 87.047935, 115.622902)">
        <title>Divider</title>
        <path d="M 90.253 269.077 L 99.359 284.849 L 81.147 284.849 L 90.253 269.077 Z" style="fill: rgb(255, 71, 15);" transform="matrix(1, 0.000061, -0.000061, 1, -56.872238, -23.485273)"/>
        <path d="M -72.041 -269.077 L -62.935 -253.305 L -81.147 -253.305 L -72.041 -269.077 Z" style="fill: rgb(255, 71, 15);" transform="matrix(1, -0.000061, -0.000061, -1, 105.389198, 7.287455)"/>
      </g>
      <g transform="matrix(0.321722, -0.321669, 0.321669, 0.321722, 73.195023, 121.647621)">
        <title>Divider</title>
        <path d="M 90.253 269.077 L 99.359 284.849 L 81.147 284.849 L 90.253 269.077 Z" style="fill: rgb(255, 71, 15);" transform="matrix(1, 0.000061, -0.000061, 1, -56.872238, -23.485273)"/>
        <path d="M -72.041 -269.077 L -62.935 -253.305 L -81.147 -253.305 L -72.041 -269.077 Z" style="fill: rgb(255, 71, 15);" transform="matrix(1, -0.000061, -0.000061, -1, 105.389198, 7.287455)"/>
      </g>
      <g transform="matrix(0.372692, 0.260915, 0.260915, -0.372692, 14.879604, 291.67157)">
        <title>Divider</title>
        <path d="M 90.253 269.077 L 99.359 284.849 L 81.147 284.849 L 90.253 269.077 Z" style="fill: rgb(255, 71, 15);" transform="matrix(1, 0.000061, -0.000061, 1, -56.872238, -23.485273)"/>
        <path d="M -72.041 -269.077 L -62.935 -253.305 L -81.147 -253.305 L -72.041 -269.077 Z" style="fill: rgb(255, 71, 15);" transform="matrix(1, -0.000061, -0.000061, -1, 105.389198, 7.287455)"/>
      </g>
      <g transform="matrix(0.292449, -0.348498, 0.348498, 0.292449, -18.683998, 20.976412)">
        <title>Divider</title>
        <path d="M 90.253 269.077 L 99.359 284.849 L 81.147 284.849 L 90.253 269.077 Z" style="fill: rgb(255, 71, 15);" transform="matrix(1, 0.000061, -0.000061, 1, -56.872238, -23.485273)"/>
        <path d="M -72.041 -269.077 L -62.935 -253.305 L -81.147 -253.305 L -72.041 -269.077 Z" style="fill: rgb(255, 71, 15);" transform="matrix(1, -0.000061, -0.000061, -1, 105.389198, 7.287455)"/>
      </g>
      <g transform="matrix(0.260963, 0.37266, 0.37266, -0.260963, 70.060516, 148.346725)">
        <title>Divider</title>
        <path d="M 90.253 269.077 L 99.359 284.849 L 81.147 284.849 L 90.253 269.077 Z" style="fill: rgb(255, 71, 15);" transform="matrix(1, 0.000061, -0.000061, 1, -56.872238, -23.485273)"/>
        <path d="M -72.041 -269.077 L -62.935 -253.305 L -81.147 -253.305 L -72.041 -269.077 Z" style="fill: rgb(255, 71, 15);" transform="matrix(1, -0.000061, -0.000061, -1, 105.389198, 7.287455)"/>
      </g>
      <g transform="matrix(0.260979, 0.372648, 0.372648, -0.260979, -30.85178, 210.087143)">
        <title>Divider</title>
        <path d="M 90.253 269.077 L 99.359 284.849 L 81.147 284.849 L 90.253 269.077 Z" style="fill: rgb(255, 71, 15);" transform="matrix(1, 0.000061, -0.000061, 1, -56.872238, -23.485273)"/>
        <path d="M -72.041 -269.077 L -62.935 -253.305 L -81.147 -253.305 L -72.041 -269.077 Z" style="fill: rgb(255, 71, 15);" transform="matrix(1, -0.000061, -0.000061, -1, 105.389198, 7.287455)"/>
      </g>
      <g transform="matrix(0.412336, -0.192234, 0.192234, 0.412336, 82.160576, 78.934517)">
        <title>Divider</title>
        <path d="M 90.253 269.077 L 99.359 284.849 L 81.147 284.849 L 90.253 269.077 Z" style="fill: rgb(255, 71, 15);" transform="matrix(1, 0.000061, -0.000061, 1, -56.872238, -23.485273)"/>
        <path d="M -72.041 -269.077 L -62.935 -253.305 L -81.147 -253.305 L -72.041 -269.077 Z" style="fill: rgb(255, 71, 15);" transform="matrix(1, -0.000061, -0.000061, -1, 105.389198, 7.287455)"/>
      </g>
    </g>
  </g>
</svg>