<?xml version="1.0" encoding="utf-8"?>
<svg viewBox="237 174.596 71 84.2" xmlns="http://www.w3.org/2000/svg">
  <defs>
    <linearGradient id="linearGradient5784" y2="145.91" gradientUnits="userSpaceOnUse" x2="-150.66" y1="-35.774" x1="-150.66">
      <stop id="stop5490-9" style="stop-color:#fb9e00" offset="0"/>
      <stop id="stop5492-3" style="stop-color:#f44f00" offset="1"/>
    </linearGradient>
    <linearGradient id="linearGradient4009" y2="69.331" gradientUnits="userSpaceOnUse" y1="-33.352" gradientTransform="matrix(.91463 0 0 .91463 535.32 843.08)" x2="-150.71" x1="-138.55">
      <stop id="stop5509-79" style="stop-color:#ffffff" offset="0"/>
      <stop id="stop5511-9" style="stop-color:#ffffff;stop-opacity:.66667" offset="0"/>
      <stop id="stop5513-5" style="stop-color:#9dbbe1;stop-opacity:.089431" offset="1"/>
    </linearGradient>
  </defs>
  <g transform="matrix(0.720134, 0, 0, 0.663613, -199.093628, -185.681793)" style="">
    <title>shareBlock</title>
    <g id="layer1" transform="matrix(-2.256522, 0, 0, 2.416698, 709.026062, -1877.712036)" style="">
      <title>Block</title>
      <g id="g3000" transform="translate(-6,1003)">
        <path id="path2987" d="m30 2.3622-20 10 20 10 20-10z" style="fill:#f9f9f9"/>
        <path id="path2989" style="fill:#ececec" d="m30 22.362v25l20-10v-25z"/>
        <path id="path2991" d="m30 22.362v25l-20-10v-25z" style="fill:#cccccc"/>
        <path id="path2993" d="m30 2.375-20 10v25l20 10 20-10v-25l-20-10z" style="stroke:#4d4d4d;stroke-width:1px;fill:none"/>
      </g>
    </g>
    <g id="g5977" transform="matrix(0.222881, 0.08889, 0, 0.236952, 543.994141, 370.887848)" style="">
      <title>Orange Icon</title>
      <path id="path5778" style="fill:#f44800" d="m-59.822 55.066c0 50.17-40.671 90.841-90.841 90.841s-90.841-40.671-90.841-90.841 40.671-90.841 90.841-90.841 90.841 40.671 90.841 90.841z" transform="matrix(.96341 0 0 .97561 542.67 839.72)"/>
      <path id="path5780" style="fill:url(#linearGradient5784)" d="m-59.822 55.066c0 50.17-40.671 90.841-90.841 90.841s-90.841-40.671-90.841-90.841 40.671-90.841 90.841-90.841 90.841 40.671 90.841 90.841z" transform="matrix(.91463 0 0 .91463 535.32 843.08)"/>
      <path id="path5782" style="opacity:.75720;fill:url(#linearGradient4009)" d="m397.52 810.35c-45.16 0-81.909 36.056-83.062 80.938 37.387 15.04 95.243 25.784 166.03-2.0938-2.2099-43.915-38.505-78.844-82.969-78.844z"/>
    </g>
    <g id="g-2" transform="matrix(0.033943, 0, 0, 0.036833, 721.31543, 733.239563)" style="">
      <title>Share</title>
      <g id="g11676" transform="matrix(0, -17.254, 17.254, 4.709465, 8564.875, -2222.584717)" style="">
        <path id="path11666" d="m-134.38 309.5c0 4.1683-3.3791 7.5474-7.5474 7.5474s-7.5474-3.3791-7.5474-7.5474 3.3791-7.5474 7.5474-7.5474 7.5474 3.3791 7.5474 7.5474z" style="color: rgb(0, 0, 0); fill: rgb(255, 255, 255);" transform="translate(1.1045 -949.48)"/>
        <path id="path11668" d="m-134.38 309.5c0 4.1683-3.3791 7.5474-7.5474 7.5474s-7.5474-3.3791-7.5474-7.5474 3.3791-7.5474 7.5474-7.5474 7.5474 3.3791 7.5474 7.5474z" style="color: rgb(0, 0, 0); fill: rgb(255, 255, 255);" transform="translate(32.767 -949.48)"/>
        <path id="path11670" d="m-134.38 309.5c0 4.1683-3.3791 7.5474-7.5474 7.5474s-7.5474-3.3791-7.5474-7.5474 3.3791-7.5474 7.5474-7.5474 7.5474 3.3791 7.5474 7.5474z" style="color: rgb(0, 0, 0); fill: rgb(255, 255, 255);" transform="translate(16.936 -976.35)"/>
        <rect id="rect11672" style="color: rgb(0, 0, 0); fill: rgb(255, 255, 255);" transform="rotate(-60.001)" height="3" width="27.692" y="-443.73" x="488.22"/>
        <rect id="rect11674" style="color: rgb(0, 0, 0); fill: rgb(255, 255, 255);" transform="matrix(-.5 -.86603 -.86603 .5 0 0)" height="3" width="27.692" y="-226.9" x="613.16"/>
      </g>
    </g>
  </g>
</svg>